AC-Jade.glyphspackage
{
glyphname = exclam;
layers = (
{
layerId = master01;
shapes = (
{
closed = 1;
nodes = (
(164,209,l),
(186,730,l),
(181,740,l),
(77,740,l),
(72,730,l),
(93,209,l)
);
},
{
closed = 1;
nodes = (
(188,27,o),
(151,-6,o),
(127,-6,cs),
(103,-6,o),
(66,27,o),
(66,56,cs),
(66,85,o),
(103,118,o),
(127,118,cs),
(151,118,o),
(188,85,o),
(188,56,cs)
);
}
);
width = 261;
}
);
unicode = 33;
}
{
glyphname = quotedbl;
layers = (
{
layerId = master01;
shapes = (
{
closed = 1;
nodes = (
(81,442,l),
(128,442,l),
(137,449,l),
(159,750,l),
(154,760,l),
(55,760,l),
(50,750,l),
(71,449,l)
);
},
{
closed = 1;
nodes = (
(241,442,l),
(288,442,l),
(297,449,l),
(319,750,l),
(314,760,l),
(215,760,l),
(210,750,l),
(231,449,l)
);
}
);
width = 369;
}
);
unicode = 34;
}
{
glyphname = numbersign;
layers = (
{
layerId = master01;
shapes = (
{
closed = 1;
nodes = (
(152,-2,l),
(160,8,l),
(316,692,l),
(312,700,l),
(245,700,l),
(238,693,l),
(82,8,l),
(84,-2,l)
);
},
{
closed = 1;
nodes = (
(349,-2,l),
(358,8,l),
(502,692,l),
(499,700,l),
(432,700,l),
(424,693,l),
(280,8,l),
(281,-2,l)
);
},
{
closed = 1;
nodes = (
(324,220,o),
(451,215,o),
(524,212,c),
(533,220,l),
(548,294,l),
(539,302,l),
(467,299,o),
(337,294,o),
(278,294,cs),
(219,294,o),
(109,299,o),
(17,302,c),
(8,294,l),
(-7,220,l),
(2,212,l),
(95,215,o),
(206,220,o),
(265,220,cs)
);
},
{
closed = 1;
nodes = (
(365,420,o),
(492,415,o),
(565,412,c),
(574,420,l),
(590,494,l),
(581,502,l),
(509,499,o),
(379,494,o),
(320,494,cs),
(261,494,o),
(151,499,o),
(59,502,c),
(50,494,l),
(34,420,l),
(43,412,l),
(136,415,o),
(247,420,o),
(306,420,cs)
);
}
);
width = 588;
}
);
unicode = 35;
}
{
color = (99,255,209,255);
glyphname = dollar;
layers = (
{
anchors = (
{
name = bottom;
pos = (248,0);
},
{
name = top;
pos = (248,700);
}
);
layerId = master01;
shapes = (
{
closed = 1;
nodes = (
(395,-10,o),
(483,70.607,o),
(483,195,cs),
(483,431,o),
(152,404,o),
(152,546,c),
(152,597,o),
(187.366,627,o),
(246,627,cs),
(304,627,o),
(390,602,o),
(435,585,c),
(441,588,l),
(465,674,l),
(461,681,l),
(387,703,o),
(327,710,o),
(266,710,cs),
(149.014,710,o),
(62,653,o),
(62,546,c),
(62,336,o),
(393,327,o),
(393,186,c),
(393,106.714,o),
(346,75,o),
(273,75,cs),
(217,75,o),
(159,94,o),
(74,120,c),
(66,118,l),
(40,31,l),
(45,23,l),
(113,5,o),
(190,-10,o),
(284,-10,c)
);
},
{
closed = 1;
nodes = (
(252,352,l),
(252,205,o),
(251,46,o),
(244,-97,c),
(252,-106,l),
(308,-106,l),
(316,-97,l),
(309,43,o),
(311,207,o),
(311,352,c)
);
},
{
closed = 1;
nodes = (
(315,399,l),
(315,533,o),
(314,623,o),
(320,775,c),
(312,784,l),
(256,784,l),
(248,775,l),
(254,623,o),
(253,530,o),
(253,399,c)
);
}
);
width = 500;
}
);
unicode = 36;
}
{
glyphname = percent;
layers = (
{
layerId = master01;
shapes = (
{
closed = 1;
nodes = (
(176,0,l),
(184,10,l),
(636,692,l),
(632,700,l),
(547,700,l),
(540,693,l),
(88,10,l),
(90,0,l)
);
},
{
closed = 1;
nodes = (
(628,-11,o),
(672,59,o),
(672,146,cs),
(672,228,o),
(627,309,o),
(528,309,cs),
(432,309,o),
(387,235,o),
(387,146,cs),
(387,61,o),
(435,-11,o),
(531,-11,cs)
);
},
{
closed = 1;
nodes = (
(479,51,o),
(453,93,o),
(452,146,cs),
(451,204,o),
(478,246,o),
(525,246,cs),
(581,246,o),
(606,204,o),
(606,146,cs),
(606,88,o),
(581,51,o),
(528,51,cs)
);
},
{
closed = 1;
nodes = (
(291,388,o),
(337,458,o),
(335,545,cs),
(333,634,o),
(290,708,o),
(191,708,cs),
(95,708,o),
(50,634,o),
(50,545,cs),
(50,460,o),
(98,388,o),
(194,388,cs)
);
},
{
closed = 1;
nodes = (
(142,450,o),
(116,492,o),
(115,545,cs),
(114,603,o),
(141,645,o),
(188,645,cs),
(244,645,o),
(269,603,o),
(269,545,cs),
(269,487,o),
(244,450,o),
(191,450,cs)
);
}
);
width = 722;
}
);
unicode = 37;
}
{
color = (99,255,209,255);
glyphname = ampersand;
layers = (
{
background = {
shapes = (
{
closed = 1;
nodes = (
(500,598,o),
(513,623,o),
(529,644,c),
(528,648,o),
(528,649,o),
(527,654,c),
(499,672,o),
(427,686,o),
(355,686,cs),
(321,686,o),
(288,683,o),
(259,675,cs),
(181,654,o),
(101,613,o),
(101,506,cs),
(101,422,o),
(172,365,o),
(284,358,c),
(282,365,l),
(143,364,o),
(55,294,o),
(55,184,cs),
(55,64,o),
(155,-11,o),
(315,-11,cs),
(435,-11,o),
(549,39,o),
(542,137,cs),
(539,183,o),
(537,229,o),
(537,276,cs),
(537,302,o),
(538,329,o),
(539,356,c),
(447,356,l),
(451,297,o),
(452,237,o),
(452,177,cs),
(452,137,o),
(452,98,o),
(450,58,c),
(459,115,l),
(436,92,o),
(375,77,o),
(315,77,cs),
(204,77,o),
(155,113,o),
(155,196,cs),
(155,309,o),
(241,319,o),
(351,319,cs),
(523,319,o),
(569,318,o),
(639,310,c),
(647,314,l),
(647,386,l),
(639,390,l),
(607,386,o),
(565,386,o),
(416,386,cs),
(322,386,o),
(201,398,o),
(201,503,cs),
(201,574,o),
(237,588,o),
(259,599,cs),
(272,605,o),
(289,608,o),
(308,608,cs),
(367,608,o),
(445,585,o),
(470,575,c),
(473,575,o),
(478,575,o),
(480,575,c)
);
}
);
};
layerId = master01;
shapes = (
{
closed = 1;
nodes = (
(484,668,l),
(482,678,l),
(447,693,o),
(391,710,o),
(296,710,cs),
(199,710,o),
(99,651,o),
(99,544,cs),
(99,450,o),
(164,382,o),
(269,382,c),
(267,389,l),
(134,388,o),
(50,309,o),
(50,184,cs),
(50,64,o),
(146,-11,o),
(300,-11,cs),
(419,-11,o),
(495,39,o),
(495,136,cs),
(495,201,o),
(491,296,o),
(494,380,c),
(402,380,l),
(407,313,o),
(407,245,o),
(407,177,cs),
(407,137,o),
(407,98,o),
(405,58,c),
(414,115,l),
(391,92,o),
(360,77,o),
(300,77,cs),
(196,77,o),
(150,113,o),
(150,196,cs),
(150,331,o),
(232,343,o),
(336,343,cs),
(481,343,o),
(494.612,340.599,o),
(554,334,c),
(562,338,l),
(562,410,l),
(554,414,l),
(528,411,o),
(493,410,o),
(371,410,cs),
(282,410,o),
(196,430,o),
(196,547,cs),
(196,609,o),
(237,636,o),
(293,636,cs),
(357,636,o),
(409,607,o),
(436,592,c),
(446,592,l)
);
}
);
width = 592;
}
);
unicode = 38;
}
{
glyphname = quotesingle;
layers = (
{
layerId = master01;
shapes = (
{
closed = 1;
nodes = (
(81,442,l),
(128,442,l),
(137,449,l),
(159,750,l),
(154,760,l),
(55,760,l),
(50,750,l),
(71,449,l)
);
}
);
width = 209;
}
);
unicode = 39;
}
{
color = 5;
glyphname = parenright;
layers = (
{
layerId = master01;
shapes = (
{
closed = 1;
nodes = (
(188.328,-28.483,o),
(274,146.896,o),
(274,326,cs),
(274,505.104,o),
(188.328,680.483,o),
(54,777,c),
(46,776,l),
(10,727,l),
(10,720,l),
(110.498,649.353,o),
(174,497.144,o),
(174,326,cs),
(174,155.851,o),
(110.498,3.647,o),
(10,-67,c),
(10,-74,l),
(46,-124,l),
(54,-125,l)
);
}
);
width = 334;
}
);
unicode = 41;
}
{
glyphname = asterisk;
layers = (
{
layerId = master01;
shapes = (
{
closed = 1;
nodes = (
(237,596,l),
(242,600,l),
(257,732,l),
(251,737,l),
(193,737,l),
(186,732,l),
(198,600,l),
(201,596,l)
);
},
{
closed = 1;
nodes = (
(220,579,l),
(225,576,l),
(355,603,l),
(359,610,l),
(341,665,l),
(334,670,l),
(212,619,l),
(208,614,l)
);
},
{
closed = 1;
nodes = (
(216,585,l),
(214,578,l),
(280,463,l),
(288,462,l),
(335,496,l),
(337,504,l),
(251,604,l),
(244,606,l)
);
},
{
closed = 1;
nodes = (
(200,603,l),
(193,602,l),
(104,504,l),
(105,496,l),
(152,462,l),
(160,462,l),
(229,575,l),
(229,582,l)
);
},
{
closed = 1;
nodes = (
(229,610,l),
(226,616,l),
(105,671,l),
(98,667,l),
(80,612,l),
(83,604,l),
(211,574,l),
(218,576,l)
);
}
);
width = 439;
}
);
unicode = 42;
}
{
glyphname = plus;
layers = (
{
layerId = master01;
shapes = (
{
closed = 1;
nodes = (
(371,320,o),
(458,315,o),
(531,312,c),
(540,320,l),
(540,394,l),
(531,402,l),
(459,399,o),
(369,394,o),
(310,394,cs),
(251,394,o),
(181,399,o),
(89,402,c),
(80,394,l),
(80,320,l),
(89,312,l),
(182,315,o),
(253,320,o),
(312,320,cs)
);
},
{
closed = 1;
nodes = (
(271,298,o),
(266,209,o),
(263,136,c),
(271,127,l),
(349,127,l),
(357,136,l),
(354,208,o),
(349,300,o),
(349,357,cs),
(349,414,o),
(354,486,o),
(357,578,c),
(349,587,l),
(271,587,l),
(263,578,l),
(266,485,o),
(271,412,o),
(271,355,cs)
);
}
);
width = 620;
}
);
unicode = 43;
}
{
glyphname = comma;
layers = (
{
layerId = master01;
shapes = (
{
closed = 1;
nodes = (
(152,5,o),
(114,-78,o),
(71,-181,c),
(64,-181,l),
(35,-168,l),
(32,-162,l),
(47,-105,o),
(52,-66,o),
(52,-38,cs),
(52,17,o),
(32,29,o),
(32,56,cs),
(32,78,o),
(67,118,o),
(91,118,cs),
(115,118,o),
(152,78,o),
(152,56,cs)
);
}
);
width = 232;
}
);
unicode = 44;
}
{
glyphname = hyphen;
layers = (
{
layerId = master01;
shapes = (
{
closed = 1;
nodes = (
(309,263,o),
(289,263,o),
(200,263,cs),
(110,263,o),
(90,263,o),
(47,261,c),
(40,267,l),
(40,351,l),
(48,356,l),
(91,355,o),
(111,354,o),
(200,354,cs),
(290,354,o),
(309,355,o),
(350,356,c),
(360,351,l),
(360,266,l),
(350,261,l)
);
}
);
width = 400;
}
);
unicode = 45;
}
{
glyphname = period;
layers = (
{
layerId = master01;
shapes = (
{
closed = 1;
nodes = (
(152,27,o),
(115,-6,o),
(91,-6,cs),
(67,-6,o),
(30,27,o),
(30,56,cs),
(30,85,o),
(67,118,o),
(91,118,cs),
(115,118,o),
(152,85,o),
(152,56,cs)
);
}
);
width = 232;
}
);
unicode = 46;
}
{
color = 5;
glyphname = slash;
layers = (
{
layerId = master01;
shapes = (
{
closed = 1;
nodes = (
(87,-167,l),
(95,-157,l),
(367,752,l),
(363,760,l),
(289,760,l),
(282,753,l),
(10,-157,l),
(12,-167,l)
);
}
);
width = 387;
}
);
unicode = 47;
}
{
color = (38,219,207,255);
glyphname = zero;
layers = (
{
layerId = master01;
shapes = (
{
closed = 1;
nodes = (
(472,-10,o),
(540,151,o),
(540,350,cs),
(540,549,o),
(472,710,o),
(300,710,cs),
(128,710,o),
(60,549,o),
(60,350,cs),
(60,151,o),
(128,-10,o),
(300,-10,cs)
);
},
{
closed = 1;
nodes = (
(187,80,o),
(160,201,o),
(160,350,cs),
(160,499,o),
(187,620,o),
(300,620,cs),
(413,620,o),
(440,499,o),
(440,350,cs),
(440,201,o),
(413,80,o),
(300,80,cs)
);
}
);
width = 600;
}
);
unicode = 48;
}
{
color = (38,219,207,255);
glyphname = one;
layers = (
{
background = {
shapes = (
{
closed = 1;
nodes = (
(322,0,l),
(327,10,l),
(323,69,o),
(317,199,o),
(317,335,cs),
(317,470,o),
(323,614,o),
(327,690,c),
(322,700,l),
(229,700,l),
(172,656,o),
(112,615,o),
(45,579,c),
(40,569,l),
(84,502,l),
(93,499,l),
(143,537,o),
(231,593,o),
(267,609,c),
(226,647,l),
(229,598,o),
(233,504,o),
(233,337,cs),
(233,200,o),
(230,59,o),
(225,10,c),
(230,0,l)
);
}
);
};
layerId = master01;
shapes = (
{
closed = 1;
nodes = (
(237,72,l),
(149,75,o),
(84,78,o),
(54,80,c),
(44,75,l),
(44,1,l),
(54,-4,l),
(121,2,o),
(374,1,o),
(432,-4,c),
(442,1,l),
(442,75,l),
(432,80,l),
(406,76,o),
(372,74,o),
(274,73,c),
(305,43,l),
(300,169,o),
(298,287.483,o),
(298,394,cs),
(298,551,o),
(306.332,634.958,o),
(308,690,c),
(303,700,l),
(217,700,l),
(160,659,o),
(98.587,615.922,o),
(35,579,c),
(30,569,l),
(60,513,l),
(69,510,l),
(100,533,o),
(174,580,o),
(236,615,c),
(214,651,l),
(214,511,ls),
(214,300.754,o),
(210,169,o),
(204,43,c)
);
}
);
width = 522;
}
);
metricRight = "=H";
unicode = 49;
}
{
color = (38,219,207,255);
glyphname = two;
layers = (
{
background = {
shapes = (
{
closed = 1;
nodes = (
(328,-10,o),
(450,72,o),
(450,221,cs),
(450,367,o),
(351,437,o),
(204,383,c),
(211,368,l),
(327,405,o),
(404,463,o),
(404,560,cs),
(404,663,o),
(329,710,o),
(239,710,c),
(167,710,o),
(99,682,o),
(38,645,c),
(36,640,l),
(58,591,l),
(62,589,l),
(123,612,o),
(164,626,o),
(215,626,cs),
(275,626,o),
(314,604,o),
(314,551,c),
(314,479,o),
(257,445,o),
(164,402,cs),
(125,384,l),
(140,335,l),
(195,349,ls),
(294,374,o),
(360,315,o),
(360,226,cs),
(360,117,o),
(312,74,o),
(238,74,c),
(178,74,o),
(97,104,o),
(45,125,c),
(37,124,l),
(3,35,l),
(9,27,l),
(67,6,o),
(132,-10,o),
(212,-10,c)
);
}
);
};
layerId = master01;
shapes = (
{
closed = 1;
nodes = (
(430,0,l),
(440,5,l),
(454,94,l),
(447,100,l),
(93,87,l),
(101,59,l),
(175,121,o),
(428,325,o),
(428,548,cs),
(428,647,o),
(354,711,o),
(242,711,cs),
(158,711,o),
(101,679,o),
(38,648,c),
(36,643,l),
(58,588,l),
(64,586,l),
(124,605,o),
(166,618,o),
(220,618,c),
(275,618,o),
(328,590,o),
(328,518,cs),
(328,360,o),
(97,143,o),
(36,83,c),
(30,72,l),
(43,6,l),
(50,0,l)
);
}
);
width = 484;
}
);
unicode = 50;
}
{
color = (38,219,207,255);
glyphname = three;
layers = (
{
background = {
shapes = (
{
closed = 1;
nodes = (
(389,-12,o),
(514,51,o),
(514,201,cs),
(514,320,o),
(433,383,o),
(292,383,c),
(292,380,l),
(404,387,o),
(468,453,o),
(468,541,cs),
(468,657,o),
(374,710,o),
(268,710,cs),
(208,710,o),
(144,694,o),
(89,663,c),
(86,658,l),
(113,588,l),
(117,586,l),
(160,606,o),
(213,620,o),
(260,620,cs),
(321,620,o),
(370,596,o),
(370,527,cs),
(370,455,o),
(324,418,o),
(241,418,cs),
(202,418,l),
(202,336,l),
(245,338,ls),
(352,343,o),
(414,302,o),
(414,213,cs),
(414,125,o),
(356,78,o),
(255,78,cs),
(200,78,o),
(139,93,o),
(87,108,c),
(83,106,l),
(55,44,l),
(58,39,l),
(115,6,o),
(188,-12,o),
(259,-12,cs)
);
},
{
closed = 1;
nodes = (
(422,-11,o),
(513,70,o),
(513,195,cs),
(513,417,o),
(192,412,o),
(192,546,c),
(192,597,o),
(226,627,o),
(283,627,cs),
(341,627,o),
(427,602,o),
(472,585,c),
(478,588,l),
(502,674,l),
(498,681,l),
(424,703,o),
(364,710,o),
(303,710,cs),
(197,710,o),
(102,636,o),
(102,527,c),
(102,331,o),
(423,310,o),
(423,186,c),
(423,106,o),
(373,74,o),
(306,74,cs),
(250,74,o),
(192,93,o),
(107,119,c),
(99,117,l),
(73,30,l),
(78,22,l),
(146,4,o),
(223,-11,o),
(317,-11,c)
);
}
);
};
layerId = master01;
shapes = (
{
closed = 1;
nodes = (
(355,-10,o),
(477,72,o),
(477,221,cs),
(477,367,o),
(378,437,o),
(231,383,c),
(238,368,l),
(354,405,o),
(431,463,o),
(431,560,cs),
(431,663,o),
(356,710,o),
(266,710,c),
(194,710,o),
(126,682,o),
(65,645,c),
(63,640,l),
(85,591,l),
(89,589,l),
(150,612,o),
(191,626,o),
(242,626,cs),
(302,626,o),
(341,604,o),
(341,551,c),
(341,479,o),
(284,445,o),
(191,402,cs),
(152,384,l),
(167,335,l),
(222,349,ls),
(321,374,o),
(387,315,o),
(387,226,cs),
(387,117,o),
(339,74,o),
(265,74,c),
(205,74,o),
(124,104,o),
(72,125,c),
(64,124,l),
(30,35,l),
(36,27,l),
(94,6,o),
(159,-10,o),
(239,-10,c)
);
}
);
width = 497;
}
);
unicode = 51;
}
{
color = (38,219,207,255);
glyphname = four;
layers = (
{
layerId = master01;
shapes = (
{
closed = 1;
nodes = (
(502,195,l),
(502,284,l),
(499,288,l),
(452,284,o),
(214,276,o),
(67,276,c),
(99,241,l),
(371,664,l),
(370,676,l),
(317,707,l),
(304,703,l),
(15,243,l),
(16,232,l),
(33,202,l),
(43,196,l),
(153,196,o),
(458,191,o),
(499,191,c)
);
},
{
closed = 1;
nodes = (
(419,0,l),
(424,10,l),
(422,44,o),
(414,202,o),
(414,294,cs),
(414,378,o),
(416,455,o),
(419,508,c),
(414,520,l),
(330,520,l),
(325,509,l),
(329,455,o),
(330,377,o),
(330,294,cs),
(330,202,o),
(322,44,o),
(320,10,c),
(325,0,l)
);
}
);
width = 522;
}
);
unicode = 52;
}
{
color = (38,219,207,255);
glyphname = five;
layers = (
{
background = {
shapes = (
{
closed = 1;
nodes = (
(401,-10,o),
(523,72,o),
(523,221,cs),
(523,367,o),
(424,437,o),
(277,383,c),
(284,368,l),
(400,405,o),
(477,463,o),
(477,560,cs),
(477,663,o),
(402,710,o),
(312,710,c),
(240,710,o),
(172,682,o),
(111,645,c),
(109,640,l),
(131,591,l),
(135,589,l),
(196,612,o),
(237,626,o),
(288,626,cs),
(348,626,o),
(387,604,o),
(387,551,c),
(387,479,o),
(330,445,o),
(237,402,cs),
(198,384,l),
(213,335,l),
(268,349,ls),
(367,374,o),
(433,315,o),
(433,226,cs),
(433,117,o),
(385,74,o),
(311,74,c),
(251,74,o),
(170,104,o),
(118,125,c),
(110,124,l),
(76,35,l),
(82,27,l),
(140,6,o),
(205,-10,o),
(285,-10,c)
);
}
);
};
layerId = master01;
shapes = (
{
closed = 1;
nodes = (
(363,-9,o),
(468,84,o),
(468,216,cs),
(468,360,o),
(378,415,o),
(125,452,c),
(159,432,l),
(179,647,l),
(136,619,l),
(230,619,o),
(344,614,o),
(426,611,c),
(431,620,l),
(431,691,l),
(427,701,l),
(378,698,o),
(322,696,o),
(267,696,cs),
(200,696,o),
(156,698,o),
(97,700,c),
(91,690,l),
(63,383,l),
(75,373,l),
(275,340,o),
(377,309,o),
(377,206,c),
(377,127,o),
(340,73,o),
(257,73,cs),
(200,73,o),
(134,97,o),
(58,127,c),
(53,124,l),
(20,37,l),
(22,30,l),
(86,5,o),
(147,-9,o),
(215,-9,cs)
);
}
);
width = 498;
}
);
unicode = 53;
}
{
color = (38,219,207,255);
glyphname = six;
layers = (
{
layerId = master01;
shapes = (
{
closed = 1;
nodes = (
(80,533,o),
(80,275,cs),
(80,93,o),
(161,-10,o),
(305,-10,c),
(444,-10,o),
(526,97,o),
(526,224,cs),
(526,379,o),
(442,449,o),
(324,449,c),
(239,449,o),
(187,394,o),
(142,337,c),
(166,298,l),
(202,331,o),
(253,369,o),
(321,369,c),
(394,369,o),
(436,310,o),
(436,231,cs),
(436,134,o),
(391,75,o),
(312,75,c),
(218,76,o),
(173,139,o),
(173,285,cs),
(173,508,o),
(329,624,o),
(479,652,c),
(481,657,l),
(473,707,l),
(466,710,l),
(258,708,o)
);
}
);
width = 600;
}
);
unicode = 54;
}
{
color = (38,219,207,255);
glyphname = seven;
layers = (
{
layerId = master01;
shapes = (
{
closed = 1;
nodes = (
(375,631,l),
(294,445,o),
(183,186,o),
(104,10,c),
(109,0,l),
(206,0,l),
(214,10,l),
(253,135,o),
(365,449,o),
(440,625,c),
(441,638,l),
(436,695,l),
(428,700,l),
(361,697,o),
(302,695,o),
(235,695,cs),
(168,695,o),
(117,697,o),
(34,700,c),
(29,694,l),
(20,612,l),
(29,605,l),
(149,611,o),
(258,611,o),
(387,611,c)
);
}
);
width = 461;
}
);
unicode = 55;
}
{
color = (38,219,207,255);
glyphname = eight;
layers = (
{
background = {
shapes = (
{
closed = 1;
nodes = (
(435,-10,o),
(530,69,o),
(530,181,cs),
(530,296,o),
(473,373,o),
(362,403,cs),
(251,433,o),
(203,479,o),
(203,542,cs),
(203,597,o),
(240,628,o),
(306,628,cs),
(375,628,o),
(414,593,o),
(414,530,cs),
(414,463,o),
(379,427,o),
(299,408,c),
(234,381,l),
(145,357,o),
(75,280,o),
(75,180,cs),
(75,68,o),
(168,-10,o),
(300,-10,cs)
);
},
{
closed = 1;
nodes = (
(210,70,o),
(160,110,o),
(160,181,cs),
(160,263,o),
(218,312,o),
(299,336,c),
(352,362,l),
(441,397,o),
(499,447,o),
(499,530,cs),
(499,635,o),
(418,708,o),
(302,708,cs),
(191,708,o),
(113,639,o),
(113,541,cs),
(113,437,o),
(159,369,o),
(272,337,cs),
(384,306,o),
(440,260,o),
(440,181,cs),
(440,110,o),
(390,70,o),
(300,70,cs)
);
}
);
};
layerId = master01;
shapes = (
{
closed = 1;
nodes = (
(422,-10,o),
(521,77,o),
(521,203,c),
(521,419,o),
(180,409,o),
(180,548,c),
(180,611,o),
(221,640,o),
(279,640,cs),
(341,640,o),
(381,607,o),
(381,543,cs),
(381,469,o),
(353,428,o),
(286,408,c),
(211,381,l),
(123,359,o),
(50,280,o),
(50,180,cs),
(50,68,o),
(144,-10,o),
(277,-10,cs)
);
},
{
closed = 1;
nodes = (
(205,60,o),
(150,109,o),
(150,187,c),
(150,270,o),
(208,308,o),
(276,336,c),
(324,362,l),
(419,393,o),
(481,452,o),
(481,540,cs),
(481,640,o),
(402,710,o),
(286,710,c),
(158,710,o),
(91,634,o),
(90,537,c),
(90,323,o),
(427,340,o),
(427,181,cs),
(427,100,o),
(373,60,o),
(299,60,c)
);
}
);
width = 571;
}
);
unicode = 56;
}
{
color = (38,219,207,255);
glyphname = nine;
layers = (
{
background = {
shapes = (
{
closed = 1;
nodes = (
(179,710,o),
(114,694,o),
(56,673,c),
(50,665,l),
(84,576,l),
(92,575,l),
(144,596,o),
(225,626,o),
(285,626,c),
(359,626,o),
(407,583,o),
(407,474,cs),
(407,385,o),
(341,326,o),
(242,351,cs),
(187,365,l),
(172,316,l),
(211,298,ls),
(304,255,o),
(361,221,o),
(361,149,c),
(361,96,o),
(322,74,o),
(262,74,cs),
(211,74,o),
(170,88,o),
(109,111,c),
(105,109,l),
(83,60,l),
(85,55,l),
(146,18,o),
(214,-10,o),
(286,-10,c),
(376,-10,o),
(451,37,o),
(451,140,cs),
(451,237,o),
(374,295,o),
(258,332,c),
(251,317,l),
(398,263,o),
(497,333,o),
(497,479,cs),
(497,628,o),
(375,710,o),
(259,710,c)
);
}
);
};
layerId = master01;
shapes = (
{
closed = 1;
nodes = (
(486,191,o),
(486,424,cs),
(486,607,o),
(403,710,o),
(266,710,cs),
(121,710,o),
(40,604,o),
(40,475,cs),
(40,317,o),
(126,246,o),
(242,246,c),
(327,246,o),
(379,301,o),
(424,358,c),
(398,394,l),
(365,359,o),
(318,326,o),
(259,326,c),
(175,326,o),
(130,392,o),
(130,481,cs),
(130,571,o),
(174,625,o),
(268,625,cs),
(347,625,o),
(393,561,o),
(393,414,cs),
(393,250,o),
(203,130,o),
(97,50,c),
(95,45,l),
(130,-8,l),
(137,-11,l),
(280,77,o)
);
}
);
width = 516;
}
);
unicode = 57;
}
{
glyphname = colon;
layers = (
{
layerId = master01;
shapes = (
{
closed = 1;
nodes = (
(152,27,o),
(115,-6,o),
(91,-6,cs),
(67,-6,o),
(30,27,o),
(30,56,cs),
(30,85,o),
(67,118,o),
(91,118,cs),
(115,118,o),
(152,85,o),
(152,56,cs)
);
},
{
closed = 1;
nodes = (
(152,357,o),
(115,324,o),
(91,324,cs),
(67,324,o),
(30,357,o),
(30,386,cs),
(30,415,o),
(67,448,o),
(91,448,cs),
(115,448,o),
(152,415,o),
(152,386,cs)
);
}
);
width = 180;
}
);
unicode = 58;
}
{
glyphname = semicolon;
layers = (
{
layerId = master01;
shapes = (
{
closed = 1;
nodes = (
(152,5,o),
(114,-78,o),
(71,-181,c),
(64,-181,l),
(35,-168,l),
(32,-162,l),
(47,-105,o),
(52,-66,o),
(52,-38,cs),
(52,17,o),
(32,29,o),
(32,56,cs),
(32,78,o),
(67,118,o),
(91,118,cs),
(115,118,o),
(152,78,o),
(152,56,cs)
);
},
{
closed = 1;
nodes = (
(152,357,o),
(115,324,o),
(91,324,cs),
(67,324,o),
(30,357,o),
(30,386,cs),
(30,415,o),
(67,448,o),
(91,448,cs),
(115,448,o),
(152,415,o),
(152,386,cs)
);
}
);
width = 251;
}
);
unicode = 59;
}
{
color = (99,255,209,255);
glyphname = less;
layers = (
{
layerId = master01;
shapes = (
{
closed = 1;
nodes = (
(223,343,o),
(347,395,o),
(485,454,c),
(494,463,l),
(490,547,l),
(481,552,l),
(342,481,o),
(206,418,o),
(60,360,c),
(50,348,l),
(50,238,l),
(60,226,l),
(206,168,o),
(343,105,o),
(482,34,c),
(491,39,l),
(495,123,l),
(486,132,l),
(348,191,o),
(223,247,o),
(76,307,c),
(76,283,l)
);
}
);
width = 545;
}
);
unicode = 60;
}
{
glyphname = equal;
layers = (
{
layerId = master01;
shapes = (
{
closed = 1;
nodes = (
(371,420,o),
(458,415,o),
(531,412,c),
(540,420,l),
(540,494,l),
(531,502,l),
(459,499,o),
(369,494,o),
(310,494,cs),
(251,494,o),
(181,499,o),
(89,502,c),
(80,494,l),
(80,420,l),
(89,412,l),
(182,415,o),
(253,420,o),
(312,420,cs)
);
},
{
closed = 1;
nodes = (
(371,240,o),
(458,235,o),
(531,232,c),
(540,240,l),
(540,314,l),
(531,322,l),
(459,319,o),
(369,314,o),
(310,314,cs),
(251,314,o),
(181,319,o),
(89,322,c),
(80,314,l),
(80,240,l),
(89,232,l),
(182,235,o),
(253,240,o),
(312,240,cs)
);
}
);
width = 620;
}
);
unicode = 61;
}
{
glyphname = question;
layers = (
{
layerId = master01;
shapes = (
{
closed = 1;
nodes = (
(238,209,l),
(244,219,l),
(236,319,l),
(222,303,l),
(325,351,o),
(429,405,o),
(429,548,cs),
(429,689,o),
(346,750,o),
(222,750,cs),
(140,750,o),
(74,727,o),
(17,684,c),
(15,677,l),
(42,626,l),
(47,623,l),
(88,645,o),
(141,665,o),
(203,665,cs),
(288,665,o),
(340,615,o),
(340,537,cs),
(340,454,o),
(251,393,o),
(155,361,c),
(141,334,l),
(139,219,l),
(145,209,l)
);
},
{
pos = (81,0);
ref = period;
scale = (1.2,1.2);
}
);
width = 474;
}
);
unicode = 63;
}
{
color = 5;
glyphname = at;
layers = (
{
layerId = master01;
shapes = (
{
closed = 1;
nodes = (
(484,-166,o),
(600,-141,o),
(719,-86,c),
(720,-83,l),
(694,-5,l),
(691,-4,l),
(576,-59,o),
(473,-87,o),
(388,-87,cs),
(237,-87,o),
(144,-1,o),
(144,224,cs),
(144,520,o),
(305,660,o),
(455,660,cs),
(584,660,o),
(705,555,o),
(705,355,cs),
(705,227,o),
(673,132,o),
(612,132,cs),
(577,132,o),
(564,155,o),
(564,198,cs),
(564,222,o),
(568,252,o),
(574,288,cs),
(586,358,o),
(601,422,o),
(610,485,c),
(605,495,l),
(525,502,l),
(517,495,l),
(505,401,l),
(488,270,ls),
(476,176,o),
(442,129,o),
(389,129,cs),
(353,129,o),
(330,155,o),
(330,219,cs),
(330,225,o),
(331,232,o),
(331,239,cs),
(340,388,o),
(372,432,o),
(410,432,cs),
(455,432,o),
(496,394,o),
(507,343,c),
(534,453,l),
(456,453,l),
(538,392,l),
(505,471,o),
(451,509,o),
(395,509,cs),
(305,509,o),
(250,399,o),
(242,239,cs),
(236,121,o),
(299,55,o),
(374,55,cs),
(459,55,o),
(525,126,o),
(525,217,c),
(505,190,l),
(508,133,o),
(525,57,o),
(596,57,cs),
(722,57,o),
(795,211,o),
(795,355,cs),
(795,602,o),
(630,732,o),
(457,732,cs),
(262,732,o),
(55,568,o),
(55,220,cs),
(55,-50,o),
(191,-166,o),
(385,-166,cs)
);
}
);
width = 850;
}
);
unicode = 64;
}
{
color = (99,255,209,255);
glyphname = A;
layers = (
{
anchors = (
{
name = bottom;
pos = (291,0);
},
{
name = ogonek;
pos = (527,10);
},
{
name = top;
pos = (291,700);
}
);
layerId = master01;
shapes = (
{
closed = 1;
nodes = (
(469,0,o),
(553,0,o),
(560,0,c),
(566,10,l),
(481,227,o),
(415,473,o),
(358,690,c),
(352,700,l),
(224,700,l),
(218,690,l),
(173,500,o),
(93,228,o),
(15,13,c),
(20,3,l),
(27,3,o),
(100,3,o),
(107,3,c),
(113,13,l),
(154,201,o),
(248,476,o),
(295,660,c),
(267,660,l),
(323,469,o),
(407,227,o),
(455,8,c),
(462,0,l)
);
},
{
closed = 1;
nodes = (
(136,191,o),
(225,193,o),
(266,193,cs),
(307,193,o),
(412,192,o),
(417,191,c),
(417,280,l),
(413,280,o),
(306,278,o),
(266,278,cs),
(226,278,o),
(130,280,o),
(126,280,c),
(131,191,l)
);
}
);
width = 581;
}
);
unicode = 65;
}
{
color = (99,255,209,255);
glyphname = B;
kernLeft = "90";
layers = (
{
background = {
shapes = (
{
closed = 1;
nodes = (
(300,0,ls),
(478,0,o),
(586,106,o),
(586,331,cs),
(586,556,o),
(479,675,o),
(303,675,cs),
(105,675,l),
(100,666,l),
(105,551,o),
(107,442,o),
(107,337,cs),
(107,234,o),
(105,127,o),
(100,12,c),
(105,0,l)
);
},
{
closed = 1;
nodes = (
(486,510,o),
(486,331,cs),
(486,151,o),
(405,85,o),
(272,85,cs),
(163,85,l),
(202,66,l),
(202,114,o),
(197,194,o),
(197,339,cs),
(197,471,o),
(199,553,o),
(202,606,c),
(173,590,l),
(285,590,ls),
(404,590,o)
);
}
);
};
layerId = master01;
shapes = (
{
closed = 1;
nodes = (
(285,0,ls),
(436,0,o),
(526,63,o),
(526,201,cs),
(526,325,o),
(452,386,o),
(315,386,cs),
(300,386,o),
(284,385,o),
(267,384,c),
(288,370,l),
(399,377,o),
(480,441,o),
(480,541,cs),
(480,643,o),
(403,705,o),
(282,705,cs),
(85,705,l),
(80,696,l),
(84,600,o),
(85,479,o),
(85,368,cs),
(85,252,o),
(84,115,o),
(80,12,c),
(85,0,l)
);
},
{
closed = 1;
nodes = (
(177,158,o),
(175,270,o),
(175,369,cs),
(175,450,o),
(177,551,o),
(180,647,c),
(170,620,l),
(263,620,ls),
(343,620,o),
(380,592,o),
(380,519,cs),
(380,457,o),
(341,408,o),
(253,408,cs),
(174,408,l),
(174,336,l),
(257,338,ls),
(365,341,o),
(426,304,o),
(426,213,cs),
(426,122,o),
(374,85,o),
(255,85,cs),
(130,85,l),
(180,66,l)
);
}
);
width = 571;
}
);
metricLeft = "=H";
unicode = 66;
}
{
color = (38,219,207,255);
glyphname = C;
layers = (
{
anchors = (
{
name = bottom;
pos = (334,0);
},
{
name = top;
pos = (342,700);
}
);
background = {
shapes = (
{
closed = 1;
nodes = (
(556,12,l),
(552,111,o),
(549,227,o),
(549,337,cs),
(549,449,o),
(552,567,o),
(556,666,c),
(551,675,l),
(353,675,ls),
(171,675,o),
(70,555,o),
(70,341,cs),
(70,122,o),
(173,0,o),
(356,0,cs),
(551,0,l)
);
},
{
closed = 1;
nodes = (
(483,590,l),
(454,606,l),
(457,539,o),
(459,451,o),
(459,339,cs),
(459,231,o),
(454,129,o),
(454,66,c),
(493,85,l),
(384,85,ls),
(241,85,o),
(170,170,o),
(170,341,cs),
(170,507,o),
(237,590,o),
(371,590,cs)
);
}
);
};
layerId = master01;
shapes = (
{
closed = 1;
nodes = (
(443,-10,o),
(511,12,o),
(555,35,c),
(558,40,l),
(531,110,l),
(527,112,l),
(473,94,o),
(432,80,o),
(374,80,cs),
(232,80,o),
(170,162,o),
(170,350,cs),
(170,538,o),
(232,620,o),
(374,620,cs),
(432,620,o),
(475,602,o),
(520,585,c),
(524,587,l),
(551,669,l),
(548,674,l),
(511,687,o),
(454,710,o),
(366,710,cs),
(176,710,o),
(70,581,o),
(70,350,cs),
(70,119,o),
(176,-10,o),
(366,-10,cs)
);
}
);
width = 598;
}
);
metricLeft = "=O";
unicode = 67;
}
{
color = (99,255,209,255);
glyphname = D;
kernLeft = "90";
layers = (
{
anchors = (
{
name = bottom;
pos = (343,0);
},
{
name = center;
pos = (343,350);
},
{
name = top;
pos = (326,700);
}
);
background = {
shapes = (
{
closed = 1;
nodes = (
(475,-9,o),
(616,99,o),
(616,345,cs),
(616,591,o),
(475,680,o),
(311,680,cs),
(232,680,o),
(172,664,o),
(134,645,c),
(131,640,l),
(161,548,l),
(165,546,l),
(216,567,o),
(251,580,o),
(314,580,cs),
(437,580,o),
(506,519,o),
(506,346,cs),
(506,170,o),
(444,90,o),
(306,90,c),
(259,90,o),
(210,100,o),
(155,116,c),
(151,114,l),
(123,44,l),
(126,39,l),
(169,15,o),
(238,-10,o),
(325,-10,c)
);
}
);
};
layerId = master01;
shapes = (
{
closed = 1;
nodes = (
(323,0,ls),
(516,0,o),
(615,178,o),
(615,355,cs),
(615,528,o),
(520,700,o),
(326,700,cs),
(85,700,l),
(80,691,l),
(84,592,o),
(87,461,o),
(87,349,cs),
(87,239,o),
(84,111,o),
(80,12,c),
(85,0,l)
);
},
{
closed = 1;
nodes = (
(182,129,o),
(177,243,o),
(177,351,cs),
(177,463,o),
(179,569,o),
(182,636,c),
(153,619,l),
(175,620,o),
(223,621,o),
(308,621,cs),
(446,621,o),
(516,490,o),
(516,358,cs),
(516,222,o),
(443,85,o),
(295,85,cs),
(143,85,l),
(182,66,l)
);
}
);
width = 685;
}
);
metricLeft = "=H";
metricRight = "=O";
unicode = 68;
}
{
color = (38,219,207,255);
glyphname = E;
kernLeft = "90";
layers = (
{
anchors = (
{
name = bottom;
pos = (243,0);
},
{
name = ogonek;
pos = (404,9);
},
{
name = top;
pos = (270,699);
},
{
name = topleft;
pos = (15,700);
}
);
background = {
shapes = (
{
closed = 1;
nodes = (
(270,398,o),
(179,400,o),
(171,400,c),
(171,311,l),
(181,311,o),
(268,313,o),
(351,313,cs),
(434,313,o),
(522,311,o),
(532,311,c),
(532,400,l),
(524,400,o),
(432,398,o),
(351,398,cs)
);
},
{
closed = 1;
nodes = (
(100,632,o),
(111,446,o),
(110,352,cs),
(109,258,o),
(100,10,o),
(100,10,c),
(105,0,l),
(205,0,l),
(210,10,l),
(210,10,o),
(200,259,o),
(200,352,cs),
(200,445,o),
(203,618,o),
(203,618,c),
(203,657,o),
(186,680,o),
(139,680,c),
(105,680,o),
(72,670,o),
(40,661,c),
(47,589,l),
(119,595,l),
(100,632,l)
);
},
{
closed = 1;
nodes = (
(599,0,l),
(599,3,o),
(604,7,o),
(604,12,cs),
(603,82,o),
(594,260,o),
(594,352,cs),
(594,444,o),
(604,660,o),
(604,660,c),
(599,670,l),
(499,670,l),
(494,660,l),
(494,660,o),
(504,445,o),
(504,352,cs),
(504,259,o),
(498,77,o),
(499,11,c),
(501,7,o),
(502,3,o),
(504,0,c)
);
}
);
};
layerId = master01;
shapes = (
{
closed = 1;
nodes = (
(130.094,2.438,o),
(189,4,o),
(268,4,cs),
(347,4,o),
(432,3,o),
(445,0,c),
(450,10,l),
(450,81,l),
(445,90,l),
(340,83,o),
(291,82,o),
(154,82,c),
(188,53,l),
(180,116,o),
(180,287,o),
(180,351,cs),
(180,415,o),
(180,584,o),
(188,647,c),
(154,618,l),
(295,618,o),
(342,617,o),
(445,610,c),
(450,619,l),
(450,690,l),
(445,700,l),
(385,697,o),
(367,696,o),
(273,696,cs),
(179,696,o),
(127,698,o),
(85,700,c),
(80,690,l),
(84,631,o),
(90,442,o),
(90,351,cs),
(90,260,o),
(84,69,o),
(80,10,c),
(85,0,l)
);
},
{
closed = 1;
nodes = (
(391,309,l),
(391,391,l),
(381,395,l),
(315,390,o),
(250,387,o),
(150,387,c),
(150,313,l),
(251,313,o),
(312,310,o),
(381,305,c)
);
}
);
width = 485;
}
);
metricLeft = "=H";
unicode = 69;
}
{
color = (99,255,209,255);
glyphname = F;
kernLeft = "90";
layers = (
{
background = {
shapes = (
{
closed = 1;
nodes = (
(207,172,o),
(209,96,o),
(215,53,c),
(181,82,l),
(398,82,o),
(462,90,o),
(462,90,c),
(467,81,l),
(467,10,l),
(462,0,l),
(436,5,o),
(369,3,o),
(287,4,c),
(202,5,o),
(157,3,o),
(112,0,c),
(107,10,l),
(107,10,o),
(117,190,o),
(117,335,cs),
(117,480,o),
(107,660,o),
(107,660,c),
(112,670,l),
(155,669,o),
(189,665,o),
(281,666,c),
(389,666,o),
(437,669,o),
(462,670,c),
(467,660,l),
(467,589,l),
(462,580,l),
(462,580,o),
(398,588,o),
(181,588,c),
(215,617,l),
(209,574,o),
(207,498,o),
(207,335,cs)
);
},
{
closed = 1;
nodes = (
(177,387,l),
(315,387,o),
(398,395,o),
(398,395,c),
(408,391,l),
(408,309,l),
(398,305,l),
(398,305,o),
(318,313,o),
(177,313,c)
);
}
);
};
layerId = master01;
shapes = (
{
closed = 1;
nodes = (
(98,-2,o),
(119,-1,o),
(140,-1,cs),
(160,-1,o),
(181,-2,o),
(194,-2,c),
(201,8,l),
(192,100,o),
(187,153,o),
(187,361,cs),
(187,419,o),
(187,587,o),
(195,645,c),
(171,617,l),
(232,617,o),
(397,611,o),
(442,609,c),
(447,618,l),
(447,688,l),
(442,698,l),
(431,698,o),
(333,696,o),
(286,696,cs),
(227,696,o),
(117,699,o),
(92,698,c),
(87,688,l),
(92,619,o),
(96,430,o),
(96,355,cs),
(96,277,o),
(84,82,o),
(80,8,c),
(85,-2,l)
);
},
{
closed = 1;
nodes = (
(388,295,l),
(388,377,l),
(378,381,l),
(338,379,o),
(195,373,o),
(137,373,c),
(137,299,l),
(203,299,o),
(332,293,o),
(378,291,c)
);
}
);
width = 467;
}
);
metricLeft = "=H";
unicode = 70;
}
{
color = (38,219,207,255);
glyphname = G;
layers = (
{
background = {
shapes = (
{
closed = 1;
nodes = (
(443,-10,o),
(511,12,o),
(555,35,c),
(558,40,l),
(531,110,l),
(527,112,l),
(473,94,o),
(432,80,o),
(374,80,cs),
(232,80,o),
(170,162,o),
(170,350,cs),
(170,538,o),
(232,620,o),
(374,620,cs),
(432,620,o),
(475,602,o),
(520,585,c),
(524,587,l),
(551,669,l),
(548,674,l),
(511,687,o),
(454,710,o),
(366,710,cs),
(176,710,o),
(70,581,o),
(70,350,cs),
(70,119,o),
(176,-10,o),
(366,-10,cs)
);
}
);
};
layerId = master01;
shapes = (
{
closed = 1;
nodes = (
(430,-10,o),
(509,-3,o),
(581,48,c),
(582,53,l),
(580,115,o),
(577,156,o),
(577,249,cs),
(577,295,o),
(580,335,o),
(582,381,c),
(577,386,l),
(558,385,o),
(524,384,o),
(477,384,cs),
(425,384,o),
(379,385,o),
(360,386,c),
(355,381,l),
(355,311,l),
(360,306,l),
(504,306,l),
(478,345,l),
(486,316,o),
(488,274,o),
(488,221,cs),
(488,128,o),
(483,114,o),
(474,43,c),
(532,114,l),
(494,93,o),
(446,80,o),
(374,80,cs),
(252,80,o),
(170,136,o),
(170,350,cs),
(170,558,o),
(245,620,o),
(369,620,cs),
(437,620,o),
(493,602,o),
(541,585,c),
(545,587,l),
(569,675,l),
(566,680,l),
(521,693,o),
(457,710,o),
(371,710,cs),
(220,710,o),
(70,629,o),
(70,350,cs),
(70,72,o),
(216,-10,o),
(371,-10,cs)
);
}
);
width = 652;
}
);
metricLeft = "=O";
unicode = 71;
}
{
color = (38,219,207,255);
glyphname = H;
layers = (
{
background = {
shapes = (
{
closed = 1;
nodes = (
(468,499,o),
(460,660,o),
(460,660,c),
(465,670,l),
(572,670,l),
(577,660,l),
(577,660,o),
(567,450,o),
(567,360,cs),
(567,310,o),
(576,83,o),
(577,12,cs),
(577,7,o),
(572,3,o),
(572,0,c),
(470,0,l),
(468,3,o),
(467,7,o),
(465,11,c),
(464,63,o),
(468,210,o),
(469,300,c),
(447,301,o),
(358,301,o),
(323,301,cs),
(290,301,o),
(186,301,o),
(166,300,c),
(168,184,o),
(175,10,o),
(175,10,c),
(170,0,l),
(63,0,l),
(58,10,l),
(58,10,o),
(67,255,o),
(67,360,cs),
(67,438,o),
(64,532,o),
(61,586,c),
(16,583,l),
(9,661,l),
(42,673,o),
(72,680,o),
(105,680,cs),
(145,680,o),
(160,657,o),
(160,619,c),
(160,619,o),
(164,509,o),
(165,400,c),
(186,399,o),
(290,399,o),
(323,399,cs),
(357,399,o),
(447,399,o),
(470,400,c)
);
}
);
};
layerId = master01;
shapes = (
{
closed = 1;
nodes = (
(584,0,l),
(589,12,l),
(589,74,o),
(579,260,o),
(579,352,cs),
(579,444,o),
(585,597,o),
(589,690,c),
(584,700,l),
(484,700,l),
(479,690,l),
(483,597,o),
(489,445,o),
(489,352,cs),
(489,259,o),
(484,74,o),
(484,11,c),
(489,0,l)
);
},
{
closed = 1;
nodes = (
(185,0,l),
(190,12,l),
(190,73,o),
(180,257,o),
(180,352,cs),
(180,447,o),
(186,597,o),
(190,690,c),
(185,700,l),
(85,700,l),
(80,690,l),
(84,597,o),
(90,448,o),
(90,352,cs),
(90,256,o),
(85,74,o),
(85,11,c),
(90,0,l)
);
},
{
closed = 1;
nodes = (
(150,311,o),
(288,313,o),
(329,313,cs),
(370,313,o),
(501,311,o),
(506,311,c),
(506,400,l),
(502,400,o),
(369,398,o),
(329,398,cs),
(289,398,o),
(149,400,o),
(145,400,c),
(145,311,l)
);
}
);
width = 669;
}
);
unicode = 72;
}
{
color = (38,219,207,255);
glyphname = I;
layers = (
{
anchors = (
{
name = bottom;
pos = (216,0);
},
{
name = ogonek;
pos = (364,7);
},
{
name = top;
pos = (216,700);
},
{
name = topleft;
pos = (15,700);
}
);
background = {
shapes = (
{
closed = 1;
nodes = (
(254,0,l),
(254,3,o),
(259,7,o),
(259,12,cs),
(258,82,o),
(249,260,o),
(249,352,cs),
(249,444,o),
(259,660,o),
(259,660,c),
(254,670,l),
(144,670,l),
(139,660,l),
(139,660,o),
(149,445,o),
(149,352,cs),
(149,259,o),
(143,77,o),
(144,11,c),
(146,7,o),
(147,3,o),
(149,0,c)
);
}
);
};
layerId = master01;
shapes = (
{
closed = 1;
nodes = (
(269,55,l),
(266,108,o),
(261,256,o),
(261,342,cs),
(261,428,o),
(266,589,o),
(269,638,c),
(240,610,l),
(274,608,o),
(342,607,o),
(384,605,c),
(394,613,l),
(394,692,l),
(387,700,l),
(319,699,o),
(267,698,o),
(215,698,cs),
(164,698,o),
(110,699,o),
(41,700,c),
(35,693,l),
(35,613,l),
(41,605,l),
(99,607,o),
(142.98,609,o),
(185,611,c),
(163,638,l),
(166,589,o),
(171,427,o),
(171,342,cs),
(171,257,o),
(166,108,o),
(163,55,c)
);
},
{
closed = 1;
nodes = (
(111,1,o),
(164,2,o),
(216,2,cs),
(268,2,o),
(319,1,o),
(387,0,c),
(396,13,l),
(396,80,l),
(384,95,l),
(317,90,o),
(266,88,o),
(215,88,cs),
(163,88,o),
(109,90,o),
(41,95,c),
(35,80,l),
(35,12,l),
(42,0,l)
);
}
);
width = 431;
}
);
unicode = 73;
}
{
color = (38,219,207,255);
glyphname = J;
layers = (
{
anchors = (
{
name = bottom;
pos = (141,0);
},
{
name = top;
pos = (152,699);
}
);
background = {
shapes = (
{
closed = 1;
nodes = (
(-19,-81,l),
(-35,-154,l),
(-33,-157,l),
(-10,-167,o),
(17,-173,o),
(41,-173,cs),
(141,-173,o),
(217,-106,o),
(214,21,cs),
(211,310,ls),
(210,439,o),
(213,566,o),
(218,690,c),
(208,700,l),
(129,700,l),
(119,690,l),
(124,595,o),
(125,497,o),
(125,398,cs),
(123,39,ls),
(122,-53,o),
(86,-83,o),
(36,-83,cs),
(20,-83,o),
(-1,-82,o),
(-16,-79,c)
);
}
);
};
layerId = master01;
shapes = (
{
closed = 1;
nodes = (
(-17,-130,l),
(20,-191,l),
(23,-194,l),
(158,-135,o),
(215,-49,o),
(214,48,cs),
(211,310,ls),
(210,439,o),
(213,566,o),
(218,690,c),
(208,700,l),
(129,700,l),
(119,690,l),
(124,595,o),
(126,497,o),
(125,398,cs),
(123,59,ls),
(122,-26,o),
(50,-81,o),
(-14,-128,c)
);
}
);
width = 282;
}
);
unicode = 74;
}
{
color = (38,219,207,255);
glyphname = K;
layers = (
{
anchors = (
{
name = bottom;
pos = (270,0);
},
{
name = top;
pos = (270,700);
}
);
layerId = master01;
shapes = (
{
closed = 1;
nodes = (
(203,0,l),
(208,10,l),
(201.651,97.829,o),
(198,248,o),
(198,354,cs),
(198,454,o),
(203,624.438,o),
(203,644,cs),
(203,683,o),
(187,706,o),
(142,706,cs),
(110,706,o),
(71,696,o),
(40,688,c),
(48,625,l),
(119,629,l),
(98,658,l),
(104,572,o),
(109,487,o),
(109,356,cs),
(109,244,o),
(105,93,o),
(99,10,c),
(104,0,l)
);
},
{
closed = 1;
nodes = (
(154,307,l),
(265,307,l),
(349,430,o),
(440,571,o),
(520,685,c),
(515,700,l),
(434,700,l),
(426,696,l),
(349,574,o),
(308,499,o),
(222,384,c),
(275,390,l),
(154,390,l)
);
},
{
closed = 1;
nodes = (
(294,391,l),
(210,346,l),
(294,165,ls),
(349,46,o),
(367,-10,o),
(433,-10,cs),
(475,-10,o),
(498,1,o),
(542,32,c),
(524,88,l),
(427,77,l),
(458,67,l)
);
}
);
width = 540;
}
);
unicode = 75;
}
{
color = (99,255,209,255);
glyphname = L;
kernLeft = "90";
layers = (
{
anchors = (
{
name = bottom;
pos = (249,4);
},
{
name = center;
pos = (230,350);
},
{
name = top;
pos = (230,700);
},
{
name = topright;
pos = (445,700);
}
);
background = {
shapes = (
{
closed = 1;
nodes = (
(180,172,o),
(182,96,o),
(188,53,c),
(154,82,l),
(371,82,o),
(435,90,o),
(435,90,c),
(440,81,l),
(440,10,l),
(435,0,l),
(409,5,o),
(342,3,o),
(260,4,c),
(175,5,o),
(130,3,o),
(85,0,c),
(80,10,l),
(80,10,o),
(90,190,o),
(90,335,cs),
(90,480,o),
(80,660,o),
(80,660,c),
(85,670,l),
(128,669,o),
(162,665,o),
(254,666,c),
(362,666,o),
(410,669,o),
(435,670,c),
(440,660,l),
(440,589,l),
(435,580,l),
(435,580,o),
(371,588,o),
(154,588,c),
(188,617,l),
(182,574,o),
(180,498,o),
(180,335,cs)
);
},
{
closed = 1;
nodes = (
(150,387,l),
(288,387,o),
(371,395,o),
(371,395,c),
(381,391,l),
(381,309,l),
(371,305,l),
(371,305,o),
(291,313,o),
(150,313,c)
);
}
);
};
layerId = master01;
shapes = (
{
closed = 1;
nodes = (
(154,3,o),
(204,4,o),
(249,4,cs),
(296,4,o),
(380,3,o),
(435,0,c),
(440,10,l),
(440,80,l),
(435,89,l),
(379,85,o),
(258,81,o),
(144,81,c),
(187,53,l),
(184,102,o),
(180,196,o),
(180,333,cs),
(180,500,o),
(183,641,o),
(188,690,c),
(183,700,l),
(85,700,l),
(80,690,l),
(84,631,o),
(90,501,o),
(90,335,cs),
(90,219,o),
(86,170,o),
(80,10,c),
(85,0,l)
);
}
);
width = 460;
}
);
metricLeft = "=H";
unicode = 76;
}
{
color = (99,255,209,255);
glyphname = M;
kernLeft = "90";
kernRight = "90";
layers = (
{
guides = (
{
pos = (383,551);
},
{
pos = (474,314);
}
);
layerId = master01;
shapes = (
{
closed = 1;
nodes = (
(149,0,l),
(153,10,l),
(169,214,o),
(200,422,o),
(231,650,c),
(189,650,l),
(238,523,o),
(339,178,o),
(376,10,c),
(383,0,l),
(494,0,l),
(501,9,l),
(539,164,o),
(637,493,o),
(672,650,c),
(639,650,l),
(660,482,o),
(692,248,o),
(718,10,c),
(725,0,l),
(819,0,l),
(824,10,l),
(796,174,o),
(742,518,o),
(729,694,c),
(715,700,l),
(599,700,l),
(593,692,l),
(555,492,o),
(483,270,o),
(433,63,c),
(463,63,l),
(405,277,o),
(330,484,o),
(285,693,c),
(279,700,l),
(157,700,l),
(149,694,l),
(136,506,o),
(90,197,o),
(55,10,c),
(61,0,l)
);
}
);
width = 879;
}
);
unicode = 77;
}
{
color = (99,255,209,255);
glyphname = N;
kernLeft = "90";
kernRight = "90";
layers = (
{
anchors = (
{
name = bottom;
pos = (348,0);
},
{
name = top;
pos = (339,690);
}
);
layerId = master01;
shapes = (
{
closed = 1;
nodes = (
(194,0,l),
(199,10,l),
(190,113,o),
(180,193,o),
(180,470,c),
(162,648,l),
(149,599,l),
(192,512,l),
(530,0,l),
(611,0,l),
(616,6,l),
(612,35,o),
(603,213,o),
(603,322,cs),
(603,475,o),
(610,669,o),
(613,690,c),
(608,700,l),
(513,700,l),
(508,690,l),
(517,569,o),
(518,446,o),
(518,278,c),
(531,59,l),
(557,107,l),
(511,205,l),
(178,700,l),
(85,700,l),
(80,694,l),
(84,667,o),
(95,505,o),
(95,405,cs),
(95,276,o),
(85,26,o),
(85,10,c),
(90,0,l)
);
}
);
width = 696;
}
);
metricLeft = "=H";
metricRight = "=H";
unicode = 78;
}
{
color = (99,255,209,255);
glyphname = O;
layers = (
{
anchors = (
{
name = bottom;
pos = (365,0);
},
{
name = center;
pos = (365,350);
},
{
name = ogonek;
pos = (661,10);
},
{
name = top;
pos = (365,700);
},
{
name = topleft;
pos = (15,700);
},
{
name = topright;
pos = (715,700);
}
);
background = {
shapes = (
{
closed = 1;
nodes = (
(4,575,o),
(151,680,o),
(303,680,cs),
(456,680,o),
(603,575,o),
(603,333,cs),
(603,95,o),
(456,-10,o),
(303,-10,cs),
(151,-10,o),
(4,95,o),
(4,333,cs)
);
},
{
closed = 1;
nodes = (
(390,91,o),
(494,143,o),
(494,333,cs),
(494,526,o),
(390,580,o),
(303,580,cs),
(217,580,o),
(112,526,o),
(112,333,cs),
(112,143,o),
(217,91,o),
(303,91,cs)
);
}
);
};
layerId = master01;
shapes = (
{
closed = 1;
nodes = (
(548,-10,o),
(660,122,o),
(660,350,cs),
(660,578,o),
(548,710,o),
(365,710,cs),
(182,710,o),
(70,578,o),
(70,350,cs),
(70,122,o),
(182,-10,o),
(365,-10,cs)
);
},
{
closed = 1;
nodes = (
(240,80,o),
(170,171,o),
(170,350,cs),
(170,529,o),
(240,620,o),
(365,620,cs),
(490,620,o),
(560,529,o),
(560,350,cs),
(560,171,o),
(490,80,o),
(365,80,cs)
);
}
);
width = 730;
}
);
unicode = 79;
}
{
color = (99,255,209,255);
glyphname = P;
kernLeft = "90";
layers = (
{
background = {
shapes = (
{
closed = 1;
nodes = (
(308,0,ls),
(459,0,o),
(549,62,o),
(549,191,cs),
(549,320,o),
(459,379,o),
(290,364,c),
(311,359,l),
(422,366,o),
(503,421,o),
(503,516,c),
(503,614,o),
(427,675,o),
(305,675,cs),
(138,675,l),
(133,666,l),
(137,569,o),
(138,459,o),
(138,348,cs),
(138,232,o),
(137,115,o),
(133,12,c),
(138,0,l)
);
},
{
closed = 1;
nodes = (
(163,85,l),
(233,66,l),
(230,159,o),
(228,250,o),
(228,349,cs),
(228,431,o),
(230,521,o),
(233,617,c),
(203,590,l),
(286,590,ls),
(367,590,o),
(403,563,o),
(403,494,cs),
(403,437,o),
(365,388,o),
(276,388,cs),
(207,388,l),
(207,316,l),
(280,318,ls),
(388,321,o),
(449,285,o),
(449,203,cs),
(449,121,o),
(397,85,o),
(278,85,cs)
);
}
);
};
layerId = master01;
shapes = (
{
closed = 1;
nodes = (
(190,0,l),
(195,10,l),
(192,57,o),
(180,159,o),
(180,343,cs),
(180,521,o),
(183,570,o),
(186,657,c),
(156,620,l),
(256,620,ls),
(378,620,o),
(432,572,o),
(432,463,cs),
(432,353,o),
(376,305,o),
(247,305,cs),
(173,305,l),
(173,225,l),
(252,225,ls),
(427,225,o),
(525,310,o),
(525,461,cs),
(525,618,o),
(429,705,o),
(256,705,cs),
(85,705,l),
(80,695,l),
(83,642,o),
(90,519,o),
(90,343,cs),
(90,159,o),
(83,66,o),
(80,10,c),
(85,0,l)
);
}
);
width = 565;
}
);
metricLeft = "=H";
unicode = 80;
}
{
color = (99,255,209,255);
glyphname = Q;
layers = (
{
layerId = master01;
shapes = (
{
closed = 1;
nodes = (
(548,-10,o),
(660,122,o),
(660,345,cs),
(660,578,o),
(548,710,o),
(365,710,cs),
(182,710,o),
(70,578,o),
(70,345,cs),
(70,122,o),
(182,-10,o),
(365,-10,cs)
);
},
{
closed = 1;
nodes = (
(535,-154,l),
(538,-141,l),
(398,22,l),
(336,0,l),
(420,-207,l),
(439,-211,l)
);
},
{
closed = 1;
nodes = (
(240,80,o),
(170,171,o),
(170,345,cs),
(170,529,o),
(240,620,o),
(365,620,cs),
(490,620,o),
(560,529,o),
(560,345,cs),
(560,171,o),
(490,80,o),
(365,80,cs)
);
}
);
width = 730;
}
);
metricLeft = "=O";
metricRight = "=O";
unicode = 81;
}
{
color = (38,219,207,255);
glyphname = R;
layers = (
{
anchors = (
{
name = bottom;
pos = (883,0);
},
{
name = top;
pos = (883,700);
}
);
background = {
shapes = (
{
closed = 1;
nodes = (
(289,0,ls),
(440,0,o),
(530,63,o),
(530,201,cs),
(530,325,o),
(456,386,o),
(319,386,cs),
(304,386,o),
(288,385,o),
(271,384,c),
(292,370,l),
(403,377,o),
(484,441,o),
(484,541,cs),
(484,643,o),
(407,705,o),
(286,705,cs),
(89,705,l),
(84,696,l),
(88,600,o),
(89,479,o),
(89,368,cs),
(89,252,o),
(88,115,o),
(84,12,c),
(89,0,l)
);
},
{
closed = 1;
nodes = (
(181,158,o),
(179,270,o),
(179,369,cs),
(179,450,o),
(181,551,o),
(184,647,c),
(174,620,l),
(267,620,ls),
(347,620,o),
(384,592,o),
(384,519,cs),
(384,457,o),
(345,408,o),
(257,408,cs),
(178,408,l),
(178,336,l),
(261,338,ls),
(369,341,o),
(430,304,o),
(430,213,cs),
(430,122,o),
(378,85,o),
(259,85,cs),
(134,85,l),
(184,66,l)
);
}
);
};
layerId = master01;
shapes = (
{
closed = 1;
nodes = (
(190,0,l),
(195,10,l),
(189,110,o),
(180,232,o),
(180,405,cs),
(180,523,o),
(183,562,o),
(186,652,c),
(156,620,l),
(253,620,ls),
(345,620,o),
(391,570,o),
(391,496,cs),
(391,427,o),
(333,377,o),
(284,377,cs),
(173,377,l),
(173,297,l),
(249,297,ls),
(392,297,o),
(491,362,o),
(491,502,c),
(491,644,o),
(401,700,o),
(253,700,cs),
(85,700,l),
(80,690,l),
(84,597,o),
(90,501,o),
(90,383,cs),
(90,207,o),
(84,108,o),
(80,10,c),
(85,0,l)
);
},
{
closed = 1;
nodes = (
(478,-9,o),
(503,1,o),
(534,21,c),
(518,80,l),
(439,74,l),
(464,65,l),
(350,320,l),
(268,301,l),
(338,103,ls),
(367,20,o),
(397,-9,o),
(447,-9,cs)
);
}
);
width = 554;
}
);
metricLeft = "=H";
unicode = 82;
}
{
color = (38,219,207,255);
glyphname = S;
layers = (
{
anchors = (
{
name = bottom;
pos = (248,0);
},
{
name = top;
pos = (248,700);
}
);
background = {
shapes = (
{
closed = 1;
nodes = (
(265,0,ls),
(416,0,o),
(506,63,o),
(506,201,cs),
(506,325,o),
(432,386,o),
(295,386,cs),
(280,386,o),
(264,385,o),
(247,384,c),
(268,370,l),
(379,377,o),
(460,441,o),
(460,541,cs),
(460,643,o),
(383,705,o),
(262,705,cs),
(65,705,l),
(60,696,l),
(64,600,o),
(65,479,o),
(65,368,cs),
(65,252,o),
(64,115,o),
(60,12,c),
(65,0,l)
);
},
{
closed = 1;
nodes = (
(157,158,o),
(155,270,o),
(155,369,cs),
(155,450,o),
(157,551,o),
(160,647,c),
(150,620,l),
(243,620,ls),
(323,620,o),
(360,592,o),
(360,519,cs),
(360,457,o),
(321,408,o),
(233,408,cs),
(154,408,l),
(154,336,l),
(237,338,ls),
(345,341,o),
(406,304,o),
(406,213,cs),
(406,122,o),
(354,85,o),
(235,85,cs),
(110,85,l),
(160,66,l)
);
}
);
};
layerId = master01;
shapes = (
{
closed = 1;
nodes = (
(379,-11,o),
(470,70,o),
(470,195,cs),
(470,417,o),
(149,412,o),
(149,546,c),
(149,597,o),
(183,627,o),
(240,627,cs),
(298,627,o),
(384,602,o),
(429,585,c),
(435,588,l),
(459,674,l),
(455,681,l),
(381,703,o),
(321,710,o),
(260,710,cs),
(154,710,o),
(59,636,o),
(59,527,c),
(59,331,o),
(380,310,o),
(380,186,c),
(380,106,o),
(330,74,o),
(263,74,cs),
(207,74,o),
(149,93,o),
(64,119,c),
(56,117,l),
(30,30,l),
(35,22,l),
(103,4,o),
(180,-11,o),
(274,-11,c)
);
}
);
width = 500;
}
);
unicode = 83;
}
{
color = (99,255,209,255);
glyphname = T;
layers = (
{
anchors = (
{
name = bottom;
pos = (264,0);
},
{
name = center;
pos = (264,350);
},
{
name = top;
pos = (264,700);
}
);
layerId = master01;
shapes = (
{
closed = 1;
nodes = (
(313,-4,l),
(318,6,l),
(312,113,o),
(312,220,o),
(312,347,cs),
(312,511,o),
(312,618,o),
(312,630,c),
(222,630,l),
(222,618,o),
(222,513,o),
(222,348,cs),
(222,219,o),
(222,113,o),
(216,6,c),
(221,-4,l)
);
},
{
closed = 1;
nodes = (
(113,608,o),
(150,612,o),
(265,612,cs),
(382,612,o),
(413,608,o),
(488,601,c),
(498,606,l),
(498,695,l),
(488,700,l),
(432,699,o),
(321,697,o),
(265,697,cs),
(189,697,o),
(96,699,o),
(40,700,c),
(30,695,l),
(30,606,l),
(40,601,l)
);
}
);
width = 528;
}
);
unicode = 84;
}
{
color = (38,219,207,255);
glyphname = U;
layers = (
{
anchors = (
{
name = bottom;
pos = (332,0);
},
{
name = ogonek;
pos = (410,3);
},
{
name = top;
pos = (332,700);
},
{
name = topright;
pos = (648,700);
}
);
background = {
shapes = (
{
closed = 1;
nodes = (
(290,398,o),
(199,400,o),
(191,400,c),
(191,311,l),
(201,311,o),
(288,313,o),
(371,313,cs),
(454,313,o),
(542,311,o),
(552,311,c),
(552,400,l),
(544,400,o),
(452,398,o),
(371,398,cs)
);
},
{
closed = 1;
nodes = (
(120,632,o),
(131,446,o),
(130,352,cs),
(129,258,o),
(120,10,o),
(120,10,c),
(125,0,l),
(225,0,l),
(230,10,l),
(230,10,o),
(220,259,o),
(220,352,cs),
(220,445,o),
(223,618,o),
(223,618,c),
(223,657,o),
(206,680,o),
(159,680,c),
(125,680,o),
(92,670,o),
(60,661,c),
(67,589,l),
(139,595,l),
(120,632,l)
);
},
{
closed = 1;
nodes = (
(619,0,l),
(619,3,o),
(624,7,o),
(624,12,cs),
(623,82,o),
(614,260,o),
(614,352,cs),
(614,444,o),
(624,660,o),
(624,660,c),
(619,670,l),
(519,670,l),
(514,660,l),
(514,660,o),
(524,445,o),
(524,352,cs),
(524,259,o),
(518,77,o),
(519,11,c),
(521,7,o),
(522,3,o),
(524,0,c)
);
}
);
};
layerId = master01;
shapes = (
{
closed = 1;
nodes = (
(181,-10,o),
(324,-10,cs),
(467,-10,o),
(568,96,o),
(570,276,cs),
(571,433,o),
(574,561,o),
(580,690,c),
(571,700,l),
(490,700,l),
(481,691,l),
(487,557,o),
(488,422,o),
(488,257,cs),
(488,129,o),
(437,80,o),
(334,80,cs),
(230,80,o),
(179,132,o),
(179,266,cs),
(179,444,o),
(181,561,o),
(186,691,c),
(177,700,l),
(79,700,l),
(70,690,l),
(75,562,o),
(80,434,o),
(80,276,cs),
(80,96,o)
);
}
);
width = 650;
}
);
unicode = 85;
}
{
color = (38,219,207,255);
glyphname = V;
layers = (
{
background = {
shapes = (
{
closed = 1;
nodes = (
(128,-10,o),
(51,74,o),
(51,276,cs),
(51,660,l),
(60,670,l),
(142,670,l),
(151,661,l),
(151,266,ls),
(151,144,o),
(201,75,o),
(316,75,c),
(402,75,o),
(459,139,o),
(459,274,cs),
(459,661,l),
(468,670,l),
(545,670,l),
(554,660,l),
(554,288,ls),
(554,107,o),
(469,-10,o),
(310,-10,c)
);
}
);
};
layerId = master01;
shapes = (
{
closed = 1;
nodes = (
(354,0,l),
(360,10,l),
(418,205,o),
(501,480,o),
(571,690,c),
(566,700,l),
(474,700,l),
(468,690,l),
(424,503,o),
(349,235,o),
(291,40,c),
(323,40,l),
(252,259,o),
(173,500,o),
(126,692,c),
(119,700,l),
(21,700,l),
(15,690,l),
(91,476,o),
(163,246,o),
(230,10,c),
(236,0,l)
);
}
);
width = 586;
}
);
unicode = 86;
}
{
color = (38,219,207,255);
glyphname = W;
layers = (
{
anchors = (
{
name = bottom;
pos = (469,0);
},
{
name = top;
pos = (469,700);
}
);
background = {
shapes = (
{
closed = 1;
nodes = (
(314,0,l),
(320,10,l),
(370,216,o),
(434,471,o),
(491,690,c),
(486,700,l),
(394,700,l),
(388,690,l),
(356,493,o),
(301,245,o),
(251,40,c),
(283,40,l),
(229,257,o),
(165,500,o),
(126,692,c),
(119,700,l),
(21,700,l),
(15,690,l),
(82,478,o),
(139,245,o),
(190,10,c),
(196,0,l)
);
},
{
closed = 0;
nodes = (
(766,630,l),
(759,621,l),
(717,462,o),
(655,222,o),
(623,50,c),
(651,50,l),
(594,254,o),
(535,465,o),
(496,690,c),
(489,700,l),
(393,700,l),
(388,690,l),
(424,531,o),
(499,265,o),
(558,6,c),
(572,0,l),
(685,0,l),
(691,8,l),
(731,209,o),
(768,361,o),
(827,567,c)
);
}
);
};
layerId = master01;
shapes = (
{
closed = 1;
nodes = (
(759,700,l),
(755,690,l),
(725,495,o),
(673,289,o),
(618,50,c),
(649,50,l),
(608,188,o),
(540,451,o),
(502,620,c),
(495,630,l),
(395,630,l),
(388,621,l),
(356,462,o),
(294,222,o),
(252,50,c),
(280,50,l),
(233,254,o),
(174,465,o),
(125,690,c),
(118,700,l),
(20,700,l),
(15,690,l),
(61,531,o),
(136,265,o),
(185,6,c),
(199,0,l),
(319,0,l),
(325,8,l),
(375,224,o),
(410,381,o),
(461,597,c),
(413,597,l),
(464,394,o),
(500,223,o),
(551,7,c),
(557,0,l),
(686,0,l),
(694,6,l),
(742,228,o),
(804,488,o),
(858,690,c),
(852,700,l)
);
}
);
width = 873;
}
);
unicode = 87;
}
{
color = (38,219,207,255);
glyphname = X;
layers = (
{
background = {
shapes = (
{
closed = 1;
nodes = (
(518,0,l),
(523,12,l),
(523,74,o),
(513,260,o),
(513,352,cs),
(513,444,o),
(519,597,o),
(523,690,c),
(518,700,l),
(418,700,l),
(413,690,l),
(417,597,o),
(423,445,o),
(423,352,cs),
(423,259,o),
(418,74,o),
(418,11,c),
(423,0,l)
);
},
{
closed = 1;
nodes = (
(119,0,l),
(124,12,l),
(124,73,o),
(114,257,o),
(114,352,cs),
(114,447,o),
(120,597,o),
(124,690,c),
(119,700,l),
(19,700,l),
(14,690,l),
(18,597,o),
(24,448,o),
(24,352,cs),
(24,256,o),
(19,74,o),
(19,11,c),
(24,0,l)
);
},
{
closed = 1;
nodes = (
(84,311,o),
(222,313,o),
(263,313,cs),
(304,313,o),
(435,311,o),
(440,311,c),
(440,400,l),
(436,400,o),
(303,398,o),
(263,398,cs),
(223,398,o),
(83,400,o),
(79,400,c),
(79,311,l)
);
}
);
};
layerId = master01;
shapes = (
{
closed = 1;
nodes = (
(521,0,l),
(528,15,l),
(387,243,o),
(218,527,o),
(151,686,c),
(140,700,l),
(35,700,l),
(29,686,l),
(149,501,o),
(317,198,o),
(408,14,c),
(419,0,l)
);
},
{
closed = 1;
nodes = (
(120,0,l),
(127,18,l),
(190,149,o),
(224,207,o),
(302,353,c),
(227,383,l),
(132,212,o),
(99,163,o),
(10,15,c),
(16,0,l)
);
},
{
closed = 1;
nodes = (
(373,463,o),
(440,570,o),
(509,686,c),
(503,700,l),
(394,700,l),
(383,686,l),
(334,568,o),
(299,485,o),
(246,391,c),
(313,350,l)
);
}
);
width = 548;
}
);
unicode = 88;
}
{
color = (38,219,207,255);
glyphname = Y;
layers = (
{
anchors = (
{
name = bottom;
pos = (250,0);
},
{
name = top;
pos = (250,700);
},
{
name = topleft;
pos = (20,700);
}
);
background = {
shapes = (
{
closed = 1;
nodes = (
(354,0,l),
(360,10,l),
(418,205,o),
(501,480,o),
(571,690,c),
(566,700,l),
(474,700,l),
(468,690,l),
(424,503,o),
(349,235,o),
(291,40,c),
(323,40,l),
(252,259,o),
(173,500,o),
(126,692,c),
(119,700,l),
(21,700,l),
(15,690,l),
(91,476,o),
(163,246,o),
(230,10,c),
(236,0,l)
);
}
);
};
layerId = master01;
shapes = (
{
closed = 1;
nodes = (
(300,0,l),
(305,5,l),
(300,70,o),
(299,136,o),
(299,216,cs),
(299,304,l),
(209,304,l),
(209,216,ls),
(209,136,o),
(208,70,o),
(203,5,c),
(208,0,l)
);
},
{
closed = 1;
nodes = (
(356.538,388.141,o),
(458,588,o),
(508,690,c),
(503,700,l),
(420,700,l),
(413,692,l),
(388,627,o),
(278.449,395.945,o),
(239,313,c),
(289,313,l),
(243.414,399.106,o),
(123,649,o),
(107,690,c),
(101,700,l),
(-1,700,l),
(-5,690,l),
(26,640,o),
(160.689,393.195,o),
(210,264,c),
(298,264,l)
);
}
);
width = 483;
}
);
unicode = 89;
}
{
color = (38,219,207,255);
glyphname = Z;
layers = (
{
anchors = (
{
name = bottom;
pos = (249,11);
},
{
name = center;
pos = (429,350);
},
{
name = top;
pos = (293,700);
}
);
background = {
shapes = (
{
closed = 1;
nodes = (
(524,0,l),
(529,12,l),
(529,74,o),
(519,260,o),
(519,352,cs),
(519,444,o),
(525,597,o),
(529,690,c),
(524,700,l),
(424,700,l),
(419,690,l),
(423,597,o),
(429,445,o),
(429,352,cs),
(429,259,o),
(424,74,o),
(424,11,c),
(429,0,l)
);
},
{
closed = 1;
nodes = (
(125,0,l),
(130,12,l),
(130,73,o),
(120,257,o),
(120,352,cs),
(120,447,o),
(126,597,o),
(130,690,c),
(125,700,l),
(25,700,l),
(20,690,l),
(24,597,o),
(30,448,o),
(30,352,cs),
(30,256,o),
(25,74,o),
(25,11,c),
(30,0,l)
);
},
{
closed = 1;
nodes = (
(90,311,o),
(228,313,o),
(269,313,cs),
(310,313,o),
(441,311,o),
(446,311,c),
(446,400,l),
(442,400,o),
(309,398,o),
(269,398,cs),
(229,398,o),
(89,400,o),
(85,400,c),
(85,311,l)
);
}
);
};
layerId = master01;
shapes = (
{
closed = 1;
nodes = (
(97,3,o),
(153,6,o),
(248,6,cs),
(331,6,o),
(453,3,o),
(490,0,c),
(496,5,l),
(496,85,l),
(491,90,l),
(341,80,o),
(270,81,o),
(95,81,c),
(114,47,l),
(202,192,o),
(378,457,o),
(492,639,c),
(495,647,l),
(488,697,l),
(481,700,l),
(424,694,o),
(326,695,o),
(267,695,cs),
(202.899,695,o),
(124.006,697.041,o),
(53,700,c),
(46,693,l),
(46,619,l),
(51,613,l),
(162.074,620.934,o),
(228.512,622,o),
(409,622,c),
(397,649,l),
(307,500,o),
(143,255,o),
(22,79,c),
(20,74,l),
(26,5,l),
(31,0,l)
);
}
);
width = 516;
}
);
unicode = 90;
}
{
color = 5;
glyphname = bracketright;
layers = (
{
layerId = master01;
shapes = (
{
closed = 1;
nodes = (
(145,732,l),
(198,694,l),
(131,693,o),
(48,693,o),
(20,692,c),
(10,697,l),
(10,767,l),
(20,772,l),
(47,771,o),
(72,771,o),
(150,771,cs),
(230,771,l),
(235,761,l),
(229,648,o),
(226,479,o),
(226,311,cs),
(226,149,o),
(229,-11,o),
(235,-120,c),
(230,-130,l),
(150,-130,ls),
(72,-130,o),
(47,-130,o),
(20,-131,c),
(10,-126,l),
(10,-56,l),
(20,-51,l),
(48,-52,o),
(131,-52,o),
(198,-53,c),
(145,-82,l)
);
}
);
width = 295;
}
);
unicode = 93;
}
{
glyphname = underscore;
layers = (
{
layerId = master01;
shapes = (
{
closed = 1;
nodes = (
(396,2,o),
(321,2,o),
(247,2,cs),
(173,2,o),
(99,2,o),
(37,0,c),
(30,6,l),
(30,73,l),
(38,78,l),
(100,77,o),
(174,76,o),
(248,76,cs),
(322,76,o),
(396,77,o),
(457,78,c),
(467,73,l),
(467,5,l),
(457,0,l)
);
}
);
width = 500;
}
);
unicode = 95;
}
{
color = (24,168,171,255);
glyphname = a;
layers = (
{
anchors = (
{
name = bottom;
pos = (266,0);
},
{
name = ogonek;
pos = (445,10);
},
{
name = top;
pos = (258,510);
}
);
background = {
shapes = (
{
closed = 1;
nodes = (
(20,430,o),
(90,520,o),
(234,520,cs),
(368,520,o),
(427,422,o),
(420,304,cs),
(416,241,l),
(405,228,l),
(292,228,o),
(191,228,o),
(78,228,c),
(73,299,l),
(340,299,l),
(330,288,l),
(330,410,o),
(293,445,o),
(225,445,cs),
(150,445,o),
(110,396,o),
(110,253,cs),
(110,110,o),
(149,65,o),
(245,65,c),
(292,65,o),
(331,79,o),
(378,96,c),
(385,95,l),
(405,51,l),
(404,44,l),
(352,14,o),
(300,-10,o),
(231,-10,cs),
(90,-10,o),
(20,76,o),
(20,253,cs)
);
}
);
};
guides = (
{
pos = (96,383);
}
);
layerId = master01;
shapes = (
{
closed = 1;
nodes = (
(436,-9,o),
(468,-4,o),
(488,0,c),
(492,65,l),
(391,85,l),
(440,37,l),
(440,355,ls),
(440,480,o),
(347,520,o),
(254,520,cs),
(177,520,o),
(107,488,o),
(76,463,c),
(74,455,l),
(102,407,l),
(108,404,l),
(160,431,o),
(196,446,o),
(245,446,cs),
(308,446,o),
(355,412,o),
(355,344,cs),
(355,57,ls),
(355,12,o),
(368,-9,o),
(418,-9,cs)
);
},
{
closed = 1;
nodes = (
(292,-10,o),
(349,41,o),
(366,106,c),
(331,70,l),
(373,70,l),
(355,201,l),
(355,114,o),
(315,65,o),
(229,65,cs),
(178,65,o),
(140,95,o),
(140,149,cs),
(140,196,o),
(160,228,o),
(235,228,cs),
(368,228,l),
(368,293,l),
(216,293,ls),
(116,293,o),
(50,235,o),
(50,143,cs),
(50,53,o),
(115,-10,o),
(206,-10,cs)
);
}
);
width = 532;
}
);
unicode = 97;
}
{
color = (38,219,207,255);
glyphname = b;
layers = (
{
background = {
shapes = (
{
closed = 1;
nodes = (
(91,732,o),
(101,660,o),
(101,389,cs),
(101,118,o),
(91,10,o),
(91,10,c),
(96,0,l),
(141,0,l),
(176,72,l),
(186,72,l),
(186,699,ls),
(186,762,o),
(172,780,o),
(133,780,cs),
(98,780,o),
(64,771,o),
(40,765,c),
(47,700,l),
(110,703,l),
(91,732,l)
);
},
{
closed = 1;
nodes = (
(407,113,o),
(367,75,o),
(306,75,c),
(249,75,o),
(204,100,o),
(165,122,c),
(153,74,l),
(181,74,l),
(217,19,o),
(255,-10,o),
(329,-10,c),
(440,-10,o),
(502,94,o),
(502,258,cs),
(502,283,ls),
(502,450,o),
(449,520,o),
(337,520,c),
(264,520,o),
(220,485,o),
(191,439,c),
(163,439,l),
(186,255,l),
(186,396,o),
(239,440,o),
(304,440,cs),
(368,440,o),
(407,410,o),
(407,281,cs),
(407,258,ls)
);
}
);
};
layerId = master01;
shapes = (
{
closed = 1;
nodes = (
(438,-10,o),
(502,117,o),
(502,258,cs),
(502,283,ls),
(502,449,o),
(442,520,o),
(328,520,cs),
(262,520,o),
(220,487,o),
(190,446,c),
(165,446,l),
(186,255,l),
(186,395,o),
(239,440,o),
(304,440,cs),
(368,440,o),
(407,402,o),
(407,281,cs),
(407,256,ls),
(407,138,o),
(379,78,o),
(316,78,cs),
(274,78,o),
(208,113,o),
(165,142,c),
(186,104,l),
(186,699,ls),
(186,762,o),
(172,780,o),
(133,780,cs),
(98,780,o),
(64,771,o),
(40,765,c),
(47,700,l),
(110,703,l),
(91,732,l),
(101,634,o),
(101,488,o),
(101,389,cs),
(101,157,o),
(92,128,o),
(70,10,c),
(75,0,l),
(114,-10,l),
(124,-8,l),
(176,86,l),
(131,64,l),
(190,26,o),
(244,-10,o),
(316,-10,cs)
);
}
);
width = 552;
}
);
unicode = 98;
}
{
color = (38,219,207,255);
glyphname = c;
layers = (
{
anchors = (
{
name = bottom;
pos = (257,0);
},
{
name = top;
pos = (269,510);
}
);
background = {
shapes = (
{
closed = 1;
nodes = (
(147,-9,o),
(160,12,o),
(160,57,cs),
(160,344,ls),
(160,412,o),
(207,446,o),
(270,446,cs),
(319,446,o),
(355,431,o),
(407,404,c),
(413,407,l),
(441,455,l),
(439,463,l),
(408,488,o),
(338,520,o),
(261,520,cs),
(168,520,o),
(75,480,o),
(75,355,cs),
(75,37,l),
(124,85,l),
(23,65,l),
(27,0,l),
(47,-4,o),
(79,-9,o),
(97,-9,cs)
);
},
{
closed = 1;
nodes = (
(400,-10,o),
(465,53,o),
(465,143,cs),
(465,235,o),
(399,293,o),
(299,293,cs),
(147,293,l),
(147,228,l),
(280,228,ls),
(355,228,o),
(375,196,o),
(375,149,cs),
(375,95,o),
(337,65,o),
(286,65,cs),
(200,65,o),
(160,114,o),
(160,201,c),
(142,70,l),
(184,70,l),
(149,106,l),
(166,41,o),
(223,-10,o),
(309,-10,cs)
);
}
);
};
layerId = master01;
shapes = (
{
closed = 1;
nodes = (
(392,415,l),
(421,470,l),
(421,476,l),
(383.559,496.691,o),
(332.118,520,o),
(262,520,cs),
(119,520,o),
(50,430,o),
(50,254,cs),
(50,74,o),
(120,-10,o),
(250,-10,cs),
(321,-10,o),
(379,13,o),
(428,42,c),
(429,49,l),
(408,93,l),
(402,97,l),
(357,79,o),
(319,65,o),
(265,65,cs),
(177,65,o),
(140,122,o),
(140,258,cs),
(140,399.754,o),
(183,446,o),
(257,446,cs),
(319,446,o),
(356.523,427.766,o),
(385,415,c)
);
}
);
width = 459;
}
);
metricLeft = "=o";
unicode = 99;
}
{
color = (38,219,207,255);
glyphname = d;
layers = (
{
anchors = (
{
name = bottom;
pos = (271,0);
},
{
name = center;
pos = (271,255);
},
{
name = top;
pos = (271,780);
},
{
name = topright;
pos = (527,780);
}
);
background = {
shapes = (
{
closed = 1;
nodes = (
(114,520,o),
(50,393,o),
(50,252,cs),
(50,227,ls),
(50,61,o),
(110,-10,o),
(224,-10,cs),
(290,-10,o),
(332,23,o),
(362,64,c),
(387,64,l),
(366,255,l),
(366,115,o),
(313,70,o),
(248,70,cs),
(184,70,o),
(145,108,o),
(145,229,cs),
(145,254,ls),
(145,372,o),
(173,432,o),
(236,432,cs),
(278,432,o),
(344,397,o),
(387,368,c),
(366,406,l),
(366,-189,ls),
(366,-252,o),
(380,-270,o),
(419,-270,cs),
(454,-270,o),
(488,-261,o),
(512,-255,c),
(505,-190,l),
(442,-193,l),
(461,-222,l),
(451,-124,o),
(451,22,o),
(451,121,cs),
(451,353,o),
(460,382,o),
(482,500,c),
(477,510,l),
(438,520,l),
(428,518,l),
(376,424,l),
(421,446,l),
(362,484,o),
(308,520,o),
(236,520,cs)
);
}
);
};
layerId = master01;
shapes = (
{
closed = 1;
nodes = (
(312,-10,o),
(363,56.001,o),
(383,101,c),
(339,64,l),
(388,64,l),
(366,93,l),
(366,57,ls),
(366,12,o),
(376.522,-9,o),
(410,-9,cs),
(431,-9,o),
(475,-5,o),
(498,0,c),
(502,65,l),
(409,84,l),
(458,37,l),
(447.098,132,o),
(450,227,o),
(450,322,cs),
(450,447,o),
(455,693,o),
(455,718,cs),
(455,760,o),
(440,780,o),
(399,780,cs),
(363.993,780,o),
(321.109,769.234,o),
(282,761,c),
(289,700,l),
(378,691,l),
(355,723,l),
(363,607,o),
(365,377,o),
(365,266,cs),
(365,125,o),
(323,70,o),
(242,70,cs),
(179,70,o),
(145,122,o),
(145,240,cs),
(145,265,ls),
(145,385.589,o),
(182.262,433,o),
(246,433,cs),
(293.309,433,o),
(336,403,o),
(383,374,c),
(401,454,l),
(375,478,o),
(311.327,520,o),
(232,520,cs),
(135,520,o),
(50,417.02,o),
(50,260,cs),
(50,235,ls),
(50,52,o),
(125,-10,o),
(228,-10,cs)
);
}
);
width = 542;
}
);
metricLeft = "=o";
unicode = 100;
}
{
color = (38,219,207,255);
glyphname = e;
layers = (
{
anchors = (
{
name = bottom;
pos = (246,0);
},
{
name = ogonek;
pos = (362,16);
},
{
name = top;
pos = (264,510);
}
);
background = {
shapes = (
{
closed = 1;
nodes = (
(86,519,o),
(54,514,o),
(34,510,c),
(30,445,l),
(131,425,l),
(82,473,l),
(82,155,ls),
(82,30,o),
(175,-10,o),
(268,-10,cs),
(345,-10,o),
(415,22,o),
(446,47,c),
(448,55,l),
(420,103,l),
(414,106,l),
(362,79,o),
(326,64,o),
(277,64,cs),
(214,64,o),
(167,98,o),
(167,166,cs),
(167,453,ls),
(167,498,o),
(154,519,o),
(104,519,cs)
);
},
{
closed = 1;
nodes = (
(230,520,o),
(173,469,o),
(156,404,c),
(191,440,l),
(149,440,l),
(167,309,l),
(167,396,o),
(207,445,o),
(293,445,cs),
(344,445,o),
(382,415,o),
(382,361,cs),
(382,314,o),
(362,282,o),
(287,282,cs),
(154,282,l),
(154,217,l),
(306,217,ls),
(406,217,o),
(472,275,o),
(472,367,cs),
(472,457,o),
(407,520,o),
(316,520,cs)
);
}
);
};
layerId = master01;
shapes = (
{
closed = 1;
nodes = (
(331.197,-10,o),
(384,12,o),
(437,40,c),
(438,47,l),
(415,95,l),
(408,96,l),
(358,79,o),
(322,65,o),
(275,65,cs),
(179,65,o),
(140,111,o),
(140,253,cs),
(140,395,o),
(180,445,o),
(255,445,cs),
(323,445,o),
(360,409,o),
(360,288,c),
(370,299,l),
(103,299,l),
(108,228,l),
(164,228,o),
(219,228,o),
(272,228,cs),
(324,228,o),
(379,228,o),
(435,228,c),
(446,241,l),
(450,304,ls),
(457,421,o),
(397,520,o),
(264,520,cs),
(121,520,o),
(50,429,o),
(50,253,cs),
(50,77,o),
(121,-10,o),
(261,-10,cs)
);
}
);
width = 491;
}
);
metricLeft = "=o";
unicode = 101;
}
{
color = (38,219,207,255);
glyphname = f;
layers = (
{
background = {
shapes = (
{
closed = 1;
nodes = (
(84,281,o),
(97,302,o),
(97,347,cs),
(97,634,ls),
(97,702,o),
(144,736,o),
(207,736,cs),
(256,736,o),
(292,721,o),
(344,694,c),
(350,697,l),
(378,745,l),
(376,753,l),
(345,778,o),
(275,810,o),
(198,810,cs),
(105,810,o),
(12,770,o),
(12,645,cs),
(12,327,l),
(61,375,l),
(-40,355,l),
(-36,290,l),
(-16,286,o),
(16,281,o),
(34,281,cs)
);
},
{
closed = 1;
nodes = (
(337,280,o),
(402,343,o),
(402,433,cs),
(402,525,o),
(336,583,o),
(236,583,cs),
(84,583,l),
(84,518,l),
(217,518,ls),
(292,518,o),
(312,486,o),
(312,439,cs),
(312,385,o),
(274,355,o),
(223,355,cs),
(137,355,o),
(97,404,o),
(97,491,c),
(79,360,l),
(121,360,l),
(86,396,l),
(103,331,o),
(160,280,o),
(246,280,cs)
);
}
);
};
guides = (
{
angle = 90;
pos = (231,686);
}
);
layerId = master01;
shapes = (
{
closed = 1;
nodes = (
(199,0,l),
(209,10,l),
(203.416,77.013,o),
(199,150.824,o),
(199,295,cs),
(199,594,ls),
(199,669,o),
(215,705,o),
(274,705,cs),
(302,705,o),
(328,698,o),
(351,689,c),
(356,692,l),
(380,750,l),
(378,754,l),
(359,765,o),
(320.25,780,o),
(273,780,cs),
(158,780,o),
(114,703,o),
(114,612,cs),
(114,295,ls),
(114,148.588,o),
(108.468,73.675,o),
(104,10,c),
(112,0,l)
);
},
{
closed = 1;
nodes = (
(92,436,o),
(132,437,o),
(180,437,cs),
(214,437,o),
(261,436,o),
(321,435,c),
(328,442,l),
(328,505,l),
(321,510,l),
(42,510,l),
(35,503,l),
(35,442,l),
(42,435,l)
);
}
);
width = 328;
}
);
unicode = 102;
}
{
color = (38,219,207,255);
glyphname = g;
layers = (
{
background = {
shapes = (
{
closed = 1;
nodes = (
(321,65,o),
(358,126,o),
(358,255,cs),
(358,384,o),
(321,445,o),
(241,445,cs),
(162,445,o),
(125,384,o),
(125,255,cs),
(125,126,o),
(162,65,o),
(241,65,cs)
);
},
{
closed = 1;
nodes = (
(105,-10,o),
(35,80,o),
(35,255,cs),
(35,430,o),
(105,520,o),
(241,520,cs),
(378,520,o),
(448,430,o),
(448,255,cs),
(448,80,o),
(378,-10,o),
(241,-10,cs)
);
},
{
closed = 1;
nodes = (
(451,58,o),
(451,82,o),
(427,121,cs),
(275,364,ls),
(238,421,o),
(260,475,o),
(314,509,cs),
(355,535,o),
(394,541,o),
(452,546,c),
(455,552,l),
(454,607,l),
(448,613,l),
(408,618,o),
(332,607,o),
(267,567,cs),
(188,517,o),
(130,434,o),
(197,328,cs),
(366,59,l),
(382,125,l),
(307,55,l),
(345,2,l),
(364,9,o),
(393,22,o),
(409,31,cs)
);
},
{
closed = 1;
nodes = (
(666,191,o),
(688,279,o),
(640,355,cs),
(591,433,o),
(504,448,o),
(419,394,cs),
(291,314,l),
(325,259,l),
(438,329,ls),
(501,369,o),
(535,353,o),
(560,313,cs),
(589,267,o),
(573,221,o),
(529,194,cs),
(457,149,o),
(397,169,o),
(351,243,c),
(405,122,l),
(440,144,l),
(392,156,l),
(441,110,o),
(516,97,o),
(589,143,cs)
);
}
);
};
guides = (
{
pos = (25,-85);
}
);
layerId = master01;
shapes = (
{
closed = 1;
nodes = (
(364,-230,o),
(454,-154,o),
(454,-74,cs),
(454,10,o),
(403,51,o),
(285,60,cs),
(210,66,o),
(172,76,o),
(172,99,cs),
(172,114,o),
(183,127,o),
(194,138,c),
(144,159,l),
(110,141,o),
(82,105,o),
(82,74,cs),
(82,16,o),
(147,-5,o),
(263,-20,cs),
(354,-32,o),
(379,-44,o),
(379,-81,cs),
(379,-122,o),
(340,-162,o),
(257,-162,cs),
(184,-162,o),
(133,-125,o),
(133,-77,c),
(133,-37,o),
(151,-14,o),
(172,2,c),
(132,22,l),
(100,5,o),
(50,-29,o),
(50,-87,c),
(50,-173,o),
(131,-230,o),
(245,-230,c)
);
},
{
closed = 1;
nodes = (
(359,128,o),
(435,205,o),
(435,327,cs),
(435,446,o),
(359,520,o),
(241,520,c),
(126,520,o),
(55,446,o),
(55,327,cs),
(55,205,o),
(126,128,o),
(239,128,cs)
);
},
{
closed = 1;
nodes = (
(175,203,o),
(145,242,o),
(145,330,cs),
(145,410,o),
(175,445,o),
(245,445,cs),
(315,445,o),
(345,410,o),
(345,330,cs),
(345,242,o),
(315,203,o),
(245,203,cs)
);
},
{
closed = 1;
nodes = (
(348,557,l),
(337,535,l),
(457,541,l),
(460,545,l),
(459,619,l),
(455,622,l),
(341,622,o),
(290,599,o),
(290,543,cs),
(290,531,o),
(291,518,o),
(294,504,c),
(348,493,l)
);
}
);
width = 480;
}
);
unicode = 103;
}
{
color = (38,219,207,255);
glyphname = h;
layers = (
{
background = {
shapes = (
{
closed = 1;
nodes = (
(436,-10,o),
(500,117,o),
(500,258,cs),
(500,283,ls),
(500,449,o),
(440,520,o),
(326,520,cs),
(260,520,o),
(218,487,o),
(188,446,c),
(163,446,l),
(184,255,l),
(184,395,o),
(237,440,o),
(302,440,cs),
(366,440,o),
(405,402,o),
(405,281,cs),
(405,256,ls),
(405,138,o),
(377,78,o),
(314,78,cs),
(272,78,o),
(206,113,o),
(163,142,c),
(184,104,l),
(184,699,ls),
(184,762,o),
(170,780,o),
(131,780,cs),
(96,780,o),
(62,771,o),
(38,765,c),
(45,700,l),
(108,703,l),
(89,732,l),
(99,634,o),
(99,488,o),
(99,389,cs),
(99,157,o),
(90,128,o),
(68,10,c),
(73,0,l),
(112,-10,l),
(122,-8,l),
(174,86,l),
(129,64,l),
(188,26,o),
(242,-10,o),
(314,-10,cs)
);
}
);
};
layerId = master01;
shapes = (
{
closed = 1;
nodes = (
(484,-10,o),
(515,-5,o),
(542,-1,c),
(546,64,l),
(452,83,l),
(503,32,l),
(494.641,108.16,o),
(494,162,o),
(494,341,cs),
(494,452,o),
(446,520,o),
(336,520,c),
(234,520,o),
(182.976,453.913,o),
(168,400,c),
(208,449,l),
(174,449,l),
(184,413,l),
(184,718,ls),
(184,759,o),
(170,780,o),
(129,780,cs),
(102.416,780,o),
(67.616,772.149,o),
(38,765,c),
(45,700,l),
(108,703,l),
(89,732,l),
(95,647,o),
(99,483,o),
(99,372,cs),
(99,268,o),
(99,113,o),
(89,10,c),
(94,0,l),
(189,0,l),
(194,10,l),
(187,70,o),
(184,179,o),
(184,251,cs),
(184,379,o),
(216,440,o),
(304,440,cs),
(386,440,o),
(409,379,o),
(409,275,cs),
(409,215,o),
(405,125,o),
(405,65,cs),
(405,13,o),
(429,-10,o),
(461,-10,cs)
);
}
);
width = 586;
}
);
unicode = 104;
}
{
color = (38,219,207,255);
glyphname = i;
layers = (
{
anchors = (
{
name = bottom;
pos = (140,0);
}
);
background = {
shapes = (
{
closed = 1;
nodes = (
(184,374,o),
(215,440,o),
(303,440,c),
(385,440,o),
(409,394,o),
(409,275,c),
(409,196,o),
(405,120,o),
(405,65,cs),
(405,13,o),
(429,-10,o),
(461,-10,c),
(484,-10,o),
(515,-5,o),
(542,-1,c),
(546,64,l),
(452,83,l),
(494,32,l),
(494,365,ls),
(494,471,o),
(435,520,o),
(339,520,c),
(237,520,o),
(184,448,o),
(171,395,c),
(208,439,l),
(174,439,l),
(184,413,l),
(184,458,ls),
(184,499,o),
(170,520,o),
(129,520,c),
(103,520,o),
(69,512,o),
(40,505,c),
(47,440,l),
(108,443,l),
(89,472,l),
(89,472,o),
(99,415,o),
(99,275,cs),
(99,84,o),
(89,10,o),
(89,10,c),
(94,0,l),
(189,0,l),
(194,10,l),
(194,10,o),
(184,82,o),
(184,251,cs)
);
}
);
};
layerId = master01;
shapes = (
{
closed = 1;
nodes = (
(205,0,l),
(210,10,l),
(201,86,o),
(200,195,o),
(200,275,cs),
(200,458,ls),
(200,499,o),
(186,520,o),
(144,520,cs),
(114.721,520,o),
(65.084,512.019,o),
(39,506,c),
(47,438,l),
(124,443,l),
(105,472,l),
(112,423,o),
(115,335,o),
(115,275,cs),
(115,202,o),
(113,79,o),
(105,10,c),
(110,0,l)
);
},
{
pos = (70,0);
ref = dotaccentcomb;
}
);
width = 280;
}
);
unicode = 105;
}
{
color = (38,219,207,255);
glyphname = j;
layers = (
{
layerId = master01;
shapes = (
{
closed = 1;
nodes = (
(189,-87,o),
(189,101,cs),
(189,245,ls),
(189,308,o),
(192,394,o),
(193,457,cs),
(193,498,o),
(179,519,o),
(137,519,cs),
(108,519,o),
(59,509,o),
(33,503,c),
(40,437,l),
(144,444,l),
(98,462,l),
(100,416,o),
(104,306,o),
(104,245,cs),
(104,149,ls),
(104,-66,o),
(73,-88,o),
(16,-180,c),
(15,-185,l),
(56,-220,l),
(61,-220,l),
(150,-138,o)
);
},
{
pos = (57,0);
ref = dotaccentcomb;
}
);
width = 263;
}
);
metricRight = i;
unicode = 106;
}
{
color = (38,219,207,255);
glyphname = k;
layers = (
{
layerId = master01;
shapes = (
{
closed = 1;
nodes = (
(193,0,l),
(198,10,l),
(192,93,o),
(188,252,o),
(188,352,cs),
(188,459,o),
(193,697,o),
(193,718,cs),
(193,757,o),
(177,780,o),
(132,780,cs),
(100,780,o),
(61,770,o),
(30,762,c),
(38,699,l),
(109,703,l),
(88,732,l),
(94,646,o),
(99,487,o),
(99,356,cs),
(99,244,o),
(95,93,o),
(89,10,c),
(94,0,l)
);
},
{
closed = 1;
nodes = (
(166,237,l),
(212,237,ls),
(226.664,237,o),
(371,380,o),
(477,499,c),
(473,510,l),
(383,510,l),
(316.848,427.047,o),
(211.639,322,o),
(202,322,cs),
(166,322,l)
);
},
{
closed = 1;
nodes = (
(193,267,l),
(265,144,ls),
(317.594,54.152,o),
(349,-9,o),
(396,-8,cs),
(423,-7,o),
(450,11,o),
(488,38,c),
(467,85,l),
(388,75,l),
(429,53,l),
(258,299,l)
);
}
);
width = 503;
}
);
unicode = 107;
}
{
color = (38,219,207,255);
glyphname = l;
layers = (
{
anchors = (
{
name = bottom;
pos = (154,0);
},
{
name = center;
pos = (154,390);
},
{
name = top;
pos = (154,780);
},
{
name = topright;
pos = (293,780);
}
);
background = {
shapes = (
{
closed = 1;
nodes = (
(176,374,o),
(215,440,o),
(295,440,c),
(377,440,o),
(401,394,o),
(401,275,c),
(401,196,o),
(397,120,o),
(397,65,cs),
(397,13,o),
(421,-10,o),
(453,-10,c),
(476,-10,o),
(507,-5,o),
(534,-1,c),
(538,64,l),
(444,83,l),
(486,32,l),
(486,365,ls),
(486,471,o),
(427,520,o),
(331,520,c),
(229,520,o),
(176,448,o),
(163,395,c),
(200,439,l),
(166,439,l),
(176,413,l),
(176,718,ls),
(176,759,o),
(162,780,o),
(121,780,c),
(95,780,o),
(61,772,o),
(32,765,c),
(39,700,l),
(100,703,l),
(81,732,l),
(81,732,o),
(91,600,o),
(91,372,c),
(91,84,o),
(81,10,o),
(81,10,c),
(86,0,l),
(181,0,l),
(186,10,l),
(186,10,o),
(176,82,o),
(176,251,cs)
);
}
);
};
layerId = master01;
shapes = (
{
closed = 1;
nodes = (
(199,-10,o),
(231,-5,o),
(264,0,c),
(268,64,l),
(190,79,l),
(208,52,l),
(198,143,o),
(198,270,o),
(198,384,cs),
(198,494,o),
(203,697,o),
(203,718,cs),
(203,757,o),
(187,780,o),
(142,780,cs),
(110,780,o),
(71,770,o),
(40,762,c),
(48,699,l),
(123,703,l),
(102,732,l),
(114,464,o),
(113,553,o),
(113,384,cs),
(113,275,o),
(104,97,o),
(104,61,cs),
(104,16,o),
(126,-10,o),
(162,-10,cs)
);
}
);
width = 308;
}
);
unicode = 108;
}
{
color = (38,219,207,255);
glyphname = m;
layers = (
{
background = {
shapes = (
{
closed = 1;
nodes = (
(484,-10,o),
(515,-5,o),
(542,-1,c),
(546,64,l),
(452,83,l),
(494,32,l),
(494,345,ls),
(494,464,o),
(435,520,o),
(339,520,cs),
(233,520,o),
(184,455,o),
(169,402,c),
(208,449,l),
(174,449,l),
(184,413,l),
(184,458,ls),
(184,499,o),
(170,520,o),
(129,520,cs),
(103,520,o),
(69,512,o),
(40,505,c),
(47,440,l),
(108,443,l),
(89,472,l),
(97,423,o),
(99,330,o),
(99,275,cs),
(99,198,o),
(97,77,o),
(89,10,c),
(94,0,l),
(189,0,l),
(194,10,l),
(187,70,o),
(184,179,o),
(184,251,cs),
(184,373,o),
(215,440,o),
(303,440,cs),
(385,440,o),
(409,390,o),
(409,275,cs),
(409,215,o),
(405,125,o),
(405,65,cs),
(405,13,o),
(429,-10,o),
(461,-10,cs)
);
}
);
};
guides = (
{
pos = (409,251);
}
);
layerId = master01;
shapes = (
{
closed = 1;
nodes = (
(762,-10,o),
(794,-4,o),
(813,0,c),
(817,64,l),
(723,83,l),
(764,33,l),
(764,365,ls),
(764,460,o),
(715,520,o),
(613,520,cs),
(532,520,o),
(466.971,472.887,o),
(451,410,c),
(495,449,l),
(458,449,l),
(474,403,l),
(474,457,o),
(430,520,o),
(327,520,cs),
(252.912,520,o),
(193,474,o),
(172,409,c),
(204,449,l),
(168,449,l),
(184,413,l),
(184,458,ls),
(184,497,o),
(172,520,o),
(138,520,cs),
(109,520,o),
(73,513,o),
(40,505,c),
(47,440,l),
(108,443,l),
(89,472,l),
(96,423,o),
(99,334,o),
(99,275,cs),
(99,197,o),
(97,80,o),
(89,10,c),
(94,0,l),
(189,0,l),
(194,10,l),
(187,77,o),
(184,197,o),
(184,275,cs),
(184,393,o),
(218,440,o),
(292,440,cs),
(365,440,o),
(389,394,o),
(389,275,cs),
(389,225,o),
(387,55,o),
(379,6,c),
(383,0,l),
(479,0,l),
(484,6,l),
(477,88,o),
(474,130,o),
(474,275,cs),
(474,390,o),
(505,440,o),
(580,440,cs),
(658,440,o),
(679,390,o),
(679,275,cs),
(679,215,o),
(675,125,o),
(675,65,cs),
(675,13,o),
(704,-10,o),
(742,-10,cs)
);
}
);
userData = {
com.typemytype.robofont.guideline.showMeasurements.RPSkcjBNnE = 1;
};
width = 857;
}
);
unicode = 109;
}
{
color = (38,219,207,255);
glyphname = n;
layers = (
{
anchors = (
{
name = bottom;
pos = (293,0);
},
{
name = top;
pos = (307,519);
}
);
background = {
shapes = (
{
closed = 1;
nodes = (
(484,-10,o),
(515,-5,o),
(542,-1,c),
(546,64,l),
(452,83,l),
(503,32,l),
(495,108,o),
(494,162,o),
(494,341,cs),
(494,452,o),
(446,520,o),
(336,520,c),
(234,520,o),
(183,454,o),
(168,400,c),
(208,449,l),
(174,449,l),
(184,413,l),
(184,718,ls),
(184,759,o),
(170,780,o),
(129,780,cs),
(102,780,o),
(68,772,o),
(38,765,c),
(45,700,l),
(108,703,l),
(89,732,l),
(95,647,o),
(99,483,o),
(99,372,cs),
(99,268,o),
(99,113,o),
(89,10,c),
(94,0,l),
(189,0,l),
(194,10,l),
(187,70,o),
(184,179,o),
(184,251,cs),
(184,379,o),
(216,440,o),
(304,440,cs),
(386,440,o),
(409,379,o),
(409,275,cs),
(409,215,o),
(405,125,o),
(405,65,cs),
(405,13,o),
(429,-10,o),
(461,-10,cs)
);
}
);
};
layerId = master01;
shapes = (
{
closed = 1;
nodes = (
(484,-10,o),
(515,-5,o),
(542,-1,c),
(546,64,l),
(452,83,l),
(494,32,l),
(494,345,ls),
(494,464,o),
(435,520,o),
(339,520,cs),
(233,520,o),
(184,455,o),
(169,402,c),
(208,449,l),
(174,449,l),
(184,413,l),
(184,458,ls),
(184,499,o),
(170,520,o),
(129,520,cs),
(103,520,o),
(69,512,o),
(40,505,c),
(47,440,l),
(108,443,l),
(89,472,l),
(97,423,o),
(99,330,o),
(99,275,cs),
(99,198,o),
(97,77,o),
(89,10,c),
(94,0,l),
(189,0,l),
(194,10,l),
(187,70,o),
(184,179,o),
(184,251,cs),
(184,373,o),
(215,440,o),
(303,440,cs),
(385,440,o),
(409,390,o),
(409,275,cs),
(409,215,o),
(405,125,o),
(405,65,cs),
(405,13,o),
(429,-10,o),
(461,-10,cs)
);
}
);
width = 586;
}
);
unicode = 110;
}
{
color = (38,219,207,255);
glyphname = o;
layers = (
{
anchors = (
{
name = bottom;
pos = (257,0);
},
{
name = top;
pos = (256,510);
}
);
background = {
shapes = (
{
closed = 1;
nodes = (
(193,-10,o),
(157,1,o),
(125,22,cs),
(94,43,o),
(70,74,o),
(53,113,cs),
(37,153,o),
(29,200,o),
(29,255,cs),
(29,309,o),
(37,356,o),
(53,396,cs),
(70,435,o),
(94,466,o),
(125,487,cs),
(157,509,o),
(193,519,o),
(235,519,cs),
(278,519,o),
(314,509,o),
(345,487,cs),
(376,466,o),
(399,435,o),
(416,396,cs),
(433,356,o),
(441,309,o),
(441,255,cs),
(441,200,o),
(433,153,o),
(416,113,cs),
(399,74,o),
(376,43,o),
(345,22,cs),
(314,1,o),
(278,-10,o),
(235,-10,cs)
);
},
{
closed = 1;
nodes = (
(276,63,o),
(306,78,o),
(325,109,cs),
(344,140,o),
(353,189,o),
(353,255,cs),
(353,320,o),
(344,369,o),
(325,400,cs),
(306,431,o),
(276,446,o),
(235,446,cs),
(195,446,o),
(165,431,o),
(146,400,cs),
(127,369,o),
(117,320,o),
(117,255,cs),
(117,189,o),
(127,141,o),
(146,110,cs),
(165,78,o),
(195,63,o),
(235,63,cs)
);
}
);
};
guides = (
{
pos = (-28,461);
}
);
layerId = master01;
shapes = (
{
closed = 1;
nodes = (
(392,-10,o),
(463,81,o),
(463,255,cs),
(463,429,o),
(392,520,o),
(256,520,cs),
(121,520,o),
(50,429,o),
(50,255,cs),
(50,81,o),
(121,-10,o),
(256,-10,cs)
);
},
{
closed = 1;
nodes = (
(177,65,o),
(140,127,o),
(140,255,cs),
(140,383,o),
(177,445,o),
(256,445,cs),
(336,445,o),
(373,383,o),
(373,255,cs),
(373,127,o),
(336,65,o),
(256,65,cs)
);
}
);
width = 513;
}
);
unicode = 111;
}
{
color = (24,168,171,255);
glyphname = p;
layers = (
{
background = {
shapes = (
{
closed = 1;
nodes = (
(438,-10,o),
(502,117,o),
(502,258,cs),
(502,283,ls),
(502,449,o),
(442,520,o),
(328,520,cs),
(262,520,o),
(220,487,o),
(190,446,c),
(165,446,l),
(186,255,l),
(186,395,o),
(239,440,o),
(304,440,cs),
(368,440,o),
(407,402,o),
(407,281,cs),
(407,256,ls),
(407,138,o),
(379,78,o),
(316,78,cs),
(274,78,o),
(208,113,o),
(165,142,c),
(186,104,l),
(186,699,ls),
(186,762,o),
(172,780,o),
(133,780,cs),
(98,780,o),
(64,771,o),
(40,765,c),
(47,700,l),
(110,703,l),
(91,732,l),
(101,634,o),
(101,488,o),
(101,389,cs),
(101,157,o),
(92,128,o),
(70,10,c),
(75,0,l),
(114,-10,l),
(124,-8,l),
(176,86,l),
(131,64,l),
(190,26,o),
(244,-10,o),
(316,-10,cs)
);
}
);
};
layerId = master01;
shapes = (
{
closed = 1;
nodes = (
(199,-220,l),
(204,-210,l),
(192,-21,o),
(187,30,o),
(187,244,cs),
(187,389,o),
(232,440,o),
(307,440,cs),
(374,440,o),
(407,393,o),
(407,279,cs),
(407,254,ls),
(407,139,o),
(375,78,o),
(318,78,cs),
(275.849,78,o),
(231,97,o),
(169,128,c),
(139,51,l),
(181,28,o),
(244,-10,o),
(317,-10,cs),
(427,-10,o),
(502,102,o),
(502,258,cs),
(502,283,ls),
(502,443,o),
(442,520,o),
(340,520,cs),
(248,520,o),
(184,472,o),
(166,393,c),
(210,452,l),
(159,452,l),
(188,415,l),
(188,448,ls),
(188,499,o),
(179,520,o),
(136,520,cs),
(106,520,o),
(66,512,o),
(33,504,c),
(40,439,l),
(108,442,l),
(89,472,l),
(96.691,389.321,o),
(100,338,o),
(102,176,cs),
(102,3,o),
(101.288,-60.365,o),
(92,-210,c),
(97,-220,l)
);
}
);
width = 552;
}
);
unicode = 112;
}
{
color = (38,219,207,255);
glyphname = q;
layers = (
{
background = {
shapes = (
{
closed = 1;
nodes = (
(104,520,o),
(40,393,o),
(40,252,cs),
(40,227,ls),
(40,61,o),
(100,-10,o),
(214,-10,cs),
(280,-10,o),
(322,23,o),
(352,64,c),
(377,64,l),
(356,255,l),
(356,115,o),
(303,70,o),
(238,70,cs),
(174,70,o),
(135,108,o),
(135,229,cs),
(135,254,ls),
(135,372,o),
(163,432,o),
(226,432,cs),
(268,432,o),
(334,397,o),
(377,368,c),
(356,406,l),
(356,-189,ls),
(356,-252,o),
(370,-270,o),
(409,-270,cs),
(444,-270,o),
(478,-261,o),
(502,-255,c),
(495,-190,l),
(432,-193,l),
(451,-222,l),
(441,-124,o),
(441,22,o),
(441,121,cs),
(441,353,o),
(450,382,o),
(472,500,c),
(467,510,l),
(428,520,l),
(418,518,l),
(366,424,l),
(411,446,l),
(352,484,o),
(298,520,o),
(226,520,cs)
);
}
);
};
layerId = master01;
shapes = (
{
closed = 1;
nodes = (
(449,-225,o),
(481,-218,o),
(506,-212,c),
(508,-147,l),
(414,-138,l),
(458,-171,l),
(453,-49,o),
(451,30,o),
(451,165,cs),
(451,310,o),
(457,418,o),
(463,500,c),
(458,510,l),
(393,510,l),
(387,504,l),
(366,432,l),
(366,253,ls),
(366,141,o),
(326,70,o),
(251,70,cs),
(177,70,o),
(145,132,o),
(145,244,cs),
(145,269,ls),
(145,376,o),
(179,432,o),
(233,432,cs),
(288,432,o),
(347,401,o),
(383,380,c),
(399,460,l),
(380,472,o),
(316,520,o),
(233,520,cs),
(128,520,o),
(50,423,o),
(50,266,cs),
(50,241,ls),
(50,76,o),
(118,-10,o),
(230,-10,cs),
(321,-10,o),
(371,64,o),
(387,109,c),
(366,129,l),
(366,-26,o),
(360,-103,o),
(360,-151,cs),
(360,-203,o),
(379,-225,o),
(420,-225,cs)
);
}
);
width = 548;
}
);
metricLeft = "=o";
unicode = 113;
}
{
color = (38,219,207,255);
glyphname = r;
layers = (
{
anchors = (
{
name = bottom;
pos = (171,3);
},
{
name = top;
pos = (202,510);
}
);
background = {
shapes = (
{
closed = 1;
nodes = (
(484,-10,o),
(515,-5,o),
(542,-1,c),
(546,64,l),
(452,83,l),
(494,32,l),
(494,345,ls),
(494,464,o),
(435,520,o),
(339,520,cs),
(233,520,o),
(184,455,o),
(169,402,c),
(208,449,l),
(174,449,l),
(184,413,l),
(184,458,ls),
(184,499,o),
(170,520,o),
(129,520,cs),
(103,520,o),
(69,512,o),
(40,505,c),
(47,440,l),
(108,443,l),
(89,472,l),
(97,423,o),
(99,330,o),
(99,275,cs),
(99,198,o),
(97,77,o),
(89,10,c),
(94,0,l),
(189,0,l),
(194,10,l),
(187,70,o),
(184,179,o),
(184,251,cs),
(184,373,o),
(215,440,o),
(303,440,cs),
(385,440,o),
(409,390,o),
(409,275,cs),
(409,215,o),
(405,125,o),
(405,65,cs),
(405,13,o),
(429,-10,o),
(461,-10,cs)
);
}
);
};
layerId = master01;
shapes = (
{
closed = 1;
nodes = (
(189,0,l),
(194,10,l),
(187,74,o),
(184,213,o),
(184,286,cs),
(184,326,o),
(184,349,o),
(184,393,cs),
(184,425,o),
(184,449,o),
(184,458,c),
(184,497,o),
(171,520,o),
(133,520,cs),
(105,520,o),
(72,513,o),
(40,505,c),
(47,440,l),
(108,443,l),
(89,472,l),
(96,423,o),
(99,334,o),
(99,275,cs),
(99,202,o),
(97,79,o),
(89,10,c),
(94,0,l)
);
},
{
closed = 1;
nodes = (
(184,376,o),
(229,433,o),
(305,433,cs),
(321,433,o),
(339,431,o),
(357,426,c),
(365,430,l),
(383,500,l),
(378,509,l),
(361,517,o),
(336.566,520,o),
(317,520,cs),
(248.286,520,o),
(193,477,o),
(169,403,c),
(234,449,l),
(179,449,l),
(184,278,l)
);
}
);
width = 396;
}
);
unicode = 114;
}
{
color = (38,219,207,255);
glyphname = s;
layers = (
{
anchors = (
{
name = bottom;
pos = (220,0);
},
{
name = top;
pos = (251,510);
}
);
layerId = master01;
shapes = (
{
closed = 1;
nodes = (
(345,-10,o),
(425,64,o),
(425,147,c),
(425,332,o),
(157,305,o),
(157,393,c),
(157,428,o),
(179,448,o),
(236,448,cs),
(282,448,o),
(331,426,o),
(370,403,c),
(377,405,l),
(412,470,l),
(410,477,l),
(364,506,o),
(302,520,o),
(248,520,cs),
(151,520,o),
(74,460,o),
(74,374,cs),
(74,201,o),
(342,236,o),
(342,129,cs),
(342,90,o),
(312,65,o),
(255,65,c),
(196,65,o),
(133.183,85.929,o),
(74,109,c),
(66,106,l),
(41,38,l),
(42,31,l),
(99,9,o),
(174,-10,o),
(233,-10,cs)
);
}
);
width = 470;
}
);
unicode = 115;
}
{
glyphname = t;
layers = (
{
anchors = (
{
name = bottom;
pos = (201,0);
},
{
name = center;
pos = (152,255);
},
{
name = top;
pos = (152,510);
},
{
name = topright;
pos = (324,780);
}
);
background = {
shapes = (
{
closed = 1;
nodes = (
(352,136,o),
(324,70,o),
(243,70,c),
(165,70,o),
(142,116,o),
(142,235,c),
(142,314,o),
(146,390,o),
(146,445,cs),
(146,497,o),
(122,520,o),
(90,520,c),
(67,520,o),
(36,515,o),
(9,511,c),
(5,446,l),
(99,427,l),
(57,478,l),
(57,145,ls),
(57,39,o),
(114,-10,o),
(207,-10,c),
(311,-10,o),
(345,55,o),
(365,130,c),
(328,86,l),
(366,86,l),
(353,101,l),
(353,57,ls),
(353,13,o),
(368,-10,o),
(413,-10,c),
(434,-10,o),
(462,-5,o),
(486,1,c),
(490,65,l),
(408,76,l),
(445,39,l),
(445,39,o),
(437,96,o),
(437,235,cs),
(437,426,o),
(447,500,o),
(447,500,c),
(442,510,l),
(347,510,l),
(342,500,l),
(342,500,o),
(352,428,o),
(352,259,cs)
);
}
);
};
layerId = master01;
shapes = (
{
closed = 1;
nodes = (
(262,-10,o),
(299,3,o),
(326,20,c),
(328,25,l),
(308,81,l),
(304,84,l),
(293,80,o),
(276,70,o),
(250,70,cs),
(192,70,o),
(172,102,o),
(172,176,cs),
(172,292,o),
(178,516,o),
(181,610,c),
(171,620,l),
(85,600,l),
(77,590,l),
(91,385,o),
(87,243,o),
(87,172,cs),
(87,41,o),
(132,-10,o),
(212,-10,cs)
);
},
{
closed = 1;
nodes = (
(51,437,o),
(104,439,o),
(139,439,cs),
(155,439,o),
(245,436,o),
(275,436,c),
(280,444,l),
(280,504,l),
(275,510,l),
(16,510,l),
(10,502,l),
(10,444,l),
(16,436,l)
);
}
);
width = 343;
}
);
unicode = 116;
}
{
color = (38,219,207,255);
glyphname = u;
layers = (
{
anchors = (
{
name = bottom;
pos = (283,0);
},
{
name = ogonek;
pos = (482,9);
},
{
name = top;
pos = (273,510);
},
{
name = topright;
pos = (550,510);
}
);
background = {
shapes = (
{
closed = 1;
nodes = (
(87,520,o),
(56,515,o),
(29,511,c),
(25,446,l),
(119,427,l),
(77,478,l),
(77,165,ls),
(77,46,o),
(136,-10,o),
(232,-10,cs),
(338,-10,o),
(387,55,o),
(402,108,c),
(363,61,l),
(397,61,l),
(387,97,l),
(387,52,ls),
(387,11,o),
(401,-10,o),
(442,-10,cs),
(468,-10,o),
(502,-2,o),
(531,5,c),
(524,70,l),
(463,67,l),
(482,38,l),
(474,87,o),
(472,180,o),
(472,235,cs),
(472,312,o),
(474,433,o),
(482,500,c),
(477,510,l),
(382,510,l),
(377,500,l),
(384,440,o),
(387,331,o),
(387,259,cs),
(387,137,o),
(356,70,o),
(268,70,cs),
(186,70,o),
(162,120,o),
(162,235,cs),
(162,295,o),
(166,385,o),
(166,445,cs),
(166,497,o),
(142,520,o),
(110,520,cs)
);
}
);
};
layerId = master01;
shapes = (
{
closed = 1;
nodes = (
(344,-10,o),
(383,45,o),
(402,99,c),
(363,61,l),
(401,61,l),
(388,101,l),
(388,57,ls),
(388,13,o),
(403,-10,o),
(448,-10,cs),
(469,-10,o),
(497,-5,o),
(521,1,c),
(525,65,l),
(443,76,l),
(480,39,l),
(479,46,o),
(472,166,o),
(472,235,cs),
(472,312,o),
(474,433,o),
(482,500,c),
(477,510,l),
(382,510,l),
(377,500,l),
(384,440,o),
(387,331,o),
(387,259,cs),
(387,137,o),
(359,70,o),
(278,70,cs),
(200,70,o),
(177,117,o),
(177,235,cs),
(177,295,o),
(181,385,o),
(181,445,cs),
(181,497,o),
(157,520,o),
(125,520,cs),
(102,520,o),
(71,515,o),
(44,511,c),
(40,446,l),
(134,427,l),
(92,478,l),
(92,145,ls),
(92,40,o),
(149,-10,o),
(242,-10,cs)
);
}
);
width = 565;
}
);
unicode = 117;
}
{
color = (38,219,207,255);
glyphname = v;
layers = (
{
background = {
shapes = (
{
closed = 1;
nodes = (
(200,374,o),
(231,440,o),
(319,440,c),
(401,440,o),
(425,394,o),
(425,275,c),
(425,196,o),
(421,120,o),
(421,65,cs),
(421,13,o),
(445,-10,o),
(477,-10,c),
(500,-10,o),
(531,-5,o),
(558,-1,c),
(562,64,l),
(468,83,l),
(510,32,l),
(510,365,ls),
(510,471,o),
(451,520,o),
(355,520,c),
(253,520,o),
(200,448,o),
(187,395,c),
(224,439,l),
(190,439,l),
(200,413,l),
(200,458,ls),
(200,499,o),
(186,520,o),
(145,520,c),
(119,520,o),
(85,512,o),
(56,505,c),
(63,440,l),
(124,443,l),
(105,472,l),
(105,472,o),
(115,415,o),
(115,275,cs),
(115,84,o),
(105,10,o),
(105,10,c),
(110,0,l),
(205,0,l),
(210,10,l),
(210,10,o),
(200,82,o),
(200,251,cs)
);
}
);
};
guides = (
{
pos = (-11,542);
}
);
layerId = master01;
shapes = (
{
closed = 1;
nodes = (
(320,0,l),
(328,10,l),
(380,173,o),
(427,337,o),
(488,500,c),
(483,510,l),
(400,510,l),
(393,502,l),
(353,344,o),
(307,200,o),
(250,34,c),
(285,34,l),
(217,202,o),
(149,392,o),
(116,500,c),
(110,510,l),
(14,510,l),
(10,500,l),
(63,377,o),
(135,174,o),
(189,10,c),
(197,0,l)
);
}
);
width = 498;
}
);
unicode = 118;
}
{
color = (38,219,207,255);
glyphname = w;
layers = (
{
anchors = (
{
name = bottom;
pos = (381,0);
},
{
name = top;
pos = (381,510);
}
);
background = {
shapes = (
{
closed = 1;
nodes = (
(248,10,l),
(242,0,l),
(151,0,l),
(145,10,l),
(-11,500,l),
(-6,510,l),
(-6,510,o),
(83,510,o),
(83,510,c),
(89,500,l),
(98,469,o),
(212,62,o),
(224,34,c),
(178,34,l),
(187,62,o),
(316,481,o),
(322,502,c),
(329,510,l),
(329,510,o),
(401,510,o),
(401,510,c),
(407,500,l)
);
},
{
closed = 1;
nodes = (
(589,10,l),
(583,0,l),
(492,0,l),
(486,10,l),
(320,500,l),
(325,510,l),
(325,510,o),
(404,510,o),
(404,510,c),
(410,500,l),
(419,469,o),
(553,62,o),
(565,34,c),
(519,34,l),
(528,62,o),
(637,481,o),
(643,502,c),
(650,510,l),
(650,510,o),
(722,510,o),
(722,510,c),
(728,500,l)
);
}
);
};
layerId = master01;
shapes = (
{
closed = 1;
nodes = (
(281,0,l),
(290,10,l),
(320,155,o),
(363,316,o),
(400,469,c),
(372,469,l),
(411,316,o),
(466,144,o),
(495,10,c),
(500,0,l),
(618,0,l),
(625,10,l),
(671,174,o),
(701,337,o),
(747,501,c),
(742,510,l),
(666,510,l),
(660,501,l),
(640,410,o),
(589,155,o),
(557,50,c),
(573,50,l),
(552,109,o),
(471,419,o),
(452,501,c),
(444,510,l),
(332,510,l),
(325,503,l),
(304,401,o),
(231,93,o),
(216,50,c),
(232,50,l),
(186,202,o),
(151,351,o),
(117,501,c),
(111,510,l),
(20,510,l),
(15,501,l),
(69,337,o),
(110,174,o),
(155,10,c),
(162,0,l)
);
}
);
width = 762;
}
);
unicode = 119;
}
{
color = (38,219,207,255);
glyphname = x;
layers = (
{
layerId = master01;
shapes = (
{
closed = 1;
nodes = (
(455,0,l),
(460,11,l),
(333,168,o),
(194,384,o),
(140,500,c),
(130,510,l),
(23,510,l),
(18,500,l),
(119,373,o),
(261,144,o),
(338,10,c),
(348,0,l)
);
},
{
closed = 1;
nodes = (
(110,0,l),
(120,10,l),
(169.941,104.888,o),
(192,145,o),
(259,245,c),
(194,290,l),
(113,156,o),
(84.945,105.411,o),
(10,11,c),
(15,0,l)
);
},
{
closed = 1;
nodes = (
(313,318,o),
(371.053,405.444,o),
(440,500,c),
(435,510,l),
(338,510,l),
(330,500,l),
(285,405,o),
(245,334,o),
(190,259,c),
(261,225,l)
);
}
);
width = 470;
}
);
unicode = 120;
}
{
color = (38,219,207,255);
glyphname = y;
layers = (
{
anchors = (
{
name = bottom;
pos = (226,0);
},
{
name = top;
pos = (226,510);
}
);
layerId = master01;
shapes = (
{
closed = 1;
nodes = (
(190,-228,o),
(252,-187,o),
(307,9,cs),
(446,500,l),
(441,510,l),
(356,510,l),
(349,502,l),
(310,337,o),
(281,207,o),
(229,34,c),
(260,34,l),
(199,204,o),
(142.037,391.856,o),
(114,500,c),
(108,510,l),
(11,510,l),
(7,500,l),
(51,374,o),
(118,173,o),
(166,10,c),
(174,0,l),
(267,0,l),
(228,20,l),
(199.106,-91.964,o),
(154,-151,o),
(112,-151,c),
(81.118,-151,o),
(63,-145,o),
(42,-139,c),
(37,-142,l),
(17,-206,l),
(19,-210,l),
(35,-215,o),
(66,-228,o),
(110,-228,cs)
);
}
);
width = 451;
}
);
unicode = 121;
}
{
color = (38,219,207,255);
glyphname = z;
layers = (
{
anchors = (
{
name = bottom;
pos = (208,4);
},
{
name = center;
pos = (208,255);
},
{
name = top;
pos = (208,510);
}
);
layerId = master01;
shapes = (
{
closed = 1;
nodes = (
(71,2,o),
(137,4,o),
(213,4,cs),
(254,4,o),
(395,2,o),
(408,0,c),
(413,10,l),
(413,71,l),
(408,80,l),
(310,74,o),
(248,72,o),
(107,72,c),
(224,50,l),
(266,154,o),
(356,345,o),
(409,472,c),
(410,479,l),
(405,506,l),
(401,510,l),
(359,508,o),
(302,506,o),
(230,506,cs),
(185,506,o),
(66,508,o),
(51,510,c),
(46,500,l),
(46,439,l),
(51,430,l),
(146,437,o),
(184,438,o),
(312,438,c),
(211,478,l),
(170,373,o),
(91,197,o),
(21,44,c),
(20,35,l),
(24,4,l),
(30,0,l)
);
}
);
width = 433;
}
);
unicode = 122;
}
{
glyphname = bar;
layers = (
{
layerId = master01;
shapes = (
{
closed = 1;
nodes = (
(87,221,o),
(83,-138,o),
(80,-211,c),
(88,-220,l),
(169,-220,l),
(177,-211,l),
(174,-139,o),
(170,223,o),
(170,280,cs),
(170,337,o),
(174,679,o),
(177,771,c),
(169,780,l),
(88,780,l),
(80,771,l),
(83,678,o),
(87,335,o),
(87,278,cs)
);
}
);
width = 257;
}
);
unicode = 124;
}
{
color = 5;
glyphname = braceright;
layers = (
{
background = {
shapes = (
{
closed = 1;
nodes = (
(145,732,l),
(198,694,l),
(131,693,o),
(48,693,o),
(20,692,c),
(10,697,l),
(10,767,l),
(20,772,l),
(47,771,o),
(72,771,o),
(150,771,cs),
(230,771,l),
(235,761,l),
(229,648,o),
(226,479,o),
(226,311,cs),
(226,149,o),
(229,-11,o),
(235,-120,c),
(230,-130,l),
(150,-130,ls),
(72,-130,o),
(47,-130,o),
(20,-131,c),
(10,-126,l),
(10,-56,l),
(20,-51,l),
(48,-52,o),
(131,-52,o),
(198,-53,c),
(145,-82,l)
);
}
);
};
layerId = master01;
shapes = (
{
closed = 1;
nodes = (
(244,381,o),
(226,417,o),
(228,551,cs),
(231,695,o),
(208,771,o),
(48,771,c),
(40,762,l),
(40,715,l),
(49,708,l),
(138,708,o),
(146,663,o),
(146,551,cs),
(146,422,o),
(158,319,o),
(263,319,c),
(263,326,l),
(158,326,o),
(146,223,o),
(146,94,cs),
(146,-18,o),
(138,-63,o),
(49,-63,c),
(40,-70,l),
(40,-117,l),
(48,-126,l),
(208,-126,o),
(231,-50,o),
(228,94,cs),
(226,228,o),
(244,264,o),
(320,301,c),
(320,344,l)
);
}
);
width = 370;
}
);
unicode = 125;
}
{
color = (99,255,209,255);
glyphname = asciitilde;
layers = (
{
layerId = master01;
shapes = (
{
closed = 1;
nodes = (
(256,204,o),
(209,272,o),
(158,272,c),
(111,272,o),
(85,241,o),
(65,204,c),
(30,225,l),
(50,308,o),
(116,351,o),
(167,351,cs),
(236,351,o),
(292,283,o),
(340,283,c),
(384,283,o),
(412,314,o),
(432,351,c),
(467,330,l),
(447,247,o),
(381,204,o),
(330,204,c)
);
}
);
width = 497;
}
);
unicode = 126;
}
{
glyphname = exclamdown;
layers = (
{
layerId = master01;
shapes = (
{
closed = 1;
nodes = (
(64,355,l),
(42,-156,l),
(47,-166,l),
(151,-166,l),
(156,-156,l),
(135,355,l)
);
},
{
closed = 1;
nodes = (
(40,547,o),
(77,580,o),
(101,580,cs),
(125,580,o),
(162,547,o),
(162,518,cs),
(162,489,o),
(125,456,o),
(101,456,cs),
(77,456,o),
(40,489,o),
(40,518,cs)
);
}
);
width = 192;
}
);
unicode = 161;
}
{
glyphname = brokenbar;
layers = (
{
layerId = master01;
shapes = (
{
closed = 1;
nodes = (
(87,491,o),
(83,412,o),
(80,339,c),
(88,330,l),
(169,330,l),
(177,339,l),
(174,411,o),
(170,493,o),
(170,550,cs),
(170,607,o),
(174,679,o),
(177,771,c),
(169,780,l),
(88,780,l),
(80,771,l),
(83,678,o),
(87,605,o),
(87,548,cs)
);
},
{
closed = 1;
nodes = (
(87,-49,o),
(83,-138,o),
(80,-211,c),
(88,-220,l),
(169,-220,l),
(177,-211,l),
(174,-139,o),
(170,-47,o),
(170,10,cs),
(170,67,o),
(174,129,o),
(177,221,c),
(169,230,l),
(88,230,l),
(80,221,l),
(83,128,o),
(87,65,o),
(87,8,cs)
);
}
);
width = 257;
}
);
unicode = 166;
}
{
color = (99,255,209,255);
glyphname = section;
layers = (
{
anchors = (
{
name = top;
pos = (276,700);
}
);
layerId = master01;
shapes = (
{
closed = 1;
nodes = (
(364.322,117,o),
(403,174,o),
(403,236,c),
(403,373,o),
(78,340,o),
(78,551,c),
(78,647,o),
(151,710,o),
(264,710,c),
(328,710,o),
(384,701,o),
(453,683,c),
(458,676,l),
(439,592,l),
(433,588,l),
(390,603,o),
(305,630,o),
(258,630,c),
(191,630,o),
(165,592,o),
(165,547,cs),
(165,435,o),
(491,431,o),
(491,247,c),
(491,141,o),
(412,80,o),
(344,80,c),
(283,117,l)
);
},
{
closed = 1;
nodes = (
(168.071,362,o),
(121,314,o),
(121,242,cs),
(121,116,o),
(443,147,o),
(443,-44,c),
(443,-144.138,o),
(360,-220,o),
(258,-220,c),
(192,-220,o),
(140,-212,o),
(69,-200,c),
(65,-193,l),
(83,-109,l),
(90,-106,l),
(133.239,-119.072,o),
(210,-139,o),
(273,-139,c),
(324,-139,o),
(357,-107.205,o),
(357,-59,cs),
(357,58.805,o),
(33,34,o),
(33,236,cs),
(33,320,o),
(97.906,399,o),
(211,399,c),
(273,362,l)
);
}
);
width = 522;
}
);
unicode = 167;
}
{
color = (99,255,209,255);
glyphname = copyright;
layers = (
{
layerId = master01;
shapes = (
{
closed = 1;
nodes = (
(495,-10,o),
(604,110,o),
(604,302,cs),
(604,493,o),
(495,614,o),
(322,614,cs),
(149,614,o),
(40,493,o),
(40,302,cs),
(40,110,o),
(149,-10,o),
(322,-10,cs)
);
},
{
closed = 1;
nodes = (
(184,55,o),
(110,137.654,o),
(110,302,cs),
(110,464.424,o),
(184,549,o),
(322,549,cs),
(460,549,o),
(534,464.424,o),
(534,302,cs),
(534,137.654,o),
(460,55,o),
(322,55,cs)
);
},
{
closed = 1;
nodes = (
(405,396,l),
(425,441,l),
(425,445,l),
(401,459,o),
(367.308,473,o),
(325,473,cs),
(232,473,o),
(188,415,o),
(188,301,cs),
(188,184,o),
(233,131,o),
(318,131,cs),
(363,131,o),
(401,146,o),
(432,164,c),
(433,168,l),
(414,208,l),
(412,210,l),
(383,199,o),
(360,190,o),
(327,190,cs),
(277,190,o),
(255,225,o),
(255,304,cs),
(255,392,o),
(277,415,o),
(321,415,cs),
(359,415,o),
(385,403,o),
(401,396,c)
);
}
);
width = 644;
}
);
unicode = 169;
}
{
color = 5;
glyphname = guillemetleft;
layers = (
{
layerId = master01;
shapes = (
{
closed = 1;
nodes = (
(86,202,o),
(148,147,o),
(216,59,c),
(225,60,l),
(281,110,l),
(281,117,l),
(207,188,o),
(153,240,o),
(101,300,c),
(101,259,l),
(153,319,o),
(207,371,o),
(281,442,c),
(281,449,l),
(225,499,l),
(216,500,l),
(148,412,o),
(86,357,o),
(30,297,c),
(30,262,l)
);
},
{
pos = (531,0);
ref = guilsinglright;
scale = (-1,1);
}
);
width = 531;
}
);
unicode = 171;
}
{
color = (99,255,209,255);
glyphname = registered;
layers = (
{
layerId = master01;
shapes = (
{
closed = 1;
nodes = (
(323,346,o),
(389,419,o),
(389,535,cs),
(389,651,o),
(323,725,o),
(218,725,cs),
(113,725,o),
(46,651,o),
(46,535,cs),
(46,419,o),
(113,346,o),
(218,346,cs)
);
},
{
closed = 1;
nodes = (
(140,396,o),
(99,443.299,o),
(99,535,cs),
(99,626.701,o),
(140,674,o),
(218,674,cs),
(296,674,o),
(337,626.701,o),
(337,535,cs),
(337,443.299,o),
(296,396,o),
(218,396,cs)
);
},
{
closed = 1;
nodes = (
(197,451,l),
(198,454,l),
(197,478,o),
(194,509,o),
(194,546,c),
(194,581,o),
(194,594,o),
(195,618,c),
(188,596,l),
(213,596,ls),
(231,596,o),
(241,589,o),
(241,576,cs),
(241,561,o),
(231,552,o),
(214,552,cs),
(193,552,l),
(193,517,l),
(218,517,ls),
(261,517,o),
(291,541,o),
(291,576,cs),
(291,608,o),
(259,631,o),
(213,631,cs),
(153,631,l),
(152,628,l),
(153,605,o),
(155,581,o),
(155,546,c),
(155,505,o),
(153,480,o),
(152,454,c),
(153,451,l)
);
},
{
closed = 1;
nodes = (
(275,449,o),
(292,451,o),
(300,457,c),
(293,487,l),
(271,486,l),
(281,469,l),
(250,539,l),
(213,533,l),
(232,479,ls),
(240,456,o),
(251,449,o),
(267,449,cs)
);
}
);
width = 435;
}
);
unicode = 174;
}
{
glyphname = macron;
layers = (
{
anchors = (
{
name = _top;
pos = (143,510);
}
);
layerId = master01;
shapes = (
{
closed = 1;
nodes = (
(234,606,o),
(200,606,o),
(140,606,cs),
(79,606,o),
(45,606,o),
(7,604,c),
(0,610,l),
(0,682,l),
(8,687,l),
(48,686,o),
(81,685,o),
(140,685,cs),
(200,685,o),
(232,686,o),
(270,687,c),
(280,682,l),
(280,609,l),
(270,604,l)
);
}
);
width = 280;
}
);
unicode = 175;
}
{
glyphname = degree;
layers = (
{
layerId = master01;
shapes = (
{
closed = 1;
nodes = (
(220,522,o),
(261,582,o),
(261,646,cs),
(261,709,o),
(219,772,o),
(136,772,cs),
(54,772,o),
(13,709,o),
(13,646,cs),
(13,584,o),
(56,522,o),
(138,522,cs)
);
},
{
closed = 1;
nodes = (
(100,585,o),
(81,615,o),
(81,646,cs),
(81,678,o),
(99,708,o),
(134,708,cs),
(174,708,o),
(192,678,o),
(192,646,cs),
(192,612,o),
(174,585,o),
(136,585,cs)
);
}
);
width = 274;
}
);
unicode = 176;
}
{
glyphname = acute;
layers = (
{
anchors = (
{
name = _top;
pos = (99,510);
}
);
background = {
shapes = (
{
closed = 1;
nodes = (
(28,613,l),
(-1,834,l),
(7,842,l),
(118,842,l),
(126,834,l),
(97,613,l),
(91,607,l),
(34,607,l)
);
}
);
};
layerId = master01;
shapes = (
{
alignment = -1;
ref = acutecomb;
}
);
width = 236;
}
);
unicode = 180;
}
{
glyphname = paragraph;
layers = (
{
layerId = master01;
shapes = (
{
closed = 1;
nodes = (
(216,158,ls),
(216,45,o),
(162.79,-0.184,o),
(102,-63,c),
(103,-71,l),
(140,-115,l),
(147,-118,l),
(222,-60,o),
(299,-3,o),
(299,177,cs),
(299,657,l),
(264,612,l),
(291,615,o),
(315,616,o),
(341,616,cs),
(362,616,o),
(382,614,o),
(402,613,c),
(379,647,l),
(382.833,523.059,o),
(387,431,o),
(387,325,c),
(387,206,o),
(385.19,76.955,o),
(380,-90,c),
(385,-100,l),
(478,-100,l),
(483,-90,l),
(475.216,82.03,o),
(471,207,o),
(471,327,c),
(471,430,o),
(474.642,524.112,o),
(478,645,c),
(447,615,l),
(539,625,l),
(549,630,l),
(549,687,l),
(539,692,l),
(509,694,o),
(442,700,o),
(241,700,cs),
(71,700,o),
(30,590,o),
(30,499,cs),
(30,408,o),
(78,287,o),
(257,287,c),
(216,320,l)
);
}
);
width = 554;
}
);
metricRight = H;
unicode = 182;
}
{
glyphname = Ccedilla;
layers = (
{
layerId = master01;
shapes = (
{
closed = 1;
nodes = (
(247,-218,o),
(291,-223,o),
(322,-223,cs),
(426,-223,o),
(478,-193,o),
(478,-132,cs),
(478,-82,o),
(426,-55,o),
(322,-49,c),
(356,-76,l),
(370,0,l),
(310,0,l),
(292,-89,l),
(295,-91,l),
(370,-98,o),
(403,-111,o),
(403,-132,cs),
(403,-153,o),
(380,-162,o),
(328,-162,cs),
(303,-162,o),
(264,-157,o),
(232,-142,c),
(229,-142,l),
(207,-200,l),
(209,-204,l)
);
},
{
pos = (-5,0);
ref = C;
}
);
width = 598;
}
);
unicode = 199;
}
{
glyphname = multiply;
layers = (
{
layerId = master01;
shapes = (
{
closed = 1;
nodes = (
(299,288,o),
(372,208,o),
(422,154,c),
(434,153,l),
(488,207,l),
(487,219,l),
(434,268,o),
(351,344,o),
(311,384,cs),
(271,424,o),
(209,493,o),
(146,560,c),
(134,561,l),
(80,507,l),
(81,495,l),
(149,431,o),
(218,369,o),
(259,329,cs)
);
},
{
closed = 1;
nodes = (
(216,341,o),
(136,268,o),
(82,218,c),
(81,206,l),
(133,154,l),
(145,155,l),
(194,208,o),
(270,291,o),
(310,331,cs),
(351,372,o),
(419,433,o),
(486,496,c),
(487,508,l),
(435,560,l),
(423,559,l),
(359,491,o),
(297,423,o),
(256,382,cs)
);
}
);
width = 568;
}
);
unicode = 215;
}
{
color = (99,255,209,255);
glyphname = divide;
layers = (
{
layerId = master01;
shapes = (
{
closed = 1;
nodes = (
(371,320,o),
(458,315,o),
(531,312,c),
(540,320,l),
(540,394,l),
(531,402,l),
(459,399,o),
(369,394,o),
(310,394,cs),
(251,394,o),
(181,399,o),
(89,402,c),
(80,394,l),
(80,320,l),
(89,312,l),
(182,315,o),
(253,320,o),
(312,320,cs)
);
},
{
closed = 1;
nodes = (
(373,470,o),
(341,454,o),
(311,454,cs),
(280,454,o),
(249,475,o),
(249,514,cs),
(249,555,o),
(281,574,o),
(313,574,cs),
(343,574,o),
(373,552,o),
(373,514,cs)
);
},
{
closed = 1;
nodes = (
(373,157,o),
(341,141,o),
(311,141,cs),
(280,141,o),
(249,162,o),
(249,201,cs),
(249,242,o),
(281,261,o),
(313,261,cs),
(343,261,o),
(373,239,o),
(373,201,cs)
);
}
);
width = 620;
}
);
unicode = 247;
}
{
glyphname = Aogonek;
layers = (
{
anchors = (
{
name = _ogonek;
pos = (527,10);
}
);
layerId = master01;
shapes = (
{
closed = 1;
nodes = (
(445,-20,o),
(407,-85,o),
(407,-138,cs),
(407,-184,o),
(435,-221,o),
(489,-221,cs),
(511,-221,o),
(537,-215,o),
(568,-201,c),
(572,-194,l),
(561,-145,l),
(555,-140,l),
(514,-145,o),
(497,-127,o),
(497,-101,cs),
(497,-71,o),
(520,-31,o),
(555,0,c),
(521,11,l)
);
},
{
pos = (-5,0);
ref = A;
}
);
width = 581;
}
);
unicode = 260;
}
{
glyphname = aogonek;
layers = (
{
anchors = (
{
name = _ogonek;
pos = (478,10);
}
);
layerId = master01;
shapes = (
{
closed = 1;
nodes = (
(378,-20,o),
(337,-75,o),
(337,-128,cs),
(337,-174,o),
(365,-211,o),
(419,-211,cs),
(441,-211,o),
(467,-205,o),
(498,-191,c),
(485,-130,l),
(444,-135,o),
(427,-117,o),
(427,-91,cs),
(427,-61,o),
(453,-31,o),
(488,0,c),
(454,11,l)
);
},
{
ref = a;
}
);
width = 532;
}
);
unicode = 261;
}
{
glyphname = idotless;
layers = (
{
anchors = (
{
name = bottom;
pos = (140,0);
},
{
name = ogonek;
pos = (193,10);
},
{
name = top;
pos = (130,510);
}
);
layerId = master01;
shapes = (
{
closed = 1;
nodes = (
(205,0,l),
(210,10,l),
(201,86,o),
(200,195,o),
(200,275,cs),
(200,458,ls),
(200,499,o),
(186,520,o),
(144,520,cs),
(115,520,o),
(66,510,o),
(40,504,c),
(47,438,l),
(124,443,l),
(105,472,l),
(112,423,o),
(115,335,o),
(115,275,cs),
(115,202,o),
(113,79,o),
(105,10,c),
(110,0,l)
);
}
);
width = 280;
}
);
unicode = 305;
}
{
glyphname = Scedilla;
layers = (
{
layerId = master01;
shapes = (
{
closed = 1;
nodes = (
(201,-223,o),
(232,-223,cs),
(336,-223,o),
(388,-193,o),
(388,-132,cs),
(388,-82,o),
(336,-55,o),
(232,-49,c),
(266,-76,l),
(280,0,l),
(220,0,l),
(202,-89,l),
(205,-91,l),
(280,-98,o),
(313,-111,o),
(313,-132,cs),
(313,-153,o),
(290,-162,o),
(238,-162,cs),
(213,-162,o),
(174,-157,o),
(142,-142,c),
(139,-142,l),
(117,-200,l),
(119,-204,l),
(157,-218,o)
);
},
{
pos = (-5,0);
ref = S;
}
);
width = 515;
}
);
unicode = 350;
}
{
glyphname = tcaron;
layers = (
{
layerId = master01;
shapes = (
{
closed = 1;
nodes = (
(337,563,l),
(347,570,l),
(354,650,o),
(357,697,o),
(368,771,c),
(363,781,l),
(274,781,l),
(269,771,l),
(281,570,l),
(290,563,l)
);
},
{
pos = (-5,0);
ref = t;
}
);
width = 383;
}
);
metricRight = "=t";
unicode = 357;
}
{
glyphname = Uogonek;
layers = (
{
anchors = (
{
name = bottom;
pos = (332,0);
},
{
name = ogonek;
pos = (410,3);
},
{
name = top;
pos = (332,700);
},
{
name = topright;
pos = (648,700);
}
);
layerId = master01;
shapes = (
{
closed = 1;
nodes = (
(355,-34,o),
(314,-92,o),
(314,-144,c),
(314,-189,o),
(343,-220,o),
(393,-220,c),
(440,-220,o),
(469,-196,o),
(497,-167,c),
(479,-145,l),
(461,-153,o),
(446,-158,o),
(426,-158,c),
(403,-158,o),
(388,-145,o),
(388,-117,cs),
(388,-82,o),
(410,-38,o),
(448,0,c),
(528,55,o),
(583,114,o),
(583,306,cs),
(583,433,o),
(587,561,o),
(593,690,c),
(584,700,l),
(490,700,l),
(481,691,l),
(487,557,o),
(488,422,o),
(488,287,cs),
(488,154,o),
(443,79,o),
(334,79,cs),
(223,79,o),
(179,154,o),
(179,296,cs),
(179,444,o),
(181,561,o),
(186,691,c),
(177,700,l),
(79,700,l),
(70,690,l),
(75,562,o),
(80,434,o),
(80,306,cs),
(80,84,o),
(164,-11,o),
(332,-11,cs),
(384,-11,o),
(421,5,o),
(439,9,c),
(419,9,l)
);
}
);
width = 663;
}
);
unicode = 370;
}
{
glyphname = uogonek;
layers = (
{
anchors = (
{
name = _ogonek;
pos = (482,9);
}
);
layerId = master01;
shapes = (
{
closed = 1;
nodes = (
(411,-19,o),
(374,-76,o),
(374,-129,cs),
(374,-175,o),
(402,-212,o),
(456,-212,cs),
(478,-212,o),
(504,-206,o),
(535,-192,c),
(522,-131,l),
(481,-136,o),
(464,-118,o),
(464,-92,cs),
(464,-62,o),
(486,-30,o),
(521,1,c),
(487,12,l)
);
},
{
ref = u;
}
);
width = 565;
}
);
unicode = 371;
}
{
glyphname = jdotless;
layers = (
{
anchors = (
{
name = bottom;
pos = (138,-220);
},
{
name = top;
pos = (138,510);
}
);
layerId = master01;
shapes = (
{
closed = 1;
nodes = (
(119,-226,o),
(202,-187,o),
(202,-59,cs),
(202,245,ls),
(202,308,o),
(205,394,o),
(206,457,cs),
(206,498,o),
(192,519,o),
(150,519,cs),
(121,519,o),
(72,509,o),
(46,503,c),
(53,437,l),
(157,444,l),
(111,462,l),
(113,416,o),
(117,306,o),
(117,245,cs),
(117,-41,ls),
(117,-133,o),
(76,-159,o),
(31,-159,cs),
(23,-159,o),
(15,-158,o),
(6,-157,c),
(1,-159,l),
(-11,-216,l),
(-8,-220,l),
(8,-224,o),
(25,-226,o),
(43,-226,cs)
);
}
);
width = 276;
}
);
unicode = 567;
}
{
color = (38,219,207,255);
glyphname = caron;
layers = (
{
anchors = (
{
name = _top;
pos = (184,516);
}
);
layerId = master01;
shapes = (
{
closed = 1;
nodes = (
(206,620,l),
(174,673,o),
(141,713,o),
(99,789,c),
(88,789,l),
(34,757,l),
(34,745,l),
(77,689,o),
(121,628,o),
(162,569,c),
(209,569,l),
(249,631,o),
(287,680,o),
(339,751,c),
(338,760,l),
(286,789,l),
(275,789,l),
(230,708,o),
(209,683,o),
(170,620,c)
);
}
);
width = 366;
}
);
unicode = 711;
}
{
glyphname = breve;
layers = (
{
anchors = (
{
name = _top;
pos = (293,517);
}
);
layerId = master01;
shapes = (
{
closed = 1;
nodes = (
(176,579,o),
(139,683,o),
(139,757,c),
(188,764,l),
(206,703,o),
(236,648,o),
(295,648,cs),
(354,648,o),
(384,703,o),
(402,764,c),
(451,757,l),
(451,683,o),
(414,579,o),
(295,579,cs)
);
}
);
width = 600;
}
);
unicode = 728;
}
{
glyphname = ogonek;
layers = (
{
anchors = (
{
name = _ogonek;
pos = (410,0);
}
);
layerId = master01;
shapes = (
{
closed = 1;
nodes = (
(309.125,-33.916,o),
(268,-92,o),
(268,-144,c),
(268,-189,o),
(297,-220,o),
(347,-220,c),
(393.654,-220,o),
(423,-196,o),
(451,-167,c),
(433,-145,l),
(415,-153,o),
(399.745,-158,o),
(380,-158,c),
(357,-158,o),
(342,-144.735,o),
(342,-117,cs),
(342,-82,o),
(364,-38,o),
(402,0,c),
(373,9,l)
);
}
);
width = 600;
}
);
unicode = 731;
}
{
glyphname = tilde;
layers = (
{
anchors = (
{
name = _top;
pos = (183,520);
}
);
background = {
shapes = (
{
closed = 1;
nodes = (
(136,623,o),
(98,601,o),
(69,583,c),
(41,608,l),
(63,646,o),
(110,708,o),
(160,708,cs),
(183,708,o),
(249,664,o),
(270,664,cs),
(289,664,o),
(326,686,o),
(355,703,c),
(383,679,l),
(361,642,o),
(313,578,o),
(263,578,cs),
(243,578,o),
(180,623,o),
(155,623,cs)
);
}
);
};
layerId = master01;
shapes = (
{
alignment = -1;
ref = tildecomb;
}
);
width = 366;
}
);
unicode = 732;
}
{
color = (38,219,207,255);
glyphname = hungarumlaut;
layers = (
{
anchors = (
{
name = _top;
pos = (113,510);
}
);
layerId = master01;
shapes = (
{
closed = 1;
nodes = (
(195,555,l),
(341,747,l),
(338,756,l),
(266,799,l),
(256,797,l),
(146,583,l),
(148,575,l),
(188,551,l)
);
},
{
closed = 1;
nodes = (
(11,555,l),
(157,747,l),
(154,756,l),
(82,799,l),
(72,797,l),
(-38,583,l),
(-36,575,l),
(4,551,l)
);
}
);
width = 371;
}
);
unicode = 733;
}
{
glyphname = gravecomb;
layers = (
{
anchors = (
{
name = _top;
pos = (166,510);
}
);
layerId = master01;
shapes = (
{
closed = 1;
nodes = (
(235,605,l),
(236,613,l),
(77,813,l),
(67,813,l),
(2,752,l),
(0,742,l),
(189,571,l),
(196,569,l)
);
}
);
width = 236;
}
);
unicode = 768;
}
{
glyphname = acutecomb;
layers = (
{
anchors = (
{
name = _top;
pos = (88,510);
}
);
layerId = master01;
shapes = (
{
closed = 1;
nodes = (
(47,571,l),
(236,742,l),
(234,752,l),
(169,813,l),
(159,813,l),
(0,613,l),
(1,605,l),
(40,569,l)
);
}
);
width = 236;
}
);
unicode = 769;
}
{
color = (38,219,207,255);
glyphname = circumflexcomb;
layers = (
{
anchors = (
{
name = _top;
pos = (153,517);
}
);
layerId = master01;
shapes = (
{
closed = 1;
nodes = (
(133,737,l),
(165,684,o),
(196,646,o),
(240,569,c),
(251,569,l),
(305,601,l),
(305,613,l),
(262,669,o),
(218,730,o),
(177,789,c),
(130,789,l),
(90,727,o),
(52,678,o),
(0,607,c),
(1,598,l),
(53,569,l),
(64,569,l),
(109,644,o),
(130,674,o),
(169,737,c)
);
}
);
width = 308;
}
);
unicode = 770;
}
{
color = (38,219,207,255);
glyphname = tildecomb;
layers = (
{
anchors = (
{
name = _top;
pos = (186,510);
}
);
layerId = master01;
shapes = (
{
closed = 1;
nodes = (
(306,579,o),
(353.632,625.165,o),
(344,708,c),
(304,708,l),
(299,679,o),
(281,659,o),
(252,659,c),
(218,659,o),
(178,710,o),
(116,710,c),
(71,710,o),
(20.332,663.826,o),
(29,581,c),
(69,581,l),
(79,610,o),
(87,630,o),
(119,630,cs),
(161,630,o),
(195,579,o),
(260,579,c)
);
}
);
width = 366;
}
);
unicode = 771;
}
{
color = (38,219,207,255);
glyphname = dotaccentcomb;
layers = (
{
anchors = (
{
name = _top;
pos = (72,510);
}
);
layerId = master01;
shapes = (
{
closed = 1;
nodes = (
(90,632,o),
(138,639,o),
(138,687,cs),
(138,716,o),
(126,765,o),
(81,765,cs),
(55,765,o),
(5,755,o),
(5,709,cs),
(5,676,o),
(17,632,o),
(64,632,cs)
);
}
);
width = 143;
}
);
unicode = 775;
}
{
color = (38,219,207,255);
glyphname = dieresiscomb;
layers = (
{
anchors = (
{
name = _top;
pos = (204,510);
}
);
layerId = master01;
shapes = (
{
closed = 1;
nodes = (
(322,592,o),
(369,600,o),
(369,648,cs),
(369,677,o),
(358,725,o),
(312,725,cs),
(287,725,o),
(236,716,o),
(236,669,cs),
(236,637,o),
(249,592,o),
(296,592,cs)
);
},
{
closed = 1;
nodes = (
(125,592,o),
(173,600,o),
(173,648,cs),
(173,677,o),
(161,725,o),
(115,725,cs),
(90,725,o),
(40,716,o),
(40,669,cs),
(40,637,o),
(52,592,o),
(100,592,cs)
);
}
);
width = 409;
}
);
unicode = 776;
}
{
color = (38,219,207,255);
glyphname = ringcomb;
layers = (
{
anchors = (
{
name = _top;
pos = (124,510);
}
);
layerId = master01;
shapes = (
{
closed = 1;
nodes = (
(238,732,o),
(194,774,o),
(124,774,cs),
(54,774,o),
(10,732,o),
(10,664,cs),
(10,596,o),
(54,554,o),
(124,554,cs),
(194,554,o),
(238,596,o),
(238,664,cs)
);
},
{
closed = 1;
nodes = (
(176,628,o),
(160,612,o),
(124,612,cs),
(89,612,o),
(74,628,o),
(74,664,cs),
(74,700,o),
(89,716,o),
(124,716,cs),
(160,716,o),
(176,700,o),
(176,664,cs)
);
}
);
width = 248;
}
);
unicode = 778;
}
{
glyphname = commaaccentcomb;
layers = (
{
anchors = (
{
name = _bottom;
pos = (60,0);
}
);
layerId = master01;
shapes = (
{
closed = 1;
nodes = (
(120,-156,o),
(89,-205,o),
(56,-262,c),
(49,-262,l),
(20,-249,l),
(18,-243,l),
(26,-215,o),
(25,-198,o),
(25,-179,cs),
(25,-147,o),
(0,-132,o),
(0,-105,cs),
(0,-83,o),
(35,-43,o),
(59,-43,cs),
(83,-43,o),
(120,-83,o),
(120,-105,cs)
);
}
);
width = 120;
}
);
unicode = 806;
}
{
glyphname = cedillacomb;
layers = (
{
anchors = (
{
name = _bottom;
pos = (117,0);
}
);
layerId = master01;
shapes = (
{
closed = 1;
nodes = (
(74,-223,o),
(105,-223,cs),
(195,-223,o),
(251,-188,o),
(251,-132,cs),
(251,-86,o),
(195,-54,o),
(105,-49,c),
(139,-76,l),
(153,0,l),
(93,0,l),
(75,-89,l),
(78,-91,l),
(144,-97,o),
(176,-110,o),
(176,-132,cs),
(176,-152,o),
(154,-162,o),
(111,-162,cs),
(86,-162,o),
(57,-157,o),
(25,-142,c),
(22,-142,l),
(0,-200,l),
(2,-204,l),
(40,-218,o)
);
}
);
width = 251;
}
);
unicode = 807;
}
{
color = 5;
glyphname = endash;
layers = (
{
layerId = master01;
shapes = (
{
closed = 1;
nodes = (
(376,275,o),
(311,275,o),
(247,275,cs),
(183,275,o),
(119,275,o),
(57,273,c),
(50,279,l),
(50,346,l),
(58,351,l),
(120,350,o),
(184,349,o),
(248,349,cs),
(312,349,o),
(376,350,o),
(437,351,c),
(447,346,l),
(447,278,l),
(437,273,l)
);
}
);
width = 497;
}
);
unicode = 8211;
}
{
color = 5;
glyphname = emdash;
layers = (
{
layerId = master01;
shapes = (
{
closed = 1;
nodes = (
(646,273,o),
(514,273,o),
(382,273,cs),
(250,273,o),
(119,273,o),
(57,271,c),
(50,277,l),
(50,348,l),
(58,353,l),
(120,352,o),
(251,351,o),
(383,351,cs),
(514,351,o),
(646,352,o),
(707,353,c),
(717,348,l),
(717,276,l),
(707,271,l)
);
}
);
width = 767;
}
);
unicode = 8212;
}
{
glyphname = quoteleft;
layers = (
{
layerId = master01;
shapes = (
{
closed = 1;
nodes = (
(80,524,o),
(118,607,o),
(161,710,c),
(168,710,l),
(197,697,l),
(200,691,l),
(185,634,o),
(180,595,o),
(180,567,cs),
(180,512,o),
(200,500,o),
(200,473,cs),
(200,451,o),
(165,411,o),
(141,411,cs),
(117,411,o),
(80,451,o),
(80,473,cs)
);
}
);
width = 230;
}
);
unicode = 8216;
}
{
glyphname = quoteright;
layers = (
{
layerId = master01;
shapes = (
{
closed = 1;
nodes = (
(150,667,o),
(112,584,o),
(69,481,c),
(62,481,l),
(33,494,l),
(30,500,l),
(45,557,o),
(50,596,o),
(50,624,cs),
(50,679,o),
(30,691,o),
(30,718,cs),
(30,740,o),
(65,780,o),
(89,780,cs),
(113,780,o),
(150,740,o),
(150,718,cs)
);
}
);
width = 230;
}
);
unicode = 8217;
}
{
glyphname = quotedblleft;
layers = (
{
background = {
shapes = (
{
closed = 1;
nodes = (
(369,456,o),
(398,483,o),
(398,526,cs),
(398,574,o),
(343,616,o),
(278,579,c),
(315,560,l),
(315,621,o),
(363,690,o),
(387,726,c),
(354,751,l),
(302,694,o),
(258,620,o),
(258,541,cs),
(258,489,o),
(285,456,o),
(328,456,cs)
);
},
{
closed = 1;
nodes = (
(199,456,o),
(228,483,o),
(228,526,cs),
(228,574,o),
(173,616,o),
(108,579,c),
(145,560,l),
(145,621,o),
(193,690,o),
(217,726,c),
(184,751,l),
(132,694,o),
(88,620,o),
(88,541,cs),
(88,489,o),
(115,456,o),
(158,456,cs)
);
}
);
};
layerId = master01;
shapes = (
{
closed = 1;
nodes = (
(250,524,o),
(288,607,o),
(331,710,c),
(338,710,l),
(367,697,l),
(370,691,l),
(355,634,o),
(350,595,o),
(350,567,cs),
(350,512,o),
(370,500,o),
(370,473,cs),
(370,451,o),
(335,411,o),
(311,411,cs),
(287,411,o),
(250,451,o),
(250,473,cs)
);
},
{
closed = 1;
nodes = (
(80,524,o),
(118,607,o),
(161,710,c),
(168,710,l),
(197,697,l),
(200,691,l),
(185,634,o),
(180,595,o),
(180,567,cs),
(180,512,o),
(200,500,o),
(200,473,cs),
(200,451,o),
(165,411,o),
(141,411,cs),
(117,411,o),
(80,451,o),
(80,473,cs)
);
}
);
width = 400;
}
);
unicode = 8220;
}
{
glyphname = quotedblright;
layers = (
{
background = {
shapes = (
{
closed = 1;
nodes = (
(284,542,o),
(328,616,o),
(328,695,cs),
(328,747,o),
(301,780,o),
(258,780,cs),
(217,780,o),
(188,753,o),
(188,710,cs),
(188,662,o),
(243,620,o),
(308,657,c),
(271,676,l),
(271,615,o),
(223,546,o),
(199,510,c),
(232,485,l)
);
},
{
closed = 1;
nodes = (
(114,542,o),
(158,616,o),
(158,695,cs),
(158,747,o),
(131,780,o),
(88,780,cs),
(47,780,o),
(18,753,o),
(18,710,cs),
(18,662,o),
(73,620,o),
(138,657,c),
(101,676,l),
(101,615,o),
(53,546,o),
(29,510,c),
(62,485,l)
);
}
);
};
layerId = master01;
shapes = (
{
closed = 1;
nodes = (
(150,667,o),
(112,584,o),
(69,481,c),
(62,481,l),
(33,494,l),
(30,500,l),
(45,557,o),
(50,596,o),
(50,624,cs),
(50,679,o),
(30,691,o),
(30,718,cs),
(30,740,o),
(65,780,o),
(89,780,cs),
(113,780,o),
(150,740,o),
(150,718,cs)
);
},
{
closed = 1;
nodes = (
(320,667,o),
(282,584,o),
(239,481,c),
(232,481,l),
(203,494,l),
(200,500,l),
(215,557,o),
(220,596,o),
(220,624,cs),
(220,679,o),
(200,691,o),
(200,718,cs),
(200,740,o),
(235,780,o),
(259,780,cs),
(283,780,o),
(320,740,o),
(320,718,cs)
);
}
);
width = 400;
}
);
unicode = 8221;
}
{
color = 5;
glyphname = bullet;
layers = (
{
layerId = master01;
shapes = (
{
closed = 1;
nodes = (
(323,242,o),
(250,175,o),
(202,175,cs),
(155,175,o),
(80,241,o),
(80,299,cs),
(80,357,o),
(155,423,o),
(202,423,cs),
(250,423,o),
(323,358,o),
(323,300,cs)
);
}
);
width = 403;
}
);
unicode = 8226;
}
{
color = 5;
glyphname = guilsinglright;
layers = (
{
layerId = master01;
shapes = (
{
closed = 1;
nodes = (
(281,297,l),
(225,357,o),
(163,412,o),
(95,500,c),
(86,499,l),
(30,449,l),
(30,442,l),
(104,371,o),
(158,319,o),
(210,259,c),
(210,300,l),
(158,240,o),
(104,188,o),
(30,117,c),
(30,110,l),
(86,60,l),
(95,59,l),
(163,147,o),
(225,202,o),
(281,262,c)
);
}
);
width = 311;
}
);
unicode = 8250;
}
{
color = (99,255,209,255);
glyphname = trademark;
layers = (
{
layerId = master01;
shapes = (
{
closed = 1;
nodes = (
(171,428,l),
(173,431,l),
(171,473,o),
(171,515,o),
(171,564,cs),
(171,626.237,o),
(171,667.424,o),
(171,672,c),
(127,672,l),
(127,667.424,o),
(127,627.153,o),
(127,564,cs),
(127,514,o),
(127,473,o),
(124,431,c),
(127,428,l)
);
},
{
closed = 1;
nodes = (
(85,656,o),
(100,657,o),
(148,657,cs),
(197,657,o),
(210,656,o),
(241,653,c),
(245,655,l),
(245,698,l),
(241,700,l),
(218,699,o),
(172,698,o),
(148,698,cs),
(124,698,o),
(78,699,o),
(54,700,c),
(50,698,l),
(50,655,l),
(54,653,l)
);
},
{
closed = 1;
nodes = (
(281,429,l),
(283,433,l),
(288.768,511.827,o),
(302.496,591.508,o),
(315,680,c),
(294,680,l),
(313.023,632.442,o),
(352.071,497.669,o),
(366,433,c),
(368,429,l),
(415,429,l),
(418,433,l),
(430.923,492.647,o),
(466.072,618.343,o),
(479,680,c),
(465,680,l),
(474,616,o),
(487,525,o),
(498,433,c),
(501,429,l),
(543,429,l),
(545,433,l),
(534.04,497.762,o),
(510.981,630.251,o),
(506,697,c),
(500,700,l),
(445,700,l),
(443,697,l),
(429.056,619.312,o),
(404.786,535.097,o),
(386,456,c),
(405,456,l),
(382.297,536.941,o),
(356.933,617.316,o),
(340,697,c),
(338,700,l),
(281,700,l),
(278,697,l),
(272.022,625.27,o),
(252.459,506.061,o),
(239,433,c),
(241,429,l)
);
}
);
width = 595;
}
);
unicode = 8482;
}
{
color = (24,168,171,255);
glyphname = upArrow;
layers = (
{
layerId = master01;
shapes = (
{
closed = 1;
nodes = (
(270,617,l),
(270,537,o),
(265,134,o),
(262,9,c),
(270,0,l),
(344,0,l),
(352,9,l),
(348,135,o),
(344,537,o),
(344,617,c)
);
},
{
closed = 1;
nodes = (
(291,624,l),
(357,539,o),
(440,436,o),
(515,340,c),
(527,339,l),
(583,390,l),
(582,402,l),
(493,493,o),
(392,598,o),
(322,675,c),
(291,675,l),
(221,598,o),
(120,493,o),
(31,402,c),
(30,390,l),
(86,339,l),
(98,340,l),
(173,436,o),
(256,539,o),
(322,624,c)
);
}
);
width = 613;
}
);
unicode = 8593;
}
{
color = (24,168,171,255);
glyphname = rightArrow;
layers = (
{
layerId = master01;
shapes = (
{
closed = 1;
nodes = (
(506,394,l),
(447,394,o),
(151,399,o),
(59,402,c),
(50,394,l),
(50,320,l),
(59,312,l),
(152,315,o),
(447,320,o),
(506,320,c)
);
},
{
closed = 1;
nodes = (
(513,376,l),
(450,295,o),
(382,214,o),
(300,120,c),
(299,108,l),
(359,63,l),
(371,64,l),
(437,168,o),
(511,276,o),
(564,345,c),
(564,374,l),
(511,443,o),
(437,551,o),
(371,655,c),
(359,656,l),
(299,611,l),
(300,599,l),
(382,505,o),
(450,424,o),
(513,343,c)
);
}
);
width = 614;
}
);
unicode = 8594;
}
{
color = (99,255,209,255);
glyphname = leftRightArrow;
layers = (
{
background = {
shapes = (
{
closed = 1;
nodes = (
(597,356,l),
(545,311,o),
(490,265,o),
(434,213,c),
(433,202,l),
(480,156,l),
(491,156,l),
(652,328,l),
(651,360,l),
(490,528,l),
(479,529,l),
(433,484,l),
(434,472,l),
(485,424,o),
(547,369,o),
(596,328,c)
);
},
{
closed = 1;
nodes = (
(-29,329,l),
(23,374,o),
(78,420,o),
(134,472,c),
(135,483,l),
(88,529,l),
(77,529,l),
(-84,357,l),
(-83,325,l),
(78,157,l),
(89,156,l),
(135,201,l),
(134,213,l),
(83,261,o),
(21,316,o),
(-28,357,c)
);
},
{
closed = 1;
nodes = (
(559,378,o),
(9,378,o),
(-22,378,c),
(-21,308,l),
(7,307,o),
(553,307,o),
(590,307,c),
(589,377,l)
);
}
);
};
layerId = master01;
shapes = (
{
closed = 1;
nodes = (
(563,365,l),
(515,316,o),
(454,267,o),
(396,218,c),
(395,206,l),
(447,159,l),
(459,160,l),
(507,217,o),
(575,292,o),
(614,341,c),
(614,374,l),
(575,423,o),
(507,498,o),
(459,555,c),
(447,556,l),
(395,509,l),
(396,497,l),
(454,448,o),
(514,398,o),
(563,348,c)
);
},
{
closed = 1;
nodes = (
(130,398,o),
(190,448,o),
(248,497,c),
(249,509,l),
(197,556,l),
(185,555,l),
(137,498,o),
(69,423,o),
(30,374,c),
(30,341,l),
(69,292,o),
(137,217,o),
(185,160,c),
(197,159,l),
(249,206,l),
(248,218,l),
(190,267,o),
(129,316,o),
(81,365,c),
(81,348,l)
);
},
{
closed = 1;
nodes = (
(268,386,o),
(118,391,o),
(88,391,c),
(88,323,l),
(118,323,o),
(268,328,o),
(315,328,cs),
(365.018,329,o),
(524.069,323,o),
(556,323,c),
(556,391,l),
(524.069,391,o),
(364.018,385,o),
(315,386,cs)
);
}
);
width = 644;
}
);
unicode = 8596;
}
{
color = (99,255,209,255);
glyphname = upDownArrow;
layers = (
{
layerId = master01;
shapes = (
{
closed = 1;
nodes = (
(221,653,l),
(270,605,o),
(319,544,o),
(368,486,c),
(380,485,l),
(427,537,l),
(426,549,l),
(369,597,o),
(294,665,o),
(245,704,c),
(212,704,l),
(163,665,o),
(88,597,o),
(31,549,c),
(30,537,l),
(77,485,l),
(89,486,l),
(138,544,o),
(188,604,o),
(238,653,c)
);
},
{
closed = 1;
nodes = (
(188,100,o),
(138,160,o),
(89,218,c),
(77,219,l),
(30,167,l),
(31,155,l),
(88,107,o),
(163,39,o),
(212,0,c),
(245,0,l),
(294,39,o),
(369,107,o),
(426,155,c),
(427,167,l),
(380,219,l),
(368,218,l),
(319,160,o),
(270,99,o),
(221,51,c),
(238,51,l)
);
},
{
closed = 1;
nodes = (
(199,229,o),
(195,96,o),
(195,58,c),
(263,58,l),
(263,96,o),
(258,230,o),
(258,345,cs),
(258,460,o),
(263,606,o),
(263,646,c),
(195,646,l),
(195,606,o),
(201,461,o),
(200,345,cs)
);
}
);
width = 457;
}
);
unicode = 8597;
}
{
glyphname = northEastArrow;
layers = (
{
layerId = master01;
shapes = (
{
closed = 1;
nodes = (
(372,524,l),
(330,483,o),
(118,277,o),
(50,214,c),
(50,202,l),
(102,150,l),
(114,150,l),
(178,218,o),
(383,430,o),
(425,472,c)
);
},
{
closed = 1;
nodes = (
(393,514,l),
(388,442,o),
(382,367,o),
(379,287,c),
(386,278,l),
(455,278,l),
(463,287,l),
(455,534,l),
(431,557,l),
(186,563,l),
(177,555,l),
(177,487,l),
(186,479,l),
(260,481,o),
(347,487,o),
(413,493,c)
);
}
);
width = 513;
}
);
unicode = 8599;
}
{
glyphname = minus;
layers = (
{
layerId = master01;
shapes = (
{
closed = 1;
nodes = (
(371,320,o),
(458,315,o),
(531,312,c),
(540,320,l),
(540,394,l),
(531,402,l),
(459,399,o),
(369,394,o),
(310,394,cs),
(251,394,o),
(181,399,o),
(89,402,c),
(80,394,l),
(80,320,l),
(89,312,l),
(182,315,o),
(253,320,o),
(312,320,cs)
);
}
);
width = 620;
}
);
unicode = 8722;
}
{
color = (24,168,171,255);
glyphname = notequal;
layers = (
{
layerId = master01;
shapes = (
{
closed = 1;
nodes = (
(371,420,o),
(458,415,o),
(531,412,c),
(540,420,l),
(540,494,l),
(531,502,l),
(459,499,o),
(369,494,o),
(310,494,cs),
(251,494,o),
(181,499,o),
(89,502,c),
(80,494,l),
(80,420,l),
(89,412,l),
(182,415,o),
(253,420,o),
(312,420,cs)
);
},
{
closed = 1;
nodes = (
(371,240,o),
(458,235,o),
(531,232,c),
(540,240,l),
(540,314,l),
(531,322,l),
(459,319,o),
(369,314,o),
(310,314,cs),
(251,314,o),
(181,319,o),
(89,322,c),
(80,314,l),
(80,240,l),
(89,232,l),
(182,235,o),
(253,240,o),
(312,240,cs)
);
},
{
closed = 1;
nodes = (
(261,95,l),
(269,105,l),
(428,621,l),
(424,629,l),
(350,629,l),
(343,622,l),
(184,105,l),
(186,95,l)
);
}
);
width = 600;
}
);
unicode = 8800;
}
{
color = (99,255,209,255);
glyphname = greaterequal;
layers = (
{
layerId = master01;
shapes = (
{
closed = 1;
nodes = (
(368,54,o),
(434,49,o),
(507,46,c),
(516,54,l),
(516,128,l),
(507,136,l),
(435,133,o),
(366,128,o),
(307,128,cs),
(258,128,o),
(207,133,o),
(115,136,c),
(106,128,l),
(106,54,l),
(115,46,l),
(208,49,o),
(260,54,o),
(309,54,cs)
);
},
{
closed = 1;
nodes = (
(354,346,o),
(242,311,o),
(109,270,c),
(102,263,l),
(105,193,l),
(112,189,l),
(248,239,o),
(374,285,o),
(510,325,c),
(519,335,l),
(516,420,l),
(507,430,l),
(371,470,o),
(245,516,o),
(109,566,c),
(102,562,l),
(99,492,l),
(106,485,l),
(239,444,o),
(354,411,o),
(487,365,c),
(484,390,l)
);
}
);
width = 600;
}
);
unicode = 8805;
}
{
glyphname = Saltillo;
layers = (
{
layerId = master01;
shapes = (
{
closed = 1;
nodes = (
(76,273,l),
(123,273,l),
(132,280,l),
(131,420,o),
(139,557,o),
(154,691,c),
(149,701,l),
(50,701,l),
(45,691,l),
(44,557,o),
(51,420,o),
(66,280,c)
);
}
);
width = 199;
}
);
unicode = 42891;
}
{
glyphname = saltillo;
layers = (
{
layerId = master01;
shapes = (
{
closed = 1;
nodes = (
(76,352,l),
(123,352,l),
(132,359,l),
(131,499,o),
(139,636,o),
(154,770,c),
(149,780,l),
(50,780,l),
(45,770,l),
(44,636,o),
(51,499,o),
(66,359,c)
);
}
);
width = 199;
}
);
unicode = 42892;
}
{
color = (24,168,171,255);
glyphname = J.alt;
layers = (
{
layerId = master01;
shapes = (
{
closed = 1;
nodes = (
(1,-130,l),
(38,-191,l),
(41,-194,l),
(176,-135,o),
(233,-49,o),
(232,48,cs),
(229,310,ls),
(227.637,428.996,o),
(231,546,o),
(236,660,c),
(226,670,l),
(147,670,l),
(137,660,l),
(141,575,o),
(144,487,o),
(143,398,cs),
(141,59,ls),
(140,-26,o),
(68,-81,o),
(4,-128,c)
);
},
{
closed = 1;
nodes = (
(68.733,619.04,o),
(105.45,622,o),
(185,622,cs),
(262,622,o),
(295,617,o),
(332,617,c),
(342,622,l),
(342,695,l),
(332,700,l),
(296,699,o),
(239,697,o),
(184,697,cs),
(127.9,697,o),
(70.779,698.98,o),
(31,700,c),
(21,695,l),
(21,622,l),
(31,617,l)
);
}
);
width = 348;
}
);
}
{
color = (24,168,171,255);
glyphname = Q.alt;
layers = (
{
layerId = master01;
shapes = (
{
closed = 1;
nodes = (
(548,-10,o),
(660,122,o),
(660,345,cs),
(660,578,o),
(548,710,o),
(365,710,cs),
(182,710,o),
(70,578,o),
(70,345,cs),
(70,122,o),
(182,-10,o),
(365,-10,cs)
);
},
{
closed = 1;
nodes = (
(629,-47,l),
(629,-29,l),
(388,260,l),
(380,262,l),
(334,233,l),
(331,225,l),
(534,-106,l),
(552,-106,l)
);
},
{
closed = 1;
nodes = (
(240,80,o),
(170,171,o),
(170,345,cs),
(170,529,o),
(240,620,o),
(365,620,cs),
(490,620,o),
(560,529,o),
(560,345,cs),
(560,171,o),
(490,80,o),
(365,80,cs)
);
}
);
width = 730;
}
);
}
{
color = (24,168,171,255);
glyphname = Y.alt;
layers = (
{
layerId = master01;
shapes = (
{
closed = 1;
nodes = (
(430,110,o),
(334,110,cs),
(230,110,o),
(179,171,o),
(179,296,cs),
(179,461,o),
(181,570,o),
(186,691,c),
(177,700,l),
(79,700,l),
(70,690,l),
(75,571,o),
(80,453,o),
(80,306,cs),
(80,106,o),
(167,20,o),
(307,20,cs),
(421,20,o),
(481,95,o),
(509,199,c),
(445,128,l),
(520,128,l),
(486,151,l),
(486,-29,o),
(430,-128,o),
(312,-128,cs),
(233,-128,o),
(181,-103,o),
(102,-64,c),
(94,-64,l),
(54,-143,l),
(58,-150,l),
(133,-189,o),
(207,-220,o),
(311,-220,cs),
(505,-220,o),
(583,-85,o),
(583,174,cs),
(583,276,ls),
(583,433,o),
(587,561,o),
(593,690,c),
(584,700,l),
(486,700,l),
(477,691,l),
(481.127,590.916,o),
(484,489.79,o),
(484,367,c),
(484,187.966,o)
);
}
);
width = 650;
}
);
}
{
color = (99,255,209,255);
glyphname = .notdef;
layers = (
{
background = {
shapes = (
{
closed = 1;
nodes = (
(352,-49,o),
(333,-35,o),
(332,-8,cs),
(332,6,o),
(338,17,o),
(343,30,cs),
(349,43,o),
(352,54,o),
(352,62,cs),
(353,80,o),
(339,92,o),
(316,98,c),
(313,99,ls),
(272,99,o),
(239,94,o),
(201,84,c),
(191,113,o),
(182,149,o),
(182,176,cs),
(182,197,o),
(183,198,o),
(191,198,cs),
(196,198,o),
(202,196,o),
(213,190,cs),
(223,186,o),
(235,180,o),
(251,180,cs),
(288,180,o),
(317,212,o),
(317,255,cs),
(317,297,o),
(288,330,o),
(251,329,cs),
(235,329,o),
(223,323,o),
(213,319,cs),
(202,313,o),
(196,312,o),
(191,312,cs),
(183,312,o),
(182,312,o),
(182,334,cs),
(182,360,o),
(191,396,o),
(201,425,c),
(239,415,o),
(272,411,o),
(313,411,cs),
(316,411,l),
(339,417,o),
(353,429,o),
(352,448,cs),
(352,455,o),
(349,466,o),
(343,479,cs),
(338,492,o),
(333,503,o),
(333,517,cs),
(333,545,o),
(352,556,o),
(384,556,cs),
(416,556,o),
(434,545,o),
(434,517,cs),
(434,503,o),
(428,492,o),
(423,479,cs),
(417,466,o),
(414,455,o),
(414,448,cs),
(414,429,o),
(427,417,o),
(450,411,c),
(454,411,ls),
(494,411,o),
(527,415,o),
(565,425,c),
(575,396,o),
(585,360,o),
(585,334,cs),
(585,312,o),
(583,312,o),
(576,311,cs),
(570,311,o),
(564,313,o),
(553,319,cs),
(543,323,o),
(531,329,o),
(516,329,cs),
(478,330,o),
(450,297,o),
(450,255,cs),
(450,212,o),
(478,180,o),
(516,180,cs),
(531,180,o),
(543,186,o),
(553,190,cs),
(564,196,o),
(570,197,o),
(576,197,cs),
(583,198,o),
(585,197,o),
(585,176,cs),
(585,149,o),
(575,113,o),
(565,84,c),
(527,94,o),
(494,99,o),
(454,99,cs),
(450,98,l),
(427,92,o),
(414,80,o),
(414,62,cs),
(414,54,o),
(417,43,o),
(423,30,cs),
(428,17,o),
(433,6,o),
(433,-8,cs),
(434,-36,o),
(415,-49,o),
(383,-49,cs)
);
},
{
closed = 1;
nodes = (
(432,-79,o),
(464,-53,o),
(464,-8,cs),
(464,12,o),
(456,29,o),
(450,42,cs),
(444,55,o),
(443,59,o),
(443,62,cs),
(443,63,o),
(446,66,o),
(455,68,c),
(496,68,o),
(530,63,o),
(570,51,c),
(589,60,l),
(605,104,o),
(615,146,o),
(615,176,cs),
(615,210,o),
(604,228,o),
(576,228,cs),
(561,228,o),
(549,222,o),
(540,217,cs),
(528,211,o),
(522,209,o),
(516,209,cs),
(495,210,o),
(480,228,o),
(480,255,cs),
(480,281,o),
(495,300,o),
(516,300,cs),
(522,300,o),
(528,298,o),
(540,292,cs),
(549,287,o),
(561,282,o),
(576,282,cs),
(604,282,o),
(615,299,o),
(615,334,cs),
(615,363,o),
(605,405,o),
(589,449,c),
(570,458,l),
(530,446,o),
(496,441,o),
(455,441,c),
(446,443,o),
(444,446,o),
(443,448,cs),
(443,450,o),
(444,454,o),
(450,467,cs),
(456,480,o),
(463,497,o),
(463,517,cs),
(464,562,o),
(432,586,o),
(384,586,cs),
(335,586,o),
(303,562,o),
(302,517,cs),
(302,497,o),
(310,480,o),
(316,467,cs),
(322,454,o),
(323,450,o),
(323,448,cs),
(323,446,o),
(320,443,o),
(311,441,c),
(270,441,o),
(236,446,o),
(196,458,c),
(177,449,l),
(161,405,o),
(152,363,o),
(152,334,cs),
(152,299,o),
(162,282,o),
(191,281,cs),
(205,281,o),
(217,287,o),
(226,292,cs),
(238,298,o),
(244,300,o),
(251,300,cs),
(271,300,o),
(287,281,o),
(287,255,cs),
(287,228,o),
(271,210,o),
(251,209,cs),
(244,209,o),
(238,211,o),
(226,217,cs),
(217,222,o),
(205,227,o),
(191,227,cs),
(162,228,o),
(152,210,o),
(152,176,cs),
(152,146,o),
(161,104,o),
(177,60,c),
(196,51,l),
(236,63,o),
(270,68,o),
(311,68,c),
(320,66,o),
(323,63,o),
(323,62,cs),
(323,59,o),
(322,55,o),
(316,42,cs),
(310,29,o),
(303,12,o),
(303,-8,cs),
(303,-52,o),
(335,-79,o),
(383,-79,cs)
);
}
);
};
layerId = master01;
shapes = (
{
closed = 1;
nodes = (
(221,-49,o),
(200,-35,o),
(200,-8,cs),
(200,15,o),
(220,40,o),
(220,62,c),
(220,81,o),
(204,99,o),
(171,99,cs),
(138,99,o),
(111,92,o),
(79,84,c),
(69,113,o),
(60,149,o),
(60,176,cs),
(60,192,o),
(61,198,o),
(68,198,cs),
(87,198,o),
(99,180,o),
(129,180,cs),
(166,180,o),
(195,212,o),
(195,255,cs),
(195,297,o),
(167,329,o),
(129,329,cs),
(99,329,o),
(87,312,o),
(69,312,cs),
(61,312,o),
(60,317,o),
(60,334,cs),
(60,360,o),
(69,396,o),
(79,425,c),
(112,417,o),
(139,411,o),
(176,411,c),
(200,411,o),
(220,426,o),
(220,448,cs),
(220,473,o),
(201,489,o),
(201,517,cs),
(201,545,o),
(220,556,o),
(252,556,c),
(284,556,o),
(303,545,o),
(303,517,cs),
(303,489,o),
(284,473,o),
(284,448,cs),
(284,426,o),
(304,411,o),
(328,411,c),
(365,411,o),
(392,417,o),
(425,425,c),
(435,396,o),
(444,360,o),
(444,334,cs),
(444,317,o),
(443,312,o),
(435,312,cs),
(417,312,o),
(405,329,o),
(375,329,cs),
(337,329,o),
(309,297,o),
(309,255,cs),
(309,212,o),
(338,180,o),
(375,180,cs),
(405,180,o),
(417,198,o),
(436,198,cs),
(443,198,o),
(444,192,o),
(444,176,cs),
(444,149,o),
(435,113,o),
(425,84,c),
(393,92,o),
(366,99,o),
(333,99,cs),
(300,99,o),
(284,81,o),
(284,62,c),
(284,40,o),
(304,15,o),
(304,-8,cs),
(304,-35,o),
(283,-49,o),
(252,-49,c)
);
},
{
closed = 1;
nodes = (
(203,586,o),
(170,562,o),
(170,517,cs),
(170,483,o),
(191,464,o),
(191,448,cs),
(191,444,o),
(188,441,o),
(175,441,c),
(141,441,o),
(111,447,o),
(74,458,c),
(55,449,l),
(39,405,o),
(30,363,o),
(30,334,cs),
(30,299,o),
(40,281,o),
(69,281,cs),
(94,281,o),
(110,300,o),
(129,300,cs),
(149,300,o),
(165,281,o),
(165,255,cs),
(165,228,o),
(149,209,o),
(129,209,cs),
(108,209,o),
(99,227,o),
(67,227,cs),
(40,227,o),
(30,210,o),
(30,176,cs),
(30,146,o),
(39,104,o),
(55,60,c),
(74,51,l),
(109,62,o),
(139,68,o),
(174,68,c),
(187,68,o),
(191,64,o),
(191,60,cs),
(191,51,o),
(171,23,o),
(171,-8,cs),
(171,-52,o),
(204,-79,o),
(252,-79,c),
(300,-79,o),
(333,-52,o),
(333,-8,cs),
(333,23,o),
(313,51,o),
(313,60,cs),
(313,64,o),
(317,68,o),
(330,68,c),
(365,68,o),
(395,62,o),
(430,51,c),
(449,60,l),
(465,104,o),
(474,146,o),
(474,176,cs),
(474,210,o),
(464,227,o),
(437,227,cs),
(405,227,o),
(396,209,o),
(375,209,cs),
(355,209,o),
(339,228,o),
(339,255,cs),
(339,281,o),
(355,300,o),
(375,300,cs),
(394,300,o),
(410,281,o),
(435,281,cs),
(464,281,o),
(474,299,o),
(474,334,cs),
(474,363,o),
(465,405,o),
(449,449,c),
(430,458,l),
(393,447,o),
(363,441,o),
(329,441,c),
(316,441,o),
(313,444,o),
(313,448,cs),
(313,464,o),
(334,483,o),
(334,517,cs),
(334,562,o),
(301,586,o),
(252,586,c)
);
}
);
width = 504;
}
);
}
{
glyphname = acutecomb.case;
layers = (
{
anchors = (
{
name = _top;
pos = (104,701);
}
);
layerId = master01;
shapes = (
{
closed = 1;
nodes = (
(33,761,l),
(267,862,l),
(268,872,l),
(226,951,l),
(217,954,l),
(2,816,l),
(0,808,l),
(26,761,l)
);
}
);
width = 268;
}
);
}
{
color = (99,255,209,255);
glyphname = ampersand.alt;
layers = (
{
background = {
shapes = (
{
closed = 1;
nodes = (
(462,-10,o),
(561,77,o),
(561,203,c),
(561,419,o),
(220,409,o),
(220,548,c),
(220,611,o),
(261,640,o),
(319,640,cs),
(381,640,o),
(421,607,o),
(421,543,cs),
(421,469,o),
(393,428,o),
(326,408,c),
(251,381,l),
(163,359,o),
(90,280,o),
(90,180,cs),
(90,68,o),
(184,-10,o),
(317,-10,cs)
);
},
{
closed = 1;
nodes = (
(245,60,o),
(190,109,o),
(190,187,c),
(190,270,o),
(248,308,o),
(316,336,c),
(364,362,l),
(459,393,o),
(521,452,o),
(521,540,cs),
(521,640,o),
(442,710,o),
(326,710,c),
(198,710,o),
(131,634,o),
(130,537,c),
(130,323,o),
(467,340,o),
(467,181,cs),
(467,100,o),
(413,60,o),
(339,60,c)
);
}
);
};
layerId = master01;
shapes = (
{
closed = 1;
nodes = (
(515,183,o),
(446,60,o),
(296,60,cs),
(195,60,o),
(142,119,o),
(142,194,c),
(142,328,o),
(495,377,o),
(495,555,c),
(495,656,o),
(428,710,o),
(315,710,cs),
(205,710,o),
(126,638.939,o),
(126,535,c),
(126,348.417,o),
(387.539,166.837,o),
(623,-11,c),
(636,-14,l),
(687,49,l),
(687,64,l),
(466.669,230.737,o),
(221,395,o),
(221,535,cs),
(221,611,o),
(264,640,o),
(319,640,c),
(378,640,o),
(415,610,o),
(415,556,c),
(415,413,o),
(50,391,o),
(50,175,c),
(50,49,o),
(151,-10,o),
(286,-10,c),
(501,-10,o),
(592,127,o),
(592,366,c),
(554,353,l),
(572,353,o),
(643.455,345,o),
(677,345,c),
(682,353,l),
(682,413,l),
(677,419,l),
(521,419,l),
(515,411,l),
(515,366,l)
);
}
);
width = 713;
}
);
}
{
color = (99,255,209,255);
glyphname = arrowright.alt;
layers = (
{
layerId = master01;
shapes = (
{
closed = 1;
nodes = (
(575,-10,o),
(700,129,o),
(700,350,cs),
(700,571,o),
(575,710,o),
(375,710,cs),
(175,710,o),
(50,571,o),
(50,350,cs),
(50,129,o),
(175,-10,o),
(375,-10,cs)
);
},
{
closed = 1;
nodes = (
(208,55,o),
(120,155,o),
(120,350,cs),
(120,545,o),
(208,645,o),
(375,645,cs),
(542,645,o),
(630,545,o),
(630,350,cs),
(630,155,o),
(542,55,o),
(375,55,cs)
);
},
{
closed = 1;
nodes = (
(511,391,l),
(469,391,o),
(259,397,o),
(194,399,c),
(185,391,l),
(185,323,l),
(194,315,l),
(260,317,o),
(469,323,o),
(511,323,c)
);
},
{
closed = 1;
nodes = (
(518,365,l),
(470,316,o),
(409,267,o),
(351,218,c),
(350,206,l),
(402,159,l),
(414,160,l),
(462,217,o),
(530,292,o),
(569,341,c),
(569,374,l),
(530,423,o),
(462,498,o),
(414,555,c),
(402,556,l),
(350,509,l),
(351,497,l),
(409,448,o),
(469,398,o),
(518,348,c)
);
}
);
width = 750;
}
);
}
{
color = (99,255,209,255);
glyphname = arrowright.alt2;
layers = (
{
layerId = master01;
shapes = (
{
closed = 1;
nodes = (
(575,-10,o),
(700,129,o),
(700,350,cs),
(700,571,o),
(575,710,o),
(375,710,cs),
(175,710,o),
(50,571,o),
(50,350,cs),
(50,129,o),
(175,-10,o),
(375,-10,cs)
);
},
{
closed = 1;
nodes = (
(402,159,l),
(350,206,l),
(351,218,l),
(392,253,o),
(435,288,o),
(473,322,c),
(398,321,o),
(248,317,o),
(194,315,c),
(185,323,l),
(185,391,l),
(194,399,l),
(247,397,o),
(397,393,o),
(473,392,c),
(434,427,o),
(392,462,o),
(351,497,c),
(350,509,l),
(402,556,l),
(414,555,l),
(462,498,o),
(530,423,o),
(569,374,c),
(569,341,l),
(530,292,o),
(462,217,o),
(414,160,c)
);
}
);
width = 750;
}
);
}
{
color = (99,255,209,255);
glyphname = arrowup.alt;
layers = (
{
layerId = master01;
shapes = (
{
closed = 1;
nodes = (
(575,-10,o),
(700,129,o),
(700,350,cs),
(700,571,o),
(575,710,o),
(375,710,cs),
(175,710,o),
(50,571,o),
(50,350,cs),
(50,129,o),
(175,-10,o),
(375,-10,cs)
);
},
{
closed = 1;
nodes = (
(208,55,o),
(120,155,o),
(120,350,cs),
(120,545,o),
(208,645,o),
(375,645,cs),
(542,645,o),
(630,545,o),
(630,350,cs),
(630,155,o),
(542,55,o),
(375,55,cs)
);
},
{
closed = 1;
nodes = (
(341,487,l),
(341,444,o),
(335,227,o),
(333,160,c),
(341,151,l),
(405,151,l),
(413,160,l),
(411,228,o),
(405,444,o),
(405,487,c)
);
},
{
closed = 1;
nodes = (
(363,494,l),
(412,446,o),
(465,384,o),
(512,332,c),
(524,331,l),
(571,378,l),
(570,390,l),
(514,438,o),
(438,506,o),
(389,545,c),
(356,545,l),
(307,506,o),
(231,438,o),
(175,390,c),
(174,378,l),
(221,331,l),
(233,332,l),
(280,384,o),
(333,446,o),
(382,494,c)
);
}
);
width = 750;
}
);
}
{
color = (99,255,209,255);
glyphname = arrowup.alt2;
layers = (
{
layerId = master01;
shapes = (
{
closed = 1;
nodes = (
(575,-10,o),
(700,129,o),
(700,350,cs),
(700,571,o),
(575,710,o),
(375,710,cs),
(175,710,o),
(50,571,o),
(50,350,cs),
(50,129,o),
(175,-10,o),
(375,-10,cs)
);
},
{
closed = 1;
nodes = (
(408,151,l),
(344,151,l),
(336,160,l),
(338,215,o),
(342,373,o),
(344,450,c),
(307,412,o),
(269,369,o),
(236,332,c),
(224,331,l),
(177,378,l),
(178,390,l),
(234,438,o),
(313,505,o),
(359,545,c),
(392,545,l),
(438,505,o),
(517,438,o),
(573,390,c),
(574,378,l),
(527,331,l),
(515,332,l),
(481,369,o),
(444,412,o),
(409,450,c),
(410,372,o),
(414,216,o),
(416,160,c)
);
}
);
width = 750;
}
);
}
{
glyphname = banio.001;
layers = (
{
guides = (
{
angle = 90;
pos = (357,154);
},
{
angle = 90;
pos = (385,630);
}
);
layerId = master01;
shapes = (
{
closed = 1;
nodes = (
(196,145,l),
(142,0,l),
(216,0,l),
(270,145,l)
);
},
{
closed = 1;
nodes = (
(357,281,l),
(190,281,ls),
(184,281,o),
(180,285,o),
(180,291,cs),
(180,351,l),
(110,351,l),
(110,241,ls),
(110,225,o),
(119,216,o),
(135,216,cs),
(357,216,l)
);
},
{
closed = 1;
nodes = (
(120,392,ls),
(114,392,o),
(110,396,o),
(110,402,cs),
(110,602,ls),
(110,608,o),
(114,612,o),
(120,612,cs),
(247,612,l),
(256,677,l),
(65,677,ls),
(49,677,o),
(40,668,o),
(40,652,cs),
(40,351,ls),
(40,335,o),
(49,326,o),
(65,326,cs),
(357,327,l),
(357,392,l)
);
},
{
closed = 1;
nodes = (
(357,114,l),
(246,114,o),
(227,233,o),
(227,255,c),
(157,255,l),
(157,198,o),
(207,49,o),
(357,49,c)
);
},
{
closed = 1;
nodes = (
(274,327,l),
(247,357,o),
(235,403,o),
(235,476,cs),
(235,598,o),
(268,645,o),
(357,645,c),
(357,710,l),
(238,710,o),
(165,620,o),
(165,476,cs),
(165,420,o),
(178,366,o),
(200,327,c)
);
},
{
closed = 1;
nodes = (
(498,0,l),
(572,0,l),
(518,145,l),
(444,145,l)
);
},
{
closed = 1;
nodes = (
(579,216,ls),
(595,216,o),
(604,225,o),
(604,241,cs),
(604,351,l),
(534,351,l),
(534,291,ls),
(534,285,o),
(530,281,o),
(524,281,cs),
(357,281,l),
(357,216,l)
);
},
{
closed = 1;
nodes = (
(357,327,l),
(649,326,ls),
(665,326,o),
(674,335,o),
(674,351,cs),
(674,652,ls),
(674,668,o),
(665,677,o),
(649,677,cs),
(458,677,l),
(467,612,l),
(594,612,ls),
(600,612,o),
(604,608,o),
(604,602,cs),
(604,402,ls),
(604,396,o),
(600,392,o),
(594,392,cs),
(357,392,l)
);
},
{
closed = 1;
nodes = (
(507,49,o),
(557,198,o),
(557,255,c),
(487,255,l),
(487,233,o),
(468,114,o),
(357,114,c),
(357,49,l)
);
},
{
closed = 1;
nodes = (
(536,366,o),
(549,420,o),
(549,476,cs),
(549,620,o),
(476,710,o),
(357,710,c),
(357,645,l),
(446,645,o),
(479,598,o),
(479,476,cs),
(479,403,o),
(467,357,o),
(440,327,c),
(514,327,l)
);
}
);
width = 714;
}
);
}
{
glyphname = banio.002;
layers = (
{
background = {
shapes = (
{
closed = 1;
nodes = (
(295,710,l),
(178,710,o),
(105,620,o),
(105,476,cs),
(105,406,o),
(126,338,o),
(159,301,c),
(249,301,l),
(196,329,o),
(175,378,o),
(175,476,cs),
(175,598,o),
(208,645,o),
(295,645,c)
);
}
);
};
guides = (
{
angle = 90;
pos = (297,154);
},
{
angle = 90;
pos = (325,630);
}
);
layerId = master01;
shapes = (
{
closed = 1;
nodes = (
(297,281,l),
(130,281,ls),
(124,281,o),
(120,285,o),
(120,291,cs),
(120,351,l),
(50,351,l),
(50,241,ls),
(50,225,o),
(59,216,o),
(75,216,cs),
(297,216,l)
);
},
{
closed = 1;
nodes = (
(50,392,l),
(50,326,l),
(297,327,l),
(297,392,l)
);
},
{
closed = 1;
nodes = (
(297,114,l),
(186,114,o),
(167,233,o),
(167,255,c),
(97,255,l),
(97,198,o),
(147,49,o),
(297,49,c)
);
},
{
closed = 1;
nodes = (
(214,327,l),
(187,357,o),
(175,403,o),
(175,476,cs),
(175,598,o),
(208,645,o),
(297,645,c),
(297,710,l),
(178,710,o),
(105,620,o),
(105,476,cs),
(105,420,o),
(118,366,o),
(140,327,c)
);
},
{
closed = 1;
nodes = (
(519,216,ls),
(535,216,o),
(544,225,o),
(544,241,cs),
(544,351,l),
(474,351,l),
(474,291,ls),
(474,285,o),
(470,281,o),
(464,281,cs),
(297,281,l),
(297,216,l)
);
},
{
closed = 1;
nodes = (
(447,49,o),
(497,198,o),
(497,255,c),
(427,255,l),
(427,233,o),
(408,114,o),
(297,114,c),
(297,49,l)
);
},
{
closed = 1;
nodes = (
(476,366,o),
(489,420,o),
(489,476,cs),
(489,620,o),
(416,710,o),
(297,710,c),
(297,645,l),
(386,645,o),
(419,598,o),
(419,476,cs),
(419,403,o),
(407,357,o),
(380,327,c),
(454,327,l)
);
},
{
closed = 1;
nodes = (
(297,327,l),
(544,326,l),
(544,392,l),
(297,392,l)
);
}
);
width = 594;
}
);
}
{
glyphname = brevecomb.case;
layers = (
{
anchors = (
{
name = _top;
pos = (154,701);
}
);
layerId = master01;
shapes = (
{
closed = 1;
nodes = (
(37,757,o),
(0,861,o),
(0,935,c),
(49,942,l),
(67,881,o),
(97,826,o),
(156,826,cs),
(215,826,o),
(245,881,o),
(263,942,c),
(312,935,l),
(312,861,o),
(275,757,o),
(156,757,cs)
);
}
);
width = 312;
}
);
}
{
color = (38,219,207,255);
glyphname = caron.alt;
layers = (
{
layerId = master01;
shapes = (
{
closed = 1;
nodes = (
(95,520,l),
(103.014,602.139,o),
(109,686,o),
(109,770,c),
(104,780,l),
(7,780,l),
(2,770,l),
(18.924,680.4,o),
(24,613.982,o),
(29,520,c),
(39,513,l),
(86,513,l)
);
}
);
width = 109;
}
);
}
{
glyphname = caroncomb.case;
layers = (
{
anchors = (
{
name = _top;
pos = (184,576);
}
);
layerId = master01;
shapes = (
{
closed = 1;
nodes = (
(176,721,o),
(144,752,o),
(94,832,c),
(83,832,l),
(31,794,l),
(30,785,l),
(83,721,o),
(118,677,o),
(142,639,c),
(226,639,l),
(250,677,o),
(285,721,o),
(338,785,c),
(337,794,l),
(285,832,l),
(274,832,l),
(223,752,o),
(192,721,o),
(171,693,c),
(197,693,l)
);
}
);
width = 600;
}
);
}
{
glyphname = circulo.001;
layers = (
{
layerId = master01;
shapes = (
{
closed = 1;
nodes = (
(431,106,o),
(529,206,o),
(529,351,cs),
(529,496,o),
(431,596,o),
(290,596,cs),
(148,596,o),
(50,496,o),
(50,351,cs),
(50,206,o),
(148,106,o),
(290,106,cs)
);
}
);
width = 599;
}
);
}
{
color = (99,255,209,255);
glyphname = circulo;
layers = (
{
background = {
shapes = (
{
closed = 1;
nodes = (
(437,102,o),
(549,213,o),
(549,351,cs),
(549,489,o),
(437,600,o),
(299,600,cs),
(162,600,o),
(50,489,o),
(50,351,cs),
(50,213,o),
(162,102,o),
(299,102,cs)
);
},
{
closed = 1;
nodes = (
(201,172,o),
(121,252,o),
(121,351,cs),
(121,450,o),
(201,530,o),
(300,530,cs),
(398,530,o),
(478,450,o),
(478,351,cs),
(478,252,o),
(398,172,o),
(300,172,cs)
);
}
);
};
layerId = master01;
shapes = (
{
closed = 1;
nodes = (
(431,106,o),
(529,206,o),
(529,351,cs),
(529,496,o),
(431,596,o),
(290,596,cs),
(148,596,o),
(50,496,o),
(50,351,cs),
(50,206,o),
(148,106,o),
(290,106,cs)
);
},
{
closed = 1;
nodes = (
(188,177,o),
(127,244,o),
(127,351,cs),
(127,459,o),
(188,526,o),
(291,526,cs),
(391,526,o),
(452,459,o),
(452,351,cs),
(452,244,o),
(391,177,o),
(291,177,cs)
);
}
);
width = 579;
}
);
}
{
color = (38,219,207,255);
glyphname = circumflexcomb.case;
layers = (
{
anchors = (
{
name = _top;
pos = (174,700);
}
);
layerId = master01;
shapes = (
{
closed = 1;
nodes = (
(161,901,l),
(187,873,o),
(220,842,o),
(284,762,c),
(295,762,l),
(347,800,l),
(348,809,l),
(285,873,o),
(240,917,o),
(216,955,c),
(132,955,l),
(108,917,o),
(63,873,o),
(0,809,c),
(1,800,l),
(53,762,l),
(64,762,l),
(127,842,o),
(160,873,o),
(187,901,c)
);
}
);
width = 348;
}
);
}
{
color = (99,255,209,255);
glyphname = cuadrado.001;
layers = (
{
layerId = master01;
shapes = (
{
closed = 1;
nodes = (
(514,111,l),
(524,121,l),
(524,579,l),
(514,589,l),
(60,589,l),
(50,579,l),
(50,121,l),
(60,111,l)
);
}
);
width = 574;
}
);
}
{
color = (99,255,209,255);
glyphname = cuadrado;
layers = (
{
layerId = master01;
shapes = (
{
closed = 1;
nodes = (
(514,111,l),
(524,121,l),
(524,579,l),
(514,589,l),
(60,589,l),
(50,579,l),
(50,121,l),
(60,111,l)
);
},
{
closed = 1;
nodes = (
(115,184,l),
(115,516,l),
(123,524,l),
(450,524,l),
(458,516,l),
(458,184,l),
(450,176,l),
(123,176,l)
);
}
);
width = 574;
}
);
}
{
color = (99,255,209,255);
glyphname = dollar.alt;
layers = (
{
layerId = master01;
shapes = (
{
closed = 1;
nodes = (
(389,-11,o),
(473,70,o),
(473,195,cs),
(473,417,o),
(155,412,o),
(155,546,c),
(155,597,o),
(189,627,o),
(246,627,cs),
(304,627,o),
(390,602,o),
(435,585,c),
(441,588,l),
(465,674,l),
(461,681,l),
(387,703,o),
(327,710,o),
(266,710,cs),
(160,710,o),
(65,636,o),
(65,527,c),
(65,331,o),
(383,310,o),
(383,186,c),
(383,106,o),
(340,74,o),
(273,74,cs),
(217,74,o),
(159,93,o),
(74,119,c),
(66,117,l),
(40,30,l),
(45,22,l),
(113,4,o),
(190,-11,o),
(284,-11,c)
);
},
{
closed = 1;
nodes = (
(209,38,l),
(208,-6,o),
(206,-54,o),
(204,-97,c),
(212,-106,l),
(293,-106,l),
(301,-97,l),
(299,-55,o),
(297,-6,o),
(296,38,c)
);
},
{
closed = 1;
nodes = (
(310,659,l),
(312,696,o),
(313,728,o),
(315,775,c),
(307,784,l),
(226,784,l),
(218,775,l),
(220,728,o),
(221,696,o),
(223,659,c)
);
}
);
width = 503;
}
);
}
{
color = (38,219,207,255);
glyphname = eight.osf;
layers = (
{
layerId = master01;
shapes = (
{
closed = 1;
nodes = (
(380,-10,o),
(471,67,o),
(471,203,c),
(471,409,o),
(140,419,o),
(140,548,c),
(140,611,o),
(185,640,o),
(249,640,cs),
(323,640,o),
(371,607,o),
(371,543,cs),
(371,469,o),
(339,426,o),
(260,398,c),
(193,373,l),
(104,351,o),
(40,281,o),
(40,180,cs),
(40,55,o),
(126,-10,o),
(247,-10,cs)
);
},
{
closed = 1;
nodes = (
(181,60,o),
(130,116,o),
(130,187,c),
(130,274.456,o),
(174,320,o),
(241,344,c),
(288,360,l),
(392,395,o),
(461,451.011,o),
(461,540,cs),
(461,640,o),
(378,710,o),
(256,710,c),
(121,710,o),
(51,634,o),
(50,537,c),
(50,323,o),
(381,339,o),
(381,181,cs),
(381,99,o),
(334,60,o),
(264,60,c)
);
}
);
width = 511;
}
);
}
{
color = (38,219,207,255);
glyphname = eight.tf;
layers = (
{
layerId = master01;
shapes = (
{
closed = 1;
nodes = (
(432,-10,o),
(531,77,o),
(531,203,c),
(531,419,o),
(190,409,o),
(190,548,c),
(190,611,o),
(231,640,o),
(289,640,cs),
(351,640,o),
(391,607,o),
(391,543,cs),
(391,469,o),
(363,428,o),
(296,408,c),
(221,381,l),
(133,359,o),
(60,280,o),
(60,180,cs),
(60,68,o),
(154,-10,o),
(287,-10,cs)
);
},
{
closed = 1;
nodes = (
(215,60,o),
(160,109,o),
(160,187,c),
(160,270,o),
(218,308,o),
(286,336,c),
(334,362,l),
(429,393,o),
(491,452,o),
(491,540,cs),
(491,640,o),
(412,710,o),
(296,710,c),
(168,710,o),
(101,634,o),
(100,537,c),
(100,323,o),
(437,340,o),
(437,181,cs),
(437,100,o),
(383,60,o),
(309,60,c)
);
}
);
width = 600;
}
);
}
{
glyphname = enojado;
layers = (
{
guides = (
{
angle = 90;
pos = (385,630);
},
{
angle = 90;
pos = (285,630);
},
{
angle = 90;
pos = (485,630);
}
);
layerId = master01;
shapes = (
{
closed = 1;
nodes = (
(356,499,l),
(193,536,l),
(188,533,l),
(188,474,l),
(192,468,l),
(357,432,l),
(361,436,l),
(361,495,l)
);
},
{
closed = 1;
nodes = (
(313,294,o),
(337,319,o),
(337,359,cs),
(337,399,o),
(313,424,o),
(274,424,c),
(236,424,o),
(212,399,o),
(212,359,cs),
(212,319,o),
(236,294,o),
(274,294,cs)
);
},
{
closed = 1;
nodes = (
(585,-10,o),
(710,129,o),
(710,350,cs),
(710,571,o),
(585,710,o),
(385,710,cs),
(185,710,o),
(60,571,o),
(60,350,cs),
(60,129,o),
(185,-10,o),
(385,-10,cs)
);
},
{
closed = 1;
nodes = (
(218,55,o),
(130,155,o),
(130,350,cs),
(130,545,o),
(218,645,o),
(385,645,cs),
(552,645,o),
(640,545,o),
(640,350,cs),
(640,155,o),
(552,55,o),
(385,55,cs)
);
},
{
closed = 1;
nodes = (
(310,256,o),
(248,220,o),
(212,153,c),
(213,148,l),
(238,129,l),
(243,129,l),
(270,162,o),
(329,186,o),
(385,186,c),
(385,256,l)
);
},
{
closed = 1;
nodes = (
(409,436,l),
(413,432,l),
(578,468,l),
(582,474,l),
(582,533,l),
(577,536,l),
(414,499,l),
(409,495,l)
);
},
{
closed = 1;
nodes = (
(534,294,o),
(558,319,o),
(558,359,cs),
(558,399,o),
(534,424,o),
(496,424,c),
(457,424,o),
(433,399,o),
(433,359,cs),
(433,319,o),
(457,294,o),
(496,294,cs)
);
},
{
closed = 1;
nodes = (
(385,186,l),
(441,186,o),
(500,162,o),
(527,129,c),
(532,129,l),
(557,148,l),
(558,153,l),
(522,220,o),
(460,256,o),
(385,256,c)
);
}
);
width = 770;
}
);
}
{
glyphname = feliz;
layers = (
{
guides = (
{
angle = 90;
pos = (385,630);
},
{
angle = 90;
pos = (285,630);
},
{
angle = 90;
pos = (485,630);
}
);
layerId = master01;
shapes = (
{
closed = 1;
nodes = (
(585,-10,o),
(710,129,o),
(710,350,cs),
(710,571,o),
(585,710,o),
(385,710,cs),
(185,710,o),
(60,571,o),
(60,350,cs),
(60,129,o),
(185,-10,o),
(385,-10,cs)
);
},
{
closed = 1;
nodes = (
(385,210,l),
(329,210,o),
(270,234,o),
(243,267,c),
(238,267,l),
(213,248,l),
(212,243,l),
(248,176,o),
(310,140,o),
(385,140,c)
);
},
{
closed = 1;
nodes = (
(322,369,o),
(343,396,o),
(343,449,cs),
(343,501,o),
(322,528,o),
(285,528,cs),
(249,528,o),
(228,501,o),
(228,449,cs),
(228,396,o),
(249,369,o),
(285,369,cs)
);
},
{
closed = 1;
nodes = (
(218,55,o),
(130,155,o),
(130,350,cs),
(130,545,o),
(218,645,o),
(385,645,cs),
(552,645,o),
(640,545,o),
(640,350,cs),
(640,155,o),
(552,55,o),
(385,55,cs)
);
},
{
closed = 1;
nodes = (
(521,369,o),
(542,396,o),
(542,449,cs),
(542,501,o),
(521,528,o),
(485,528,cs),
(448,528,o),
(427,501,o),
(427,449,cs),
(427,396,o),
(448,369,o),
(485,369,cs)
);
},
{
closed = 1;
nodes = (
(460,140,o),
(522,176,o),
(558,243,c),
(557,248,l),
(532,267,l),
(527,267,l),
(500,234,o),
(441,210,o),
(385,210,c),
(385,140,l)
);
}
);
width = 770;
}
);
}
{
color = (38,219,207,255);
glyphname = five.osf;
layers = (
{
background = {
shapes = (
{
closed = 1;
nodes = (
(330,-110,o),
(457,-37,o),
(457,106,c),
(458,208,o),
(329,259,o),
(206,195,c),
(209,191,l),
(324,238,o),
(398,290,o),
(398,379,cs),
(398,476,o),
(330,520,o),
(243,520,cs),
(169,520,o),
(103,495,o),
(34,460,c),
(30,452,l),
(47,406,l),
(58,401,l),
(113,422,o),
(164,435,o),
(212,435,cs),
(272,435,o),
(308,415,o),
(308,362,cs),
(308,279,o),
(260,253,o),
(143,200,c),
(140,198,l),
(157,149,l),
(160,148,l),
(216,161,ls),
(320,185,o),
(367,154,o),
(367,95,c),
(367,-4,o),
(206,-85,o),
(56,-175,c),
(51,-179,l),
(74,-222,l),
(79,-225,l)
);
}
);
};
layerId = master01;
shapes = (
{
closed = 1;
nodes = (
(270,188,o),
(341,178,o),
(341,96,c),
(341,-4,o),
(196,-84,o),
(45,-175,c),
(40,-179,l),
(63,-222,l),
(68,-225,l),
(316,-112,o),
(431,-36,o),
(431,107,c),
(431,225,o),
(326,248,o),
(115,285,c),
(132,254,l),
(152,459,l),
(120,429,l),
(211,429,o),
(321,424,o),
(400,421,c),
(405,430,l),
(405,501,l),
(401,511,l),
(355,508,o),
(303,506,o),
(251,506,cs),
(184,506,o),
(140,508,o),
(81,510,c),
(75,500,l),
(52,245,l),
(74,225,l)
);
}
);
width = 461;
}
);
}
{
color = (38,219,207,255);
glyphname = five.tf;
layers = (
{
layerId = master01;
shapes = (
{
closed = 1;
nodes = (
(423,-9,o),
(528,84,o),
(528,216,cs),
(528,360,o),
(438,415,o),
(185,452,c),
(219,432,l),
(239,647,l),
(196,619,l),
(290,619,o),
(404,614,o),
(486,611,c),
(491,620,l),
(491,691,l),
(487,701,l),
(438,698,o),
(382,696,o),
(327,696,cs),
(260,696,o),
(216,698,o),
(157,700,c),
(151,690,l),
(123,383,l),
(135,373,l),
(335,340,o),
(437,309,o),
(437,206,c),
(437,127,o),
(400,73,o),
(317,73,cs),
(260,73,o),
(194,97,o),
(118,127,c),
(113,124,l),
(80,37,l),
(82,30,l),
(146,5,o),
(207,-9,o),
(275,-9,cs)
);
}
);
width = 600;
}
);
}
{
color = (38,219,207,255);
glyphname = four.osf;
layers = (
{
layerId = master01;
shapes = (
{
closed = 1;
nodes = (
(507,182,l),
(507,265,l),
(504,269,l),
(457,265,o),
(219,257,o),
(72,257,c),
(108,221,l),
(367,655,l),
(366,667,l),
(309,698,l),
(296,694,l),
(20,223,l),
(21,212,l),
(38,189,l),
(48,183,l),
(158,183,o),
(463,178,o),
(504,178,c)
);
},
{
closed = 1;
nodes = (
(429,0,l),
(434,10,l),
(432,44,o),
(424,202,o),
(424,294,cs),
(424,370.078,o),
(425.147,439.491,o),
(428,488,c),
(423,500,l),
(340,500,l),
(335,489,l),
(338.806,439.521,o),
(339,369.146,o),
(339,294,cs),
(339,202,o),
(331,44,o),
(329,10,c),
(334,0,l)
);
}
);
width = 537;
}
);
}
{
color = (38,219,207,255);
glyphname = four.tf;
layers = (
{
layerId = master01;
shapes = (
{
closed = 1;
nodes = (
(542,195,l),
(542,284,l),
(539,288,l),
(492,284,o),
(254,276,o),
(107,276,c),
(139,241,l),
(411,664,l),
(410,676,l),
(357,707,l),
(344,703,l),
(55,243,l),
(56,232,l),
(73,202,l),
(83,196,l),
(193,196,o),
(498,191,o),
(539,191,c)
);
},
{
closed = 1;
nodes = (
(459,0,l),
(464,10,l),
(462,44,o),
(454,202,o),
(454,294,cs),
(454,378,o),
(456,455,o),
(459,508,c),
(454,520,l),
(370,520,l),
(365,509,l),
(369,455,o),
(370,377,o),
(370,294,cs),
(370,202,o),
(362,44,o),
(360,10,c),
(365,0,l)
);
}
);
width = 600;
}
);
}
{
color = (24,168,171,255);
glyphname = g.alt;
layers = (
{
background = {
shapes = (
{
closed = 1;
nodes = (
(314,-9,o),
(368,59,o),
(376,121,c),
(339,54,l),
(397,54,l),
(364,93,l),
(364,57,ls),
(364,12,o),
(375,-9,o),
(410,-9,cs),
(431,-9,o),
(475,-5,o),
(498,0,c),
(502,65,l),
(409,84,l),
(458,37,l),
(451,98,o),
(450,160,o),
(450,221,cs),
(450,255,o),
(450,288,o),
(450,322,cs),
(450,447,o),
(455,693,o),
(455,718,cs),
(455,760,o),
(440,780,o),
(399,780,cs),
(381,780,o),
(362,778,o),
(341,773,cs),
(321,769,o),
(301,765,o),
(282,761,c),
(289,696,l),
(379,700,l),
(355,723,l),
(364,625,o),
(365,454,o),
(365,335,cs),
(365,313,o),
(365,293,o),
(365,276,cs),
(365,130,o),
(323,64,o),
(242,64,cs),
(179,64,o),
(145,121,o),
(145,245,cs),
(145,270,ls),
(145,392,o),
(183,440,o),
(248,440,cs),
(296,440,o),
(343,416,o),
(387,389,c),
(390,452,l),
(341,452,l),
(379,429,l),
(379,461,o),
(301,520,o),
(232,520,cs),
(135,520,o),
(50,458,o),
(50,265,cs),
(50,240,ls),
(50,70,o),
(116,-9,o),
(220,-9,cs)
);
}
);
};
layerId = master01;
shapes = (
{
closed = 1;
nodes = (
(388,-220,o),
(450,-114,o),
(450,157,cs),
(450,310,ls),
(450,415,o),
(453,462,o),
(458,493,c),
(453,503,l),
(390,510,l),
(382,503,l),
(366,440,l),
(375,440,l),
(357,475,o),
(298,519,o),
(227,519,cs),
(130,519,o),
(50,455,o),
(50,258,cs),
(50,79,o),
(108,-10,o),
(220,-10,cs),
(292,-10,o),
(356,27,o),
(380,118,c),
(366,118,l),
(366,-65,o),
(333,-133,o),
(234,-133,cs),
(182,-133,o),
(135,-117,o),
(74,-89,c),
(66,-89,l),
(34,-156,l),
(38,-163,l),
(102,-199,o),
(170,-220,o),
(233,-220,cs)
);
},
{
closed = 1;
nodes = (
(173,64,o),
(145,134,o),
(145,263,c),
(145,388,o),
(179,440,o),
(253,440,cs),
(286,440,o),
(342,420,o),
(385,390,c),
(365,419,l),
(365,269,ls),
(365,136,o),
(325,64,o),
(241,64,cs)
);
}
);
width = 501;
}
);
}
{
glyphname = gravecomb.case;
layers = (
{
anchors = (
{
name = _top;
pos = (165,701);
}
);
layerId = master01;
shapes = (
{
closed = 1;
nodes = (
(268,808,l),
(266,816,l),
(51,954,l),
(42,951,l),
(0,872,l),
(1,862,l),
(235,761,l),
(242,761,l)
);
}
);
width = 600;
}
);
}
{
color = (99,255,209,255);
glyphname = hexagono.001;
layers = (
{
background = {
shapes = (
{
closed = 0;
nodes = (
(245,8,l)
);
}
);
};
layerId = master01;
shapes = (
{
closed = 1;
nodes = (
(467,586,l),
(602,353,l),
(467,114,l),
(195,114,l),
(60,353,l),
(195,586,l)
);
}
);
width = 662;
}
);
}
{
color = (99,255,209,255);
glyphname = hexagono;
layers = (
{
background = {
shapes = (
{
closed = 0;
nodes = (
(245,8,l)
);
}
);
};
layerId = master01;
shapes = (
{
closed = 1;
nodes = (
(60,353,l),
(195,114,l),
(467,114,l),
(602,353,l),
(467,586,l),
(195,586,l)
);
},
{
closed = 1;
nodes = (
(431,524,l),
(530,353,l),
(431,178,l),
(232,178,l),
(132,353,l),
(232,524,l)
);
}
);
width = 662;
}
);
}
{
color = (24,168,171,255);
glyphname = hungarumlautcomb.case;
layers = (
{
anchors = (
{
name = _top;
pos = (54,701);
}
);
layerId = master01;
shapes = (
{
closed = 1;
nodes = (
(116,767,l),
(310,896,l),
(309,905,l),
(252,966,l),
(241,967,l),
(76,807,l),
(76,799,l),
(108,765,l)
);
},
{
closed = 1;
nodes = (
(-23,774,l),
(137,943,l),
(134,952,l),
(65,999,l),
(54,997,l),
(-71,805,l),
(-69,797,l),
(-31,771,l)
);
}
);
width = 291;
}
);
}
{
color = (24,168,171,255);
glyphname = lapiz;
layers = (
{
background = {
shapes = (
{
closed = 1;
nodes = (
(236,544,l),
(237,193,ls),
(237,178,o),
(229,173,o),
(216,173,cs),
(159,173,ls),
(146,173,o),
(138,178,o),
(138,193,cs),
(139,544,l),
(89,544,l),
(97,165,ls),
(98,136,o),
(113,120,o),
(140,120,cs),
(235,120,ls),
(263,120,o),
(277,136,o),
(278,165,cs),
(286,544,l)
);
},
{
closed = 1;
nodes = (
(300,668,o),
(256,710,o),
(187,710,cs),
(108,710,o),
(74,668,o),
(74,594,cs),
(74,558,l),
(300,558,l),
(300,594,ls)
);
},
{
closed = 1;
nodes = (
(133,638,o),
(142,657,o),
(187,657,cs),
(233,657,o),
(242,638,o),
(242,594,c),
(133,594,l)
);
},
{
closed = 1;
nodes = (
(204,0,l),
(274,144,l),
(236,161,l),
(182,41,l),
(193,41,l),
(139,161,l),
(101,144,l),
(171,0,l)
);
},
{
closed = 1;
nodes = (
(248,590,l),
(78,590,ls),
(59,590,o),
(50,577,o),
(50,563,cs),
(50,550,o),
(59,536,o),
(78,536,cs),
(248,536,l)
);
},
{
closed = 1;
nodes = (
(290,536,ls),
(309,536,o),
(318,550,o),
(318,563,cs),
(318,577,o),
(309,590,o),
(290,590,cs),
(120,590,l),
(120,536,l)
);
}
);
};
layerId = master01;
shapes = (
{
closed = 1;
nodes = (
(185,551,l),
(277,212,ls),
(281,198,o),
(275,191,o),
(262,187,cs),
(207,173,ls),
(194,169,o),
(185,172,o),
(181,187,cs),
(92,526,l),
(43,513,l),
(149,149,ls),
(158,121,o),
(176,110,o),
(202,117,cs),
(294,141,ls),
(321,148,o),
(331,168,o),
(324,196,cs),
(234,564,l)
);
},
{
closed = 1;
nodes = (
(215,687,o),
(162,717,o),
(95,699,cs),
(19,678,o),
(-3,629,o),
(16,557,cs),
(25,523,l),
(244,581,l),
(234,616,ls)
);
},
{
closed = 1;
nodes = (
(61,615,o),
(65,636,o),
(109,647,cs),
(153,659,o),
(167,643,o),
(178,601,c),
(73,573,l)
);
},
{
closed = 1;
nodes = (
(295,17,l),
(326,174,l),
(284,181,l),
(263,51,l),
(274,54,l),
(191,156,l),
(158,130,l),
(263,9,l)
);
},
{
closed = 1;
nodes = (
(185,599,l),
(21,555,ls),
(2,550,o),
(-3,535,o),
(1,521,cs),
(4,509,o),
(16,497,o),
(35,502,cs),
(199,546,l)
);
},
{
closed = 1;
nodes = (
(240,557,ls),
(258,562,o),
(263,578,o),
(260,591,cs),
(256,604,o),
(244,614,o),
(226,609,cs),
(61,565,l),
(75,513,l)
);
}
);
width = 368;
}
);
}
{
color = (24,168,171,255);
glyphname = lavar;
layers = (
{
background = {
shapes = (
{
closed = 1;
nodes = (
(585,-10,o),
(710,129,o),
(710,350,cs),
(710,571,o),
(585,710,o),
(385,710,cs),
(185,710,o),
(60,571,o),
(60,350,cs),
(60,129,o),
(185,-10,o),
(385,-10,cs)
);
},
{
closed = 1;
nodes = (
(137,122,ls),
(238,122,o),
(323,77,o),
(400,77,c),
(480,77,o),
(508,104,o),
(508,129,cs),
(508,159,o),
(491,173,o),
(423,177,c),
(423,167,l),
(529,167,o),
(563,177,o),
(563,208,cs),
(563,235,o),
(543,245,o),
(471,245,c),
(471,239,l),
(586,239,o),
(613,251,o),
(613,278,cs),
(613,308,o),
(577,315,o),
(490,315,c),
(490,307,l),
(571,307,o),
(583,329,o),
(583,354,cs),
(583,376,o),
(564,395,o),
(470,395,cs),
(439,395,o),
(409,391,o),
(370,386,c),
(374,367,l),
(425,377,o),
(481,434,o),
(481,483,cs),
(481,518,o),
(459,542,o),
(421,542,c),
(368,542,o),
(285,419,o),
(173,419,cs),
(146,419,o),
(126,425,o),
(90,436,c),
(74,394,l),
(113,379,o),
(138,375,o),
(174,375,cs),
(286,375,o),
(376,496,o),
(411,496,cs),
(427,496,o),
(435,489,o),
(435,472,cs),
(435,431,o),
(393,409,o),
(341,378,c),
(352,356,l),
(405,361,o),
(443,363,o),
(469,363,cs),
(524,363,o),
(533,355,o),
(533,346,cs),
(533,332,o),
(518,324,o),
(326,324,c),
(326,294,l),
(541,294,o),
(563,292,o),
(563,278,cs),
(563,265,o),
(541,260,o),
(325,260,c),
(325,230,l),
(495,230,o),
(513,225,o),
(513,212,cs),
(513,197,o),
(495,197,o),
(323,197,c),
(323,165,l),
(447,155,o),
(464,148,o),
(464,134,c),
(464,120,o),
(451,114,o),
(400,114,cs),
(328,114,o),
(248,159,o),
(147,159,cs),
(76,159,l),
(76,122,l)
);
},
{
closed = 1;
nodes = (
(131,412,l),
(180,411,l),
(102,505,l),
(74,482,l)
);
},
{
closed = 1;
nodes = (
(411,566,o),
(398,610,o),
(378,665,c),
(335,651,l),
(353,593,o),
(368,550,o),
(388,510,c),
(428,529,l)
);
},
{
closed = 1;
nodes = (
(331,107,o),
(339,97,o),
(348,85,c),
(399,24,o),
(435,20,o),
(458,37,cs),
(473,48,o),
(480,74,o),
(449,114,c),
(442,107,l),
(485,57,o),
(525,56,o),
(539,68,cs),
(552,79,o),
(554,102,o),
(521,140,c),
(517,136,l),
(575,69,o),
(607,64,o),
(623,78,cs),
(645,97,o),
(627,128,o),
(575,190,c),
(568,185,l),
(617,127,o),
(646,136,o),
(659,148,cs),
(670,158,o),
(674,193,o),
(635,238,cs),
(622,253,o),
(612,269,o),
(595,286,c),
(582,271,l),
(619,260,o),
(666,260,o),
(693,296,cs),
(708,316,o),
(713,356,o),
(691,377,cs),
(659,408,o),
(545,401,o),
(476,464,c),
(455,426,l),
(527,370,o),
(637,370,o),
(658,353,cs),
(668,345,o),
(666,328,o),
(659,319,cs),
(645,302,o),
(624,300,o),
(584,305,c),
(571,262,l),
(593,240,o),
(601,229,o),
(610,218,cs),
(633,191,o),
(630,181,o),
(626,177,cs),
(621,173,o),
(603,168,o),
(553,227,c),
(530,208,l),
(598,128,o),
(598,114,o),
(593,110,cs),
(587,105,o),
(564,109,o),
(494,196,c),
(470,178,l),
(525,114,o),
(523,100,o),
(518,96,c),
(515,93,o),
(492,84,o),
(457,119,c),
(423,100,l),
(440,76,o),
(441,70,o),
(435,66,cs),
(425,59,o),
(414,65,o),
(376,109,c),
(322,121,l)
);
},
{
closed = 1;
nodes = (
(608,518,o),
(626,534,o),
(626,565,cs),
(626,605,o),
(599,628,o),
(582,673,c),
(573,673,l),
(556,628,o),
(530,605,o),
(530,565,cs),
(530,534,o),
(547,518,o),
(578,518,cs)
);
}
);
};
layerId = master01;
shapes = (
{
closed = 1;
nodes = (
(133,32,ls),
(227,32,o),
(305,-13,o),
(376,-13,c),
(456,-13,o),
(484,14,o),
(484,39,cs),
(484,69,o),
(467,83,o),
(399,87,c),
(399,77,l),
(505,77,o),
(539,87,o),
(539,118,cs),
(539,145,o),
(519,155,o),
(447,155,c),
(447,149,l),
(555,149,o),
(580,161,o),
(580,188,cs),
(580,218,o),
(547,225,o),
(466,225,c),
(466,217,l),
(542,217,o),
(553,239,o),
(553,264,cs),
(553,286,o),
(535,305,o),
(446,305,cs),
(415,305,o),
(385,301,o),
(346,296,c),
(350,277,l),
(401,287,o),
(457,344,o),
(457,393,cs),
(457,428,o),
(435,452,o),
(397,452,c),
(344,452,o),
(261,329,o),
(149,329,cs),
(122,329,o),
(102,335,o),
(66,346,c),
(50,304,l),
(89,289,o),
(114,285,o),
(150,285,cs),
(262,285,o),
(352,406,o),
(387,406,cs),
(403,406,o),
(411,399,o),
(411,382,cs),
(411,341,o),
(369,319,o),
(317,288,c),
(328,266,l),
(381,271,o),
(419,273,o),
(445,273,cs),
(500,273,o),
(509,265,o),
(509,256,cs),
(509,242,o),
(494,234,o),
(302,234,c),
(302,204,l),
(516,204,o),
(538,202,o),
(538,188,cs),
(538,175,o),
(516,170,o),
(301,170,c),
(301,140,l),
(471,140,o),
(489,135,o),
(489,122,cs),
(489,107,o),
(471,107,o),
(299,107,c),
(299,75,l),
(423,65,o),
(440,58,o),
(440,44,c),
(440,30,o),
(427,24,o),
(376,24,cs),
(310,24,o),
(236,69,o),
(143,69,cs),
(102,69,l),
(102,32,l)
);
},
{
closed = 1;
nodes = (
(394,545,o),
(412,561,o),
(412,592,cs),
(412,632,o),
(385,655,o),
(368,700,c),
(359,700,l),
(342,655,o),
(316,632,o),
(316,592,cs),
(316,561,o),
(333,545,o),
(364,545,cs)
);
},
{
closed = 1;
nodes = (
(646,155,o),
(646,187,cs),
(646,215,o),
(625,226,o),
(547,226,c),
(547,220,l),
(662,220,o),
(689,234,o),
(689,263,cs),
(689,297,o),
(653,305,o),
(566,305,c),
(566,297,l),
(647,297,o),
(659,319,o),
(659,344,cs),
(659,366,o),
(640,385,o),
(546,385,cs),
(515,385,o),
(485,381,o),
(446,376,c),
(450,357,l),
(499,367,o),
(552,417,o),
(552,460,cs),
(552,496,o),
(530,521,o),
(493,521,c),
(441,521,o),
(369,409,o),
(249,409,cs),
(222,409,o),
(202,415,o),
(166,426,c),
(150,384,l),
(189,369,o),
(214,365,o),
(250,365,cs),
(360,365,o),
(449,476,o),
(483,476,cs),
(500,476,o),
(508,469,o),
(508,451,cs),
(508,415,o),
(466,397,o),
(417,368,c),
(428,346,l),
(481,351,o),
(519,353,o),
(545,353,cs),
(600,353,o),
(609,345,o),
(609,336,cs),
(609,322,o),
(594,314,o),
(402,314,c),
(402,281,l),
(619,281,o),
(641,279,o),
(641,263,cs),
(641,248,o),
(629,241,o),
(513,241,c),
(513,211,l),
(602,211,o),
(609,204,o),
(609,187,cs),
(609,169,o),
(586,163,o),
(504,163,c),
(504,134,l),
(608,134,o)
);
}
);
width = 739;
}
);
}
{
glyphname = macron.case;
layers = (
{
anchors = (
{
name = _top;
pos = (163,701);
}
);
layerId = master01;
shapes = (
{
closed = 1;
nodes = (
(249,811,o),
(204,811,o),
(160,811,cs),
(115,811,o),
(70,811,o),
(7,809,c),
(0,815,l),
(0,887,l),
(8,892,l),
(71,891,o),
(116,890,o),
(160,890,cs),
(205,890,o),
(249,891,o),
(310,892,c),
(320,887,l),
(320,814,l),
(310,809,l)
);
}
);
width = 320;
}
);
}
{
color = (38,219,207,255);
glyphname = nine.osf;
layers = (
{
layerId = master01;
shapes = (
{
closed = 1;
nodes = (
(496,-10,o),
(496,234,cs),
(496,417,o),
(413,520,o),
(276,520,cs),
(131,520,o),
(50,414,o),
(50,285,cs),
(50,127,o),
(136,56,o),
(252,56,c),
(337,56,o),
(389,111,o),
(434,168,c),
(408,204,l),
(375,169,o),
(328,136,o),
(269,136,c),
(185,136,o),
(140,202,o),
(140,291,cs),
(140,381,o),
(184,435,o),
(278,435,cs),
(357,435,o),
(403,371,o),
(403,224,cs),
(403,51,o),
(215,-78,o),
(107,-160,c),
(105,-165,l),
(140,-218,l),
(147,-221,l),
(292,-132,o)
);
}
);
width = 546;
}
);
}
{
color = (38,219,207,255);
glyphname = nine.tf;
layers = (
{
layerId = master01;
shapes = (
{
closed = 1;
nodes = (
(526,191,o),
(526,424,cs),
(526,607,o),
(443,710,o),
(306,710,cs),
(161,710,o),
(80,604,o),
(80,475,cs),
(80,317,o),
(166,246,o),
(282,246,c),
(367,246,o),
(419,301,o),
(464,358,c),
(438,394,l),
(405,359,o),
(358,326,o),
(299,326,c),
(215,326,o),
(170,392,o),
(170,481,cs),
(170,571,o),
(214,625,o),
(308,625,cs),
(387,625,o),
(433,561,o),
(433,414,cs),
(433,250,o),
(243,130,o),
(137,50,c),
(135,45,l),
(170,-8,l),
(177,-11,l),
(320,77,o)
);
}
);
width = 600;
}
);
}
{
glyphname = no;
layers = (
{
layerId = master01;
shapes = (
{
closed = 1;
nodes = (
(584,-10,o),
(709,129,o),
(709,350,cs),
(709,571,o),
(584,710,o),
(384,710,cs),
(184,710,o),
(59,571,o),
(59,350,cs),
(59,129,o),
(184,-10,o),
(384,-10,cs)
);
},
{
closed = 1;
nodes = (
(217,55,o),
(129,155,o),
(129,350,cs),
(129,545,o),
(217,645,o),
(384,645,cs),
(551,645,o),
(639,545,o),
(639,350,cs),
(639,155,o),
(551,55,o),
(384,55,cs)
);
},
{
closed = 1;
nodes = (
(411,376,l),
(205,631,l),
(136,566,l),
(359,324,l),
(562,77,l),
(635,138,l)
);
}
);
width = 769;
}
);
}
{
color = (99,255,209,255);
glyphname = northEastArrow.alt;
layers = (
{
layerId = master01;
shapes = (
{
closed = 1;
nodes = (
(575,-10,o),
(700,129,o),
(700,350,cs),
(700,571,o),
(575,710,o),
(375,710,cs),
(175,710,o),
(50,571,o),
(50,350,cs),
(50,129,o),
(175,-10,o),
(375,-10,cs)
);
},
{
closed = 1;
nodes = (
(208,55,o),
(120,155,o),
(120,350,cs),
(120,545,o),
(208,645,o),
(375,645,cs),
(542,645,o),
(630,545,o),
(630,350,cs),
(630,155,o),
(542,55,o),
(375,55,cs)
);
},
{
closed = 1;
nodes = (
(459,231,l),
(523,231,l),
(531,240,l),
(523,487,l),
(499,510,l),
(254,516,l),
(245,508,l),
(245,445,l),
(254,437,l),
(306,441,o),
(358,444,o),
(438,449,c),
(430,468,l),
(348,389,o),
(231,278,o),
(189,239,c),
(189,227,l),
(241,175,l),
(253,175,l),
(293,217,o),
(403,332,o),
(483,415,c),
(464,423,l),
(459,344,o),
(455,292,o),
(452,240,c)
);
}
);
width = 750;
}
);
}
{
color = (99,255,209,255);
glyphname = northEastArrow.alt2;
layers = (
{
layerId = master01;
shapes = (
{
closed = 1;
nodes = (
(575,-10,o),
(700,129,o),
(700,350,cs),
(700,571,o),
(575,710,o),
(375,710,cs),
(175,710,o),
(50,571,o),
(50,350,cs),
(50,129,o),
(175,-10,o),
(375,-10,cs)
);
},
{
closed = 1;
nodes = (
(455,292,o),
(459,344,o),
(462,393,c),
(403,332,o),
(293,217,o),
(253,175,c),
(241,175,l),
(189,227,l),
(189,239,l),
(231,278,o),
(348,389,o),
(408,447,c),
(358,444,o),
(306,441,o),
(254,437,c),
(245,445,l),
(245,508,l),
(254,516,l),
(499,510,l),
(523,487,l),
(531,240,l),
(523,231,l),
(459,231,l),
(452,240,l)
);
}
);
width = 750;
}
);
}
{
color = (38,219,207,255);
glyphname = one.osf;
layers = (
{
layerId = master01;
shapes = (
{
closed = 1;
nodes = (
(228,112,o),
(230,194,o),
(230,277,cs),
(230,467,l),
(255,444,l),
(211,424,o),
(131,385,o),
(76,358,c),
(67,361,l),
(44,420,l),
(49,430,l),
(117,462,o),
(174,487,o),
(236,520,c),
(323,510,l),
(328,500,l),
(324.68,430.277,o),
(323,400.001,o),
(321,293,cs),
(319,193,o),
(323,108,o),
(327,56,c),
(306,75,l),
(394.192,75,o),
(417.516,78.933,o),
(454,84,c),
(464,79,l),
(464,5,l),
(454,0,l),
(421.664,5.052,o),
(343.977,8,o),
(266,8,cs),
(188.174,8,o),
(109.262,5.323,o),
(72,0,c),
(62,5,l),
(62,79,l),
(72,84,l),
(110,79,o),
(175,77,o),
(246,76,c),
(223,60,l)
);
}
);
width = 477;
}
);
}
{
color = (38,219,207,255);
glyphname = one.tf;
layers = (
{
layerId = master01;
shapes = (
{
closed = 1;
nodes = (
(297,72,l),
(209,75,o),
(144,78,o),
(114,80,c),
(104,75,l),
(104,1,l),
(114,-4,l),
(181,2,o),
(434,1,o),
(492,-4,c),
(502,1,l),
(502,75,l),
(492,80,l),
(466,76,o),
(432,74,o),
(334,73,c),
(365,43,l),
(360,169,o),
(358,287,o),
(358,394,cs),
(358,551,o),
(366,635,o),
(368,690,c),
(363,700,l),
(277,700,l),
(220,659,o),
(159,616,o),
(95,579,c),
(90,569,l),
(120,513,l),
(129,510,l),
(160,533,o),
(234,580,o),
(296,615,c),
(274,651,l),
(274,511,ls),
(274,301,o),
(270,169,o),
(264,43,c)
);
}
);
width = 600;
}
);
}
{
color = (99,255,209,255);
glyphname = pentagono.001;
layers = (
{
layerId = master01;
shapes = (
{
closed = 1;
nodes = (
(441,116,l),
(457,128,l),
(540,390,l),
(534,410,l),
(312,582,l),
(292,582,l),
(73,411,l),
(66,388,l),
(148,130,l),
(167,116,l)
);
}
);
width = 605;
}
);
}
{
color = (99,255,209,255);
glyphname = pentagono;
layers = (
{
background = {
shapes = (
{
closed = 1;
nodes = (
(60,403,l),
(302,579,l),
(545,403,l),
(453,118,l),
(153,118,l)
);
},
{
closed = 1;
nodes = (
(409,178,l),
(474,379,l),
(303,503,l),
(132,379,l),
(197,178,l)
);
}
);
};
layerId = master01;
shapes = (
{
closed = 1;
nodes = (
(441,116,l),
(457,128,l),
(540,390,l),
(534,410,l),
(312,582,l),
(292,582,l),
(73,411,l),
(66,388,l),
(148,130,l),
(167,116,l)
);
},
{
closed = 1;
nodes = (
(145,388,l),
(293,506,l),
(313,506,l),
(461,388,l),
(468,365,l),
(412,186,l),
(399,176,l),
(209,176,l),
(193,188,l),
(138,365,l)
);
}
);
width = 605;
}
);
}
{
color = (38,219,207,255);
glyphname = persona.apuntando;
layers = (
{
layerId = master01;
shapes = (
{
closed = 1;
nodes = (
(355,477,o),
(389,519,o),
(389,594,cs),
(389,668,o),
(345,710,o),
(275,710,cs),
(196,710,o),
(162,668,o),
(162,594,cs),
(162,519,o),
(196,477,o),
(275,477,cs)
);
},
{
closed = 1;
nodes = (
(230,530,o),
(221,549,o),
(221,594,cs),
(221,638,o),
(230,657,o),
(275,657,cs),
(321,657,o),
(330,638,o),
(330,594,cs),
(330,549,o),
(321,530,o),
(275,530,cs)
);
},
{
closed = 1;
nodes = (
(520,338,l),
(556,386,l),
(361,316,ls),
(340,309,o),
(334.075,296.996,o),
(333,278,cs),
(321,66,ls),
(321,60,o),
(317,56,o),
(311,56,cs),
(237,56,ls),
(231,56,o),
(227,60,o),
(227,66,cs),
(214,254,l),
(158,254,l),
(170,44,ls),
(172,16,o),
(185,0,o),
(211,0,cs),
(333,0,ls),
(361,0,o),
(372,12,o),
(375,42,cs),
(398,292,l),
(382,266,l),
(555,332,ls),
(566,336,o),
(569,344,o),
(568,355,cs),
(560,434,ls),
(558,449,o),
(553,454,o),
(536,453,cs),
(186,432,ls),
(101.938,426.956,o),
(65,380,o),
(67,329,cs),
(74,184,ls),
(76,151,o),
(92,135,o),
(122,135,cs),
(193,135,l),
(193,185,l),
(146,185,ls),
(132,185,o),
(128,194,o),
(127,207,cs),
(121,314,ls),
(119,355,o),
(136.208,376.317,o),
(191,380,cs),
(548,404,l),
(510,433,l)
);
}
);
width = 595;
}
);
}
{
color = (38,219,207,255);
glyphname = persona.cuadro;
layers = (
{
background = {
shapes = (
{
closed = 1;
nodes = (
(520,338,l),
(556,386,l),
(361,316,ls),
(340,309,o),
(334,297,o),
(333,278,cs),
(321,66,ls),
(321,60,o),
(317,56,o),
(311,56,cs),
(237,56,ls),
(231,56,o),
(227,60,o),
(227,66,cs),
(214,254,l),
(158,254,l),
(170,44,ls),
(172,16,o),
(185,0,o),
(211,0,cs),
(333,0,ls),
(361,0,o),
(372,12,o),
(375,42,cs),
(398,292,l),
(382,266,l),
(555,332,ls),
(566,336,o),
(569,344,o),
(568,355,cs),
(560,434,ls),
(558,449,o),
(553,454,o),
(536,453,cs),
(186,432,ls),
(102,427,o),
(65,380,o),
(67,329,cs),
(74,184,ls),
(76,151,o),
(92,135,o),
(122,135,cs),
(193,135,l),
(193,185,l),
(146,185,ls),
(132,185,o),
(128,194,o),
(127,207,cs),
(121,314,ls),
(119,355,o),
(136,376,o),
(191,380,cs),
(548,404,l),
(510,433,l)
);
},
{
closed = 1;
nodes = (
(250,438,l),
(147,438,ls),
(79,438,o),
(47,402,o),
(50,333,cs),
(56,205,ls),
(58,154,o),
(79,135,o),
(136,135,cs),
(175,135,l),
(175,185,l),
(164,185,ls),
(122,185,o),
(109,194,o),
(107,231,cs),
(103,329,ls),
(101,371,o),
(117,389,o),
(156,389,cs),
(250,388,l)
);
},
{
closed = 1;
nodes = (
(250,438,l),
(187,438,ls),
(98,438,o),
(46,382,o),
(51,293,cs),
(54,243,ls),
(58,177,o),
(94,135,o),
(145,135,cs),
(175,135,l),
(175,185,l),
(164,185,ls),
(131,185,o),
(109,208,o),
(106,255,cs),
(104,290,ls),
(101,350,o),
(135,388,o),
(196,388,cs),
(250,388,l)
);
},
{
closed = 1;
nodes = (
(304,388,ls),
(365,388,o),
(399,350,o),
(396,290,cs),
(394,255,ls),
(391,208,o),
(369,185,o),
(336,185,cs),
(325,185,l),
(325,135,l),
(355,135,ls),
(406,135,o),
(442,177,o),
(446,243,cs),
(449,293,ls),
(454,382,o),
(402,438,o),
(313,438,cs),
(250,438,l),
(250,388,l)
);
}
);
};
guides = (
{
angle = 90;
pos = (274,65);
userData = {
UFO.identifier = DMui4pgNGC;
};
}
);
layerId = master01;
shapes = (
{
closed = 1;
nodes = (
(323,294,l),
(318,73,ls),
(318,58,o),
(310,53,o),
(297,53,cs),
(254,53,ls),
(241,53,o),
(233,58,o),
(233,73,cs),
(227,294,l),
(177,294,l),
(192,45,ls),
(194,16,o),
(208,0,o),
(235,0,cs),
(316,0,ls),
(344,0,o),
(357,16,o),
(359,45,cs),
(373,294,l)
);
},
{
closed = 1;
nodes = (
(354,477,o),
(388,519,o),
(388,594,cs),
(388,668,o),
(344,710,o),
(274,710,cs),
(195,710,o),
(161,668,o),
(161,594,cs),
(161,519,o),
(195,477,o),
(274,477,cs)
);
},
{
closed = 1;
nodes = (
(229,530,o),
(220,549,o),
(220,594,cs),
(220,638,o),
(229,657,o),
(274,657,cs),
(320,657,o),
(329,638,o),
(329,594,cs),
(329,549,o),
(320,530,o),
(274,530,cs)
);
},
{
closed = 1;
nodes = (
(284,438,l),
(181,438,ls),
(102,438,o),
(70.907,394.869,o),
(75,298,cs),
(78,227,ls),
(81,161,o),
(107,135,o),
(168,135,cs),
(199,135,l),
(199,185,l),
(178,185,ls),
(147,185,o),
(135,201,o),
(133,241,cs),
(130,295,ls),
(126.082,365.52,o),
(148,388,o),
(200,388,cs),
(284,388,l)
);
},
{
closed = 1;
nodes = (
(348,388,ls),
(401,388,o),
(421.943,365.977,o),
(418,295,cs),
(415,241,ls),
(412.778,201.008,o),
(401,185,o),
(370,185,cs),
(349,185,l),
(349,135,l),
(380,135,ls),
(441,135,o),
(467,161,o),
(470,227,cs),
(473,298,ls),
(477.098,394.982,o),
(446,438,o),
(367,438,cs),
(264,438,l),
(264,388,l)
);
}
);
width = 524;
}
);
}
{
color = (38,219,207,255);
glyphname = persona.triangulo;
layers = (
{
background = {
shapes = (
{
closed = 1;
nodes = (
(323,294,l),
(318,73,ls),
(318,58,o),
(310,53,o),
(297,53,cs),
(254,53,ls),
(241,53,o),
(233,58,o),
(233,73,cs),
(227,294,l),
(177,294,l),
(192,45,ls),
(194,16,o),
(208,0,o),
(235,0,cs),
(316,0,ls),
(344,0,o),
(357,16,o),
(359,45,cs),
(373,294,l)
);
},
{
closed = 1;
nodes = (
(284,438,l),
(181,438,ls),
(102,438,o),
(71,395,o),
(75,298,cs),
(78,227,ls),
(81,161,o),
(107,135,o),
(168,135,cs),
(199,135,l),
(199,185,l),
(178,185,ls),
(147,185,o),
(135,201,o),
(133,241,cs),
(130,295,ls),
(126,366,o),
(148,388,o),
(200,388,cs),
(284,388,l)
);
},
{
closed = 1;
nodes = (
(348,388,ls),
(401,388,o),
(422,366,o),
(418,295,cs),
(415,241,ls),
(413,201,o),
(401,185,o),
(370,185,cs),
(349,185,l),
(349,135,l),
(380,135,ls),
(441,135,o),
(467,161,o),
(470,227,cs),
(473,298,ls),
(477,395,o),
(446,438,o),
(367,438,cs),
(264,438,l),
(264,388,l)
);
}
);
};
guides = (
{
angle = 90;
pos = (274,65);
userData = {
UFO.identifier = Dqq0cRREer;
};
}
);
layerId = master01;
shapes = (
{
closed = 1;
nodes = (
(194,477,o),
(160,519,o),
(160,594,cs),
(160,668,o),
(194,710,o),
(273,710,cs),
(343,710,o),
(387,668,o),
(387,594,cs),
(387,519,o),
(353,477,o),
(273,477,cs)
);
},
{
closed = 1;
nodes = (
(319,530,o),
(328,549,o),
(328,594,cs),
(328,638,o),
(319,657,o),
(273,657,cs),
(228,657,o),
(219,638,o),
(219,594,cs),
(219,549,o),
(228,530,o),
(273,530,cs)
);
},
{
closed = 1;
nodes = (
(207,0,o),
(194,16,o),
(192,44,cs),
(187,124,l),
(231,124,l),
(233,74,ls),
(234,60,o),
(238,53,o),
(256,53,cs),
(294,53,ls),
(312,53,o),
(316,60,o),
(317,74,cs),
(319,124,l),
(363,124,l),
(358,44,ls),
(356,16,o),
(343,0,o),
(312,0,cs),
(238,0,ls)
);
},
{
closed = 1;
nodes = (
(200,388,ls),
(148,388,o),
(128,366,o),
(130,295,cs),
(131,261,ls),
(132,221,o),
(145,205,o),
(176,205,cs),
(179,205,l),
(179,155,l),
(166,155,ls),
(105,155,o),
(77.294,181.005,o),
(76,247,cs),
(75,298,ls),
(73,395,o),
(102,438,o),
(181,438,cs),
(274,438,l),
(274,388,l)
);
},
{
closed = 1;
nodes = (
(152.5,100,o),
(136.335,120.285,o),
(146,154,cs),
(189,304,l),
(234,304,l),
(199,185,ls),
(192,161,o),
(202.52,147,o),
(221,147,cs),
(328,147,ls),
(345.5,147,o),
(356,161,o),
(349,186,cs),
(315,304,l),
(360,304,l),
(403,154,ls),
(412.665,120.285,o),
(396.906,100,o),
(364,100,cs),
(185,100,ls)
);
},
{
closed = 1;
nodes = (
(274,438,l),
(367,438,ls),
(446,438,o),
(475,395,o),
(473,298,cs),
(472,247,ls),
(471,181,o),
(443,155,o),
(382,155,cs),
(369,155,l),
(369,205,l),
(372,205,ls),
(403,205,o),
(416,221,o),
(417,261,cs),
(418,295,ls),
(420,366,o),
(400,388,o),
(348,388,cs),
(274,388,l)
);
}
);
width = 548;
}
);
}
{
color = (24,168,171,255);
glyphname = pizarron;
layers = (
{
background = {
shapes = (
{
closed = 1;
nodes = (
(430,164,l),
(430,75,ls),
(430,69,o),
(426,65,o),
(420,65,cs),
(360,65,ls),
(354,65,o),
(350,69,o),
(350,75,cs),
(350,164,l),
(285,164,l),
(284,25,ls),
(284,9,o),
(293,0,o),
(309,0,cs),
(470,0,ls),
(486,0,o),
(495,9,o),
(495,25,cs),
(497,164,l)
);
}
);
};
layerId = master01;
shapes = (
{
closed = 1;
nodes = (
(165,213,l),
(159,213,o),
(155,217,o),
(155,223,cs),
(155,259,ls),
(155,265,o),
(159,269,o),
(165,269,c),
(635,269,l),
(641,269,o),
(645,265,o),
(645,259,cs),
(645,223,ls),
(645,217,o),
(641,213,o),
(635,213,c)
);
},
{
closed = 1;
nodes = (
(580,635,l),
(586,635,o),
(590,631,o),
(590,625,cs),
(590,334,l),
(210,334,l),
(210,625,ls),
(210,631,o),
(214,635,o),
(220,635,c)
);
},
{
closed = 1;
nodes = (
(690,148,l),
(706,148,o),
(715,157,o),
(715,173,cs),
(715,309,ls),
(715,325,o),
(706,334,o),
(690,334,cs),
(626,334,l),
(660,294,l),
(660,675,ls),
(660,691,o),
(651,700,o),
(635,700,c),
(165,700,l),
(149,700,o),
(140,691,o),
(140,675,cs),
(140,294,l),
(174,334,l),
(110,334,ls),
(94,334,o),
(85,325,o),
(85,309,cs),
(85,173,ls),
(85,157,o),
(94,148,o),
(110,148,c)
);
}
);
width = 780;
}
);
}
{
color = (38,219,207,255);
glyphname = seven.alt;
layers = (
{
layerId = master01;
shapes = (
{
closed = 1;
nodes = (
(395,631,l),
(314,445,o),
(183,186,o),
(104,10,c),
(109,0,l),
(206,0,l),
(214,10,l),
(253,135,o),
(385,449,o),
(460,625,c),
(461,638,l),
(456,695,l),
(448,700,l),
(381,697,o),
(322,695,o),
(255,695,cs),
(186,695,o),
(134,697,o),
(49,700,c),
(44,694,l),
(40,612,l),
(49,605,l),
(169,611,o),
(278,611,o),
(407,611,c)
);
},
{
closed = 1;
nodes = (
(140,348,o),
(215,348,o),
(295,348,cs),
(365,348,o),
(403,345,o),
(433,345,c),
(438,353,l),
(438,408,l),
(433,414,l),
(385,411,o),
(355,410,o),
(295,410,cs),
(217,410,o),
(148,411,o),
(76,414,c),
(70,406,l),
(70,353,l),
(76,345,l)
);
}
);
width = 461;
}
);
}
{
color = (38,219,207,255);
glyphname = seven.osf;
layers = (
{
layerId = master01;
shapes = (
{
closed = 1;
nodes = (
(385,441,l),
(300.021,244.74,o),
(172.418,-21.999,o),
(94,-210,c),
(99,-220,l),
(206,-220,l),
(214,-210,l),
(253.132,-72.536,o),
(370.879,250.385,o),
(450,435,c),
(451,448,l),
(446,505,l),
(438,510,l),
(367.535,506.845,o),
(305.471,505,o),
(235,505,cs),
(168,505,o),
(117,507,o),
(34,510,c),
(29,504,l),
(20,422,l),
(29,415,l),
(152.344,421.167,o),
(264.397,421,o),
(397,421,c)
);
}
);
width = 471;
}
);
}
{
color = (38,219,207,255);
glyphname = seven.tf;
layers = (
{
layerId = master01;
shapes = (
{
closed = 1;
nodes = (
(445,631,l),
(364,445,o),
(253,186,o),
(174,10,c),
(179,0,l),
(276,0,l),
(284,10,l),
(323,135,o),
(435,449,o),
(510,625,c),
(511,638,l),
(506,695,l),
(498,700,l),
(431,697,o),
(372,695,o),
(305,695,cs),
(238,695,o),
(187,697,o),
(104,700,c),
(99,694,l),
(90,612,l),
(99,605,l),
(219,611,o),
(328,611,o),
(457,611,c)
);
}
);
width = 600;
}
);
}
{
color = (38,219,207,255);
glyphname = six.osf;
layers = (
{
layerId = master01;
shapes = (
{
closed = 1;
nodes = (
(40,527.069,o),
(40,275,cs),
(40,93,o),
(121,-10,o),
(265,-10,c),
(404,-10,o),
(486,92,o),
(486,214,cs),
(486,368.311,o),
(402,438,o),
(284,438,c),
(198,438,o),
(144.038,384.048,o),
(99,327,c),
(123,288,l),
(158.769,320.789,o),
(212,358,o),
(281,358,c),
(354,358,o),
(396,299.428,o),
(396,221,cs),
(396,130,o),
(351,75,o),
(272,75,c),
(176,76,o),
(130,139,o),
(130,285,cs),
(130,501.924,o),
(288.135,614.025,o),
(439,642,c),
(441,647,l),
(433,697,l),
(426,700,l),
(211.004,694,o)
);
}
);
width = 526;
}
);
}
{
glyphname = sol;
layers = (
{
background = {
shapes = (
{
closed = 1;
nodes = (
(462,187,o),
(514,245,o),
(514,350,cs),
(514,453,o),
(462,511,o),
(368,511,cs),
(275,511,o),
(223,453,o),
(223,350,cs),
(223,245,o),
(275,187,o),
(368,187,cs)
);
},
{
closed = 1;
nodes = (
(320,249,o),
(293,285,o),
(293,350,cs),
(293,414,o),
(320,450,o),
(368,450,cs),
(413,450,o),
(444,414,o),
(444,350,cs),
(444,285,o),
(417,249,o),
(368,249,cs)
);
}
);
};
layerId = master01;
shapes = (
{
closed = 1;
nodes = (
(349,545,l),
(389,545,l),
(397,551,l),
(409,688,l),
(404,698,l),
(335,698,l),
(330,688,l),
(341,551,l)
);
},
{
closed = 1;
nodes = (
(330,10,l),
(335,0,l),
(404,0,l),
(409,10,l),
(397,147,l),
(389,153,l),
(349,153,l),
(341,147,l)
);
},
{
closed = 1;
nodes = (
(457,200,o),
(496,252,o),
(496,345,cs),
(496,438,o),
(447,489,o),
(369,489,cs),
(282,489,o),
(243,438,o),
(243,345,cs),
(243,252,o),
(282,200,o),
(369,200,cs)
);
},
{
closed = 1;
nodes = (
(319,260,o),
(309,289,o),
(309,345,cs),
(309,400,o),
(319,429,o),
(369,429,cs),
(421,429,o),
(430,400,o),
(430,345,cs),
(430,289,o),
(421,260,o),
(369,260,cs)
);
},
{
closed = 1;
nodes = (
(556,370,l),
(556,330,l),
(562,322,l),
(679,310,l),
(689,315,l),
(689,384,l),
(679,389,l),
(562,378,l)
);
},
{
closed = 1;
nodes = (
(61,389,l),
(51,384,l),
(51,315,l),
(61,310,l),
(178,322,l),
(184,330,l),
(184,370,l),
(178,378,l)
);
},
{
closed = 1;
nodes = (
(216,473,l),
(245,501,l),
(246,511,l),
(158,617,l),
(147,620,l),
(98,571,l),
(102,561,l),
(207,472,l)
);
},
{
closed = 1;
nodes = (
(581,81,l),
(592,78,l),
(641,127,l),
(637,137,l),
(532,226,l),
(522,224,l),
(494,196,l),
(492,186,l)
);
},
{
closed = 1;
nodes = (
(494,502,l),
(522,474,l),
(532,472,l),
(637,561,l),
(641,571,l),
(592,620,l),
(581,617,l),
(492,512,l)
);
},
{
closed = 1;
nodes = (
(102,137,l),
(98,127,l),
(147,78,l),
(158,81,l),
(246,187,l),
(245,197,l),
(216,225,l),
(207,226,l)
);
}
);
width = 738;
}
);
}
{
color = (38,219,207,255);
glyphname = three.osf;
layers = (
{
background = {
shapes = (
{
closed = 1;
nodes = (
(130,1,o),
(209,4,o),
(269,4,cs),
(328,4,o),
(392,1,o),
(454,-1,c),
(459,5,l),
(463,84,l),
(454,91,l),
(105,71,l),
(106,52,l),
(242,131,o),
(400,258,o),
(400,380,cs),
(400,473,o),
(337,520,o),
(247,520,c),
(164,520,o),
(94,490,o),
(35,460,c),
(32,451,l),
(49,406,l),
(58,401,l),
(112,420,o),
(161,435,o),
(216,435,c),
(266,435,o),
(300,416,o),
(300,363,cs),
(300,255,o),
(111,117,o),
(39,64,c),
(38,54,l),
(54,5,l),
(60,0,l)
);
}
);
};
layerId = master01;
shapes = (
{
closed = 1;
nodes = (
(330,-110,o),
(457,-37,o),
(457,106,c),
(458,208,o),
(329,259,o),
(206,195,c),
(209,191,l),
(324,238,o),
(398,290,o),
(398,379,cs),
(398,476,o),
(330,520,o),
(243,520,cs),
(169,520,o),
(103,495,o),
(34,460,c),
(30,452,l),
(47,406,l),
(58,401,l),
(113,422,o),
(164,435,o),
(212,435,cs),
(272,435,o),
(308,415,o),
(308,362,cs),
(308,279,o),
(260,253,o),
(143,200,c),
(140,198,l),
(157,149,l),
(160,148,l),
(216,161,ls),
(320,185,o),
(367,154,o),
(367,95,c),
(367,-4,o),
(206,-85,o),
(56,-175,c),
(51,-179,l),
(74,-222,l),
(79,-225,l)
);
}
);
width = 497;
}
);
}
{
color = (38,219,207,255);
glyphname = three.tf;
layers = (
{
layerId = master01;
shapes = (
{
closed = 1;
nodes = (
(395,-10,o),
(517,72,o),
(517,221,cs),
(517,367,o),
(418,437,o),
(271,383,c),
(278,368,l),
(394,405,o),
(471,463,o),
(471,560,cs),
(471,663,o),
(396,710,o),
(306,710,c),
(234,710,o),
(166,682,o),
(105,645,c),
(103,640,l),
(125,591,l),
(129,589,l),
(190,612,o),
(231,626,o),
(282,626,cs),
(342,626,o),
(381,604,o),
(381,551,c),
(381,479,o),
(324,445,o),
(231,402,cs),
(192,384,l),
(207,335,l),
(262,349,ls),
(361,374,o),
(427,315,o),
(427,226,cs),
(427,117,o),
(379,74,o),
(305,74,c),
(245,74,o),
(164,104,o),
(112,125,c),
(104,124,l),
(70,35,l),
(76,27,l),
(134,6,o),
(199,-10,o),
(279,-10,c)
);
}
);
width = 600;
}
);
}
{
color = (99,255,209,255);
glyphname = triangulo.001;
layers = (
{
layerId = master01;
shapes = (
{
closed = 1;
nodes = (
(569,111,l),
(573,119,l),
(315,563,l),
(302,563,l),
(50,122,l),
(55,111,l)
);
}
);
width = 623;
}
);
}
{
color = (99,255,209,255);
glyphname = triangulo;
layers = (
{
background = {
shapes = (
{
closed = 1;
nodes = (
(604,111,l),
(329,580,l),
(60,111,l)
);
},
{
closed = 1;
nodes = (
(328,461,l),
(502,167,l),
(160,167,l)
);
}
);
};
layerId = master01;
shapes = (
{
closed = 1;
nodes = (
(598,115,l),
(602,123,l),
(330,592,l),
(316,592,l),
(50,127,l),
(55,115,l)
);
},
{
closed = 1;
nodes = (
(161,189,l),
(319,465,l),
(329,465,l),
(492,188,l),
(488,180,l),
(166,180,l)
);
}
);
width = 652;
}
);
}
{
glyphname = triste;
layers = (
{
guides = (
{
angle = 90;
pos = (385,630);
},
{
angle = 90;
pos = (285,630);
},
{
angle = 90;
pos = (485,630);
}
);
layerId = master01;
shapes = (
{
closed = 1;
nodes = (
(585,-10,o),
(710,129,o),
(710,350,cs),
(710,571,o),
(585,710,o),
(385,710,cs),
(185,710,o),
(60,571,o),
(60,350,cs),
(60,129,o),
(185,-10,o),
(385,-10,cs)
);
},
{
closed = 1;
nodes = (
(322,369,o),
(343,396,o),
(343,449,cs),
(343,501,o),
(322,528,o),
(285,528,cs),
(249,528,o),
(228,501,o),
(228,449,cs),
(228,396,o),
(249,369,o),
(285,369,cs)
);
},
{
closed = 1;
nodes = (
(218,55,o),
(130,155,o),
(130,350,cs),
(130,545,o),
(218,645,o),
(385,645,cs),
(552,645,o),
(640,545,o),
(640,350,cs),
(640,155,o),
(552,55,o),
(385,55,cs)
);
},
{
closed = 1;
nodes = (
(521,369,o),
(542,396,o),
(542,449,cs),
(542,501,o),
(521,528,o),
(485,528,cs),
(448,528,o),
(427,501,o),
(427,449,cs),
(427,396,o),
(448,369,o),
(485,369,cs)
);
},
{
closed = 1;
nodes = (
(310,296,o),
(248,260,o),
(212,193,c),
(213,188,l),
(238,169,l),
(243,169,l),
(270,202,o),
(329,226,o),
(385,226,c),
(385,296,l)
);
},
{
closed = 1;
nodes = (
(385,226,l),
(441,226,o),
(500,202,o),
(527,169,c),
(532,169,l),
(557,188,l),
(558,193,l),
(522,260,o),
(460,296,o),
(385,296,c)
);
}
);
width = 770;
}
);
}
{
color = (38,219,207,255);
glyphname = two.osf;
layers = (
{
background = {
shapes = (
{
closed = 1;
nodes = (
(430,-190,l),
(440,-185,l),
(454,-96,l),
(447,-90,l),
(93,-103,l),
(101,-131,l),
(175,-69,o),
(428,135,o),
(428,358,cs),
(428,457,o),
(354,521,o),
(242,521,cs),
(158,521,o),
(101,489,o),
(38,458,c),
(36,453,l),
(58,398,l),
(64,396,l),
(124,415,o),
(166,428,o),
(220,428,c),
(275,428,o),
(328,400,o),
(328,328,cs),
(328,170,o),
(97,-47,o),
(36,-107,c),
(30,-118,l),
(43,-184,l),
(50,-190,l)
);
}
);
};
layerId = master01;
shapes = (
{
closed = 1;
nodes = (
(130,1,o),
(209,4,o),
(269,4,cs),
(327.73,4,o),
(392.332,0.958,o),
(454,-1,c),
(459,5,l),
(463,84,l),
(454,91,l),
(105,71,l),
(106,52,l),
(242.306,130.6,o),
(400,258,o),
(400,380,cs),
(400,473,o),
(337,520,o),
(247,520,c),
(163.785,520,o),
(94,490,o),
(35,460,c),
(32,451,l),
(49,406,l),
(58,401,l),
(112,420,o),
(161,435,o),
(216,435,c),
(265.814,435,o),
(300,416,o),
(300,363,cs),
(300,255,o),
(110.645,116.739,o),
(39,64,c),
(38,54,l),
(54,5,l),
(60,0,l)
);
}
);
width = 493;
}
);
}
{
color = (38,219,207,255);
glyphname = two.tf;
layers = (
{
layerId = master01;
shapes = (
{
closed = 1;
nodes = (
(492,0,l),
(502,5,l),
(516,94,l),
(509,100,l),
(155,87,l),
(163,59,l),
(237,121,o),
(490,325,o),
(490,548,cs),
(490,647,o),
(416,711,o),
(304,711,cs),
(220,711,o),
(163,679,o),
(100,648,c),
(98,643,l),
(120,588,l),
(126,586,l),
(186,605,o),
(228,618,o),
(282,618,c),
(337,618,o),
(390,590,o),
(390,518,cs),
(390,360,o),
(159,143,o),
(98,83,c),
(92,72,l),
(105,6,l),
(112,0,l)
);
}
);
width = 600;
}
);
}
{
color = (24,168,171,255);
glyphname = y.alt;
layers = (
{
layerId = master01;
shapes = (
{
closed = 1;
nodes = (
(386,-66,o),
(353,-133,o),
(254,-133,cs),
(202,-133,o),
(155,-117,o),
(94,-89,c),
(86,-89,l),
(54,-156,l),
(58,-163,l),
(122,-199,o),
(190,-220,o),
(253,-220,cs),
(409.429,-220,o),
(472,-108,o),
(472,127,cs),
(472,235,ls),
(472,312,o),
(474,433,o),
(482,500,c),
(477,510,l),
(382,510,l),
(377,500,l),
(384.373,436.806,o),
(387,321,o),
(387,245,c),
(387,132,o),
(359,70,o),
(278,70,cs),
(200,70,o),
(177,117,o),
(177,235,cs),
(177,295,o),
(181,385,o),
(181,445,cs),
(181,497,o),
(157,520,o),
(125,520,cs),
(102,520,o),
(71,515,o),
(44,511,c),
(40,446,l),
(134,427,l),
(92,478,l),
(92,145,ls),
(92,40,o),
(149,-10,o),
(242,-10,cs),
(345,-10,o),
(382,53,o),
(400,130,c),
(367,76,l),
(401,76,l),
(386,114,l)
);
}
);
width = 522;
}
);
}
{
color = (38,219,207,255);
glyphname = zero.osf;
layers = (
{
layerId = master01;
shapes = (
{
closed = 1;
nodes = (
(439,-10,o),
(539,98,o),
(539,255,cs),
(539,412,o),
(439,520,o),
(295,520,cs),
(150,520,o),
(50,412,o),
(50,255,cs),
(50,98,o),
(150,-10,o),
(295,-10,cs)
);
},
{
closed = 1;
nodes = (
(202,80,o),
(145,147,o),
(145,255,cs),
(145,363,o),
(202,430,o),
(295,430,cs),
(387,430,o),
(444,363,o),
(444,255,cs),
(444,147,o),
(387,80,o),
(295,80,cs)
);
}
);
width = 589;
}
);
}
